<?xml version="1.0" encoding="utf-8"?>
<!-- Generator: Adobe Illustrator 19.0.0, SVG Export Plug-In . SVG Version: 6.00 Build 0)  -->
<svg version="1.1" id="Capa_1" xmlns="http://www.w3.org/2000/svg" xmlns:xlink="http://www.w3.org/1999/xlink" x="0px" y="0px"
	 viewBox="0 0 1127.9 778.5" style="enable-background:new 0 0 1127.9 778.5;" xml:space="preserve">
<style type="text/css">
	.st0{fill:#DBDBDB;}
	.st1{fill:#35303F;}
	.st2{font-family:'ArchivoNarrow-Regular';}
	.st3{font-size:14px;}
	.st4{fill:none;stroke:#DA9229;stroke-width:2;stroke-miterlimit:10;}
	.st5{fill:none;}
	.st6{fill:#F4F4F4;}
	.st7{fill:#AAA9A9;}
	.st8{font-family:'FiraSans-Regular';}
	.st9{font-size:16px;}
</style>
<rect id="XMLID_693_" x="70.3" y="60.4" class="st0" width="988.2" height="651.1"/>
<g id="XMLID_687_">
	<g id="XMLID_690_">
		<text id="XMLID_38_" transform="matrix(1 0 0 1 548.4355 666.9419)" class="st1 st2 st3">SEND</text>
	</g>
	<line id="XMLID_689_" class="st4" x1="514.4" y1="680.1" x2="614.4" y2="680.1"/>
	<rect id="XMLID_688_" x="514.4" y="645.1" class="st5" width="100" height="35"/>
</g>
<rect id="XMLID_684_" x="24.5" y="21.4" class="st4" width="1079.7" height="729.1"/>
<rect id="XMLID_683_" x="116.4" y="93.7" class="st6" width="896" height="190.9"/>
<rect id="XMLID_682_" x="116.4" y="303" class="st6" width="896" height="47"/>
<rect id="XMLID_41_" x="80.5" y="113.2" class="st5" width="967.7" height="29"/>
<text id="XMLID_680_" transform="matrix(1.0089 0 0 1 461.6196 125.2046)" class="st7 st8 st9">Escríbenos aquí tu mensaje:</text>
<g id="XMLID_675_">
	<rect id="XMLID_63_" x="80.5" y="321" class="st5" width="967.7" height="29"/>
	<text id="XMLID_62_" transform="matrix(1.0089 0 0 1 496.8911 333.0263)" class="st7 st8 st9">Nombre /Empresa</text>
</g>
<rect id="XMLID_674_" x="116.4" y="368.6" class="st6" width="896" height="47"/>
<g id="XMLID_669_">
	<rect id="XMLID_67_" x="80.5" y="386.6" class="st5" width="967.7" height="29"/>
	<text id="XMLID_64_" transform="matrix(1.0089 0 0 1 540.8618 398.6404)" class="st7 st8 st9">E-mail</text>
</g>
<rect id="XMLID_668_" x="116.4" y="434" class="st6" width="896" height="47"/>
<g id="XMLID_661_">
	<rect id="XMLID_76_" x="80.5" y="452" class="st5" width="967.7" height="29"/>
	<text id="XMLID_75_" transform="matrix(1.0089 0 0 1 532.1851 464.0425)" class="st7 st8 st9">Télefono</text>
</g>
<rect id="XMLID_660_" x="116.4" y="499.4" class="st6" width="896" height="47"/>
<g id="XMLID_650_">
	<rect id="XMLID_72_" x="80.5" y="517.4" class="st5" width="967.7" height="29"/>
	<text id="XMLID_71_" transform="matrix(1.0089 0 0 1 443.7505 529.4446)" class="st7 st8 st9">Línea de Negocio que te interesa</text>
</g>
<rect id="XMLID_649_" x="116.4" y="564.8" class="st6" width="896" height="47"/>
<g id="XMLID_643_">
	<rect id="XMLID_74_" x="80.5" y="582.8" class="st5" width="967.7" height="29"/>
	<text id="XMLID_73_" transform="matrix(1.0089 0 0 1 549.2563 594.8468)" class="st7 st8 st9">País</text>
</g>
</svg>
