<!--
When you download the icons.svg from fontastic,
they come with id's separated by a hiphen. However,
we're using two hiphens instead for reasons god knows why.

do not replace this file with a new download. instead add a new <symbol>
everytime you add new icons, copied from the new source.

goncalo@pixelmatters
-->

<svg xmlns="http://www.w3.org/2000/svg" style="display: none;">

    <symbol id="pixel--behance" viewBox="0 0 512 512">
      <path d="m336 127l127 0 0 32-127 0z m176 188l-166 0c2 40 21 54 56 54 26 0 46-8 50-22l51 0c-18 54-51 69-103 69-72 0-117-49-117-119 0-68 47-119 117-119 78 0 116 68 112 137z m-166-46l103 0c-6-31-20-44-51-44-40 0-51 27-52 44z m-80 50c0 64-55 91-112 91l-154 0 0-314 149 0c61 0 102 21 102 79 0 31-16 52-43 65 38 11 58 41 58 79z m-137-170l-65 0 0 73 71 0c24 0 42-11 42-37 0-30-23-36-48-36z m11 119l-76 0 0 86 75 0c27 0 51-9 51-41 0-32-20-45-50-45z"/>
    </symbol>

    <symbol id="pixel--dribbble" viewBox="0 0 512 512">
      <path d="m505 202c-4-16-9-32-15-48-7-15-14-29-24-43-9-13-19-26-31-37-11-12-24-22-38-31-13-9-28-17-43-23-15-7-31-12-48-15-17-3-34-5-51-5-17 0-35 2-51 5-17 3-33 8-48 15-15 6-30 14-44 23-13 9-26 19-37 31-12 11-22 24-31 37-10 14-18 28-24 43-6 16-11 32-15 48-3 16-5 33-5 51 0 17 2 34 5 51 4 16 9 32 15 47 6 15 14 29 24 43 9 13 19 26 31 37 11 12 24 22 37 31 14 9 29 17 44 23 15 7 31 12 48 15 16 4 34 5 51 5 17 0 34-1 51-5 17-3 33-8 48-15 15-6 30-14 43-23 14-9 27-19 38-31 12-11 22-24 31-37 10-14 17-28 24-43 6-15 11-31 15-47 3-17 5-34 5-51 0-18-2-35-5-51z m-32 48c-4 0-77-16-152-7-2-3-3-7-5-11-4-10-9-21-14-31 86-35 121-85 121-85 31 36 49 83 50 134z m-74-159c-1 0-32 47-114 78-37-68-78-122-81-126 16-4 33-6 51-6 55 0 105 20 144 54z m-196-48c0 0 0 0 0 0 0 0 0 0-1 0 0 0 1 0 1 0z m-41 14c3 4 43 58 81 125-105 27-195 26-201 26 14-67 59-122 120-151z m-125 196c0-3 0-5 0-7 4 0 112 2 224-31 6 12 12 24 18 37-3 1-6 1-9 2-117 38-177 143-177 143 0 0 0 0 0 0-35-38-56-89-56-144z m218 215c-53 0-101-18-139-49 3 2 5 4 5 4 0 0 42-90 171-135 0 0 1 0 1-1 31 79 44 146 47 164-26 11-55 17-85 17z m122-36c-3-13-14-77-43-155 71-11 131 8 136 10-10 60-44 112-93 145z"/>
    </symbol>

    <symbol id="pixel--facebook" viewBox="0 0 512 512">
      <path d="m369 0c0 29 0 82 0 82 0 0-57-6-72 18-7 12-3 50-3 76 25 0 51 0 76 0-7 32-11 53-16 80-22 0-61 0-61 0l0 256c0 0-72 0-106 0 0-79 0-171 0-255-16 0-28 0-45 0 0-30 0-51 0-81 16 0 29 0 45 0 2-59 3-117 31-147 31-33 61-29 151-29z"/>
    </symbol>

    <symbol id="pixel--instagram" viewBox="0 0 512 512">
      <path d="m256 0c-69 0-78 0-105 1-22 0-42 4-63 12-34 14-61 41-75 75-8 21-12 41-12 63-1 27-1 36-1 105 0 69 0 78 1 105 0 22 5 42 12 63 13 34 41 61 75 74 21 8 41 11 63 11 27 3 36 3 105 3 69 0 78 0 105-1 22 0 42-4 63-12 34-13 61-41 75-74 8-21 12-41 12-63 1-28 1-37 1-106 0-69 0-78-1-105 0-22-5-42-12-63-13-34-41-61-75-74-21-8-41-11-63-11-27-3-36-3-105-3z m0 46c68 0 77 0 104 1 16 0 32 3 47 9 22 9 40 27 49 49 5 15 9 31 9 47 1 27 1 35 1 104 0 69 0 77-1 104 0 16-3 32-9 47-9 22-26 40-49 49-15 5-31 9-47 9-27 1-35 1-104 1-69 0-77 0-104-1-16 0-32-3-47-9-22-9-40-27-49-49-5-15-9-31-9-47-1-27-1-36-1-104 0-68 0-77 1-104 0-16 4-32 9-47 9-22 26-40 49-49 15-5 31-9 47-9 27-1 36-1 104-1z m0 78c-73 0-132 59-132 132 0 73 59 132 132 132 73 0 132-59 132-132 0-73-59-132-132-132z m0 218c-47 0-86-39-86-86 0-47 39-86 86-86 47 0 86 39 86 86 0 47-39 86-86 86z m168-223c0 17-14 31-31 31-17 0-31-14-31-31 0-17 14-31 31-31 17 0 31 14 31 31z"/>
    </symbol>

    <symbol id="pixel--linkedin" viewBox="0 0 512 512">
      <path d="m394 498l0-175c0-35-11-71-53-71-42 0-60 36-60 72l0 174-113 0 0-320 113 0 0 43c30-37 56-53 102-53 47 0 124 22 124 148l0 182z m-331-367c-35 0-63-25-63-57 0-31 28-56 63-56 35 0 63 25 63 56 0 32-28 57-63 57z m57 367l-114 0 0-320 114 0z"/>
    </symbol>

    <symbol id="pixel--refresh" viewBox="0 0 512 512">
      <path d="m505 254l-32 31-42 41c-10 11-28 8-36-4l-30-54-23-38c-9-16 5-36 24-33l25 4c-5-18-15-35-30-49-44-43-113-47-162-13l-14 14c-10 9-25 9-35 0l0 0c-10-10-10-25 0-34l14-15 0 1c2-2 3-4 5-5 69-49 165-43 227 17 27 26 43 59 49 92l48 8c18 3 25 25 12 37z m-335 28c9 16-5 36-24 33l-25-4c5 18 15 35 30 49 44 43 113 47 162 13l14-14c10-9 25-9 35 0l0 0c10 10 10 25 0 34l-14 15 0-1c-2 2-3 4-5 5-69 49-165 43-227-17-27-26-43-59-49-92l-48-8c-18-3-25-25-12-37l32-31 42-41c10-11 28-8 35 4l31 54z"/>
    </symbol>

    <symbol id="pixel--reply" viewBox="0 0 512 512">
      <path d="m329 183l-145 0 0 0c-1 0-1 0-1 0l-59 0 122-122c13-14 13-36 0-50l-1-1c-14-14-37-14-50 0l-180 180c-2 1-3 2-4 3l0 0c0 0 0 1 0 1l-1 0c-1 1-2 2-3 4 0 0 0 1-1 1-4 6-6 13-6 20 0 0 0 0 0 0 0 0 0 0 0 1 0 7 2 14 6 20 1 0 1 1 1 1 1 1 2 3 3 4l1 0c0 0 0 0 0 0l0 0c1 2 2 3 4 4l180 179c13 14 36 14 50 0l1 0c13-14 13-37 0-51l-122-121 59 0c0 0 0 0 1 0l0 0 145 0c61 0 110 49 110 110l0 109c0 21 16 37 36 37 21 0 37-16 37-37l0-109c0-101-82-183-183-183z"/>
    </symbol>

    <symbol id="pixel--right-arrow" viewBox="0 0 512 512">
      <path d="m119 64l197 192-200 194 0 0c-7 7-11 16-11 25 0 21 17 37 38 37 10 0 19-4 26-10l0 0 226-220 0 0c7-6 12-16 12-26 0 0 0 0 0 0 0 0 0 0 0 0 0-10-5-20-12-26l0 0-226-220 0 0c-7-6-16-10-26-10-21 0-38 16-38 37 0 11 6 21 14 27z"/>
    </symbol>

    <symbol id="pixel--star" viewBox="0 0 512 512">
      <path d="m512 205c0-13-11-24-24-24l-160 0-49-148c-3-10-12-17-23-17-11 0-20 7-23 17l-49 148-160 0c-13 0-24 11-24 24 0 8 4 15 10 19l129 92-50 149c-1 2-1 5-1 7 0 13 11 24 24 24 5 0 10-2 14-4l0 0 130-93 130 93c4 2 9 4 14 4 13 0 24-11 24-24 0-2 0-5-1-7l-50-149 129-92c6-4 10-11 10-19z"/>
    </symbol>

    <symbol id="pixel--heart" viewBox="0 0 512 512">
      <path d="m240 110c-21-31-46-46-88-46-57 0-104 43-104 96-1 160 157 288 213 288 56 0 201-127 203-288 0-53-47-96-104-96-42 0-68 15-88 46-9 12-9 13-16 12-7 1-7 0-16-12z"/>
    </symbol>

    <symbol id="pixel--twitter" viewBox="0 0 512 512">
      <path d="m348 48c41-1 63 14 83 33 18-1 41-11 54-18 5-3 9-5 13-7-7 20-18 37-34 49-3 3-7 6-11 8 0 0 0 0 0 0 23 0 41-10 59-16 0 0 0 1 0 1-9 15-22 30-35 41-6 4-11 8-17 13 0 24 0 47-5 67-26 118-95 198-206 232-39 13-103 18-148 7-23-6-43-12-62-21-11-4-20-9-30-15-3-2-6-4-9-6 10 1 22 4 34 2 10-2 20-1 30-4 23-5 45-12 63-22 9-5 22-12 28-19-12 0-22-3-31-6-34-12-54-34-67-67 11 1 40 4 47-2-13-1-25-8-34-14-28-17-50-46-50-90 4 2 8 4 11 5 7 3 14 5 22 7 4 0 11 2 15 1-1 0-1 0-1 0-5-6-14-10-19-17-18-22-34-55-24-95 3-11 7-20 11-28 1 0 1 0 1 0 2 5 7 8 9 11 9 12 20 22 32 30 38 30 73 49 128 62 14 4 30 7 47 7-4-14-3-36 1-50 9-33 29-57 59-70 7-3 15-6 24-7 4-1 8-1 12-2z"/>
    </symbol>

    <symbol id="pixel--spotify" viewBox="0 0 512 512">
      <path d="m256 512c-141 0-256-115-256-256 0-141 115-256 256-256 141 0 256 115 256 256 0 141-115 256-256 256z m-127-148l2 0c0 0 139-37 228 30 0 0 9 7 18 0 5-4 7-7 7-16 0 0 0-7-8-13-101-67-243-36-248-35-15 5-15 15-15 15 0 10 6 19 16 19z m-10-74l8-1c17-5 148-36 261 31l0 0c3 2 6 3 10 3 12 0 21-12 21-23 0-8-4-18-12-21l0 0c-135-77-283-30-292-28-9 2-16 10-16 19 0 11 9 20 20 20z m325-90c-145-89-333-41-342-39-13 2-19 12-19 23 0 14 11 24 24 24 2 0 4 0 6 0l0 0c2-1 178-46 306 33 7 4 14 4 14 4 13 0 24-11 24-24 0-9-5-17-13-21z"/>
    </symbol>

    <symbol id="pixel--porto" viewBox="0 0 512 512">
      <path d="m512 382l-512 0 0-262 512 0z m-498-12l485 0 0-237-485 0z m88-69l-25 0 0-103 37 0c25 0 38 16 38 36 0 19-13 35-38 35l-13 0z m0-80l0 27 7 0c9 0 17-3 17-14 0-10-8-13-17-13 0 0-7 0-7 0z m50 46c0-21 16-35 37-35 21 0 37 14 37 35 0 21-16 35-37 35-21 0-37-14-37-35z m24 0c0 8 5 15 13 15 8 0 13-7 13-15 0-8-5-14-13-14-8 0-13 6-13 14z m101-14l-8 0c-10 0-13 8-13 17l0 32-24 0 0-68 22 0 0 11c2-8 7-11 12-11 1 0 11 0 11 0z m40-43l0 24 13 0 0 19-13 0 0 24c0 3 3 5 6 5 5 0 8 0 8 0l0 20c0 0-11 2-16 2-11 0-21-3-21-18l0-32-9 0 0-19 9 0 0-24c0-1 23-1 23-1z m19 57c0-21 16-35 37-35 21 0 37 14 37 35 0 21-16 35-37 35-21 2-37-14-37-35z m22 0c0 8 5 15 13 15 8 0 13-7 13-15 0-8-5-14-13-14-6 0-13 6-13 14z m69 7c8 0 15 6 15 14 0 8-7 14-15 14-8 0-14-6-14-14 0-8 6-14 14-14z"/>
    </symbol>

    <symbol id="pixel--android" viewBox="0 0 512 512">
      <path d="m391 491c-2 1-47 21-135 21-86 0-133-20-135-21l-5-3 0-458 4-3c2-1 46-27 136-27 84 0 133 25 135 27l5 2 0 459z m-14-449c-14-6-57-22-121-22-68 0-107 16-120 22l0 342 241 0z m0 363l-241 0 0 69c15 5 55 17 120 17 66 0 107-12 121-17z m-139 41l0-4c0-5 3-9 8-9l20 0c5 0 8 4 8 9l0 4c0 4-3 8-8 8l-20 0c-5 0-8-4-8-8z m81-13l20 0c4 0 8 4 8 9l0 4c0 4-4 8-8 8l-20 0c-5 0-9-4-9-8l0-4c0-5 4-9 9-9z m-126 21l-20 0c-4 0-8-4-8-8l0-4c0-5 4-9 8-9l20 0c5 0 9 4 9 9l0 4c0 4-4 8-9 8z m51-306l83-86c3-4 9-4 13 0 4 4 4 10 0 14l-82 86c-2 2-4 3-7 3-2 0-5-1-7-3-4-4-4-10 0-14z"/>
    </symbol>

    <symbol id="pixel--developer" viewBox="0 0 512 512">
      <path d="m512 334l0 77-193 0 25 60c1 3 1 6-1 9-2 3-5 4-8 4l-154 0c-3 0-6-1-8-4-1-3-2-6 0-9l25-60-198 0 0-95 0 0 0-260c0-16 13-29 29-29l454 0c16 0 29 13 29 29l0 278z m-316 132l125 0-21-51-83 0z m-178-73l476 0 0-58-476 0z m476-338c0-5-5-9-10-9l-456 0c-5 0-10 4-10 9l0 261 476 0z m-351 116l63-39c4-3 9-2 11 2 2 4 1 9-3 11l-51 33 51 32c4 2 5 7 3 11-2 3-4 4-7 4-1 0-3 0-4-1l-63-39c-2-2-4-4-4-7 0-3 2-6 4-7z m134-62c2-4 7-6 11-4 4 2 6 6 4 11l-58 137c-1 3-4 5-7 5-1 0-2 0-3-1-4-2-6-6-5-11z m18 25c3-4 8-5 11-2l63 39c3 1 4 4 4 7 0 3-1 5-4 7l-63 39c-1 1-2 1-4 1-2 0-5-1-7-4-2-4-1-9 3-11l52-32-52-33c-4-2-5-7-3-11z m-32 245c-8 0-15-7-15-15 0-9 7-15 15-15 9 0 15 6 15 15 0 8-6 15-15 15z"/>
    </symbol>

    <symbol id="pixel--ux-ui" viewBox="0 0 512 512">
      <path d="m503 447l-494 0c-5 0-9-4-9-9l0-364c0-5 4-9 9-9l494 0c5 0 9 4 9 9l0 364c0 5-4 9-9 9z m-193-18l101 0 0-72-101 0z m-180 0l162 0 0-81c0-5 4-9 9-9l119 0c5 0 9 4 9 9l0 81 22 0 0-238-321 0z m0-256l321 0 0-36-321 0z m364-90l-476 0 0 346 94 0 0-301c0-5 4-9 8-9l340 0c5 0 9 4 9 9l0 301 25 0z m-293 82c-5 0-9-4-9-9 0-5 4-9 9-9 5 0 9 4 9 9 0 5-4 9-9 9z m-27 0c-5 0-10-4-10-9 0-5 5-9 10-9 5 0 9 4 9 9 0 5-4 9-9 9z m-28 0c-5 0-9-4-9-9 0-5 4-9 9-9 5 0 9 4 9 9 0 5-4 9-9 9z m168 102l104 0 0 18-104 0z m0-40l104 0 0 18-104 0z m-41 101l-116 0c-5 0-9-4-9-9l0-90c0-5 4-9 9-9l116 0c4 0 8 4 8 9l0 90c0 5-4 9-8 9z m-10-90l-97 0 0 72 97 0z m0 137l-108 0 0-18 108 0z m0 36l-108 0 0-18 108 0z"/>
    </symbol>

    <symbol id="pixel--ios" viewBox="0 0 512 512">
      <path d="m369 512l-226 0c-15 0-27-14-27-32l0-448c0-18 12-32 27-32l226 0c15 0 27 14 27 32l0 448c0 18-12 32-27 32z m7-479c0-7-4-12-9-12l-222 0c-5 0-9 5-9 12l0 343 240 0z m0 363l-240 0 0 83c0 7 4 12 9 12l222 0c5 0 9-5 9-12z m-115 74c-13 0-24-11-24-24 0-13 11-24 24-24 12 0 23 11 23 24 0 13-11 24-23 24z m-7-328l84-86c4-4 10-4 13 0 4 4 4 10 0 14l-84 86c-2 2-4 3-6 3-3 0-5-1-7-3-4-4-4-10 0-14z"/>
    </symbol>

    <symbol id="pixel--cross" viewBox="0 0 512 512">
      <path d="m296 253l202 203c12 11 12 30 0 42-12 12-31 12-43 0l-202-202-202 202c-12 12-31 12-43 0-11-12-11-31 0-42l203-203-203-202c-11-12-11-31 0-43 12-11 31-11 43 0l202 203 202-203c12-11 31-11 43 0 12 12 12 31 0 43z"/>
    </symbol>

    <symbol id="pixel--play" viewBox="0 0 512 512">
      <path d="m42 24l0 464c0 19 21 31 37 21l380-232c15-10 15-32 0-41l-380-232c-16-10-37 1-37 20z"/>
    </symbol>

    <symbol id="pixel--photoshop" viewBox="0 0 512 512">
      <path d="m201 166c-15-3-29-2-45 0 0 28 0 54 0 81 0 1 2 3 3 3 17 3 34 3 50-5 17-8 25-25 23-44-2-18-13-30-31-35z m307 90l0-243c0-8 0-9-8-9l-486 0c-8 0-10 1-10 9l0 486c0 8 1 8 9 8 162 0 325 0 487 0 6 0 8-2 8-8 0-81 0-162 0-243z m-283 23c-22 8-45 9-69 7l0 90-44 0 0-6c0-75 0-151-1-226 0-7 1-10 8-10 34-4 67-8 100 0 36 9 56 32 58 65 2 40-16 67-52 80z m178 51c-2 23-15 38-36 46-29 10-57 7-85-4-5-2-6-4-4-9 2-8 5-17 7-25 11 4 23 8 34 10 8 2 17 1 26-1 7-1 13-6 14-14 1-8-1-15-9-19-5-4-12-6-18-9-9-5-20-9-29-14-35-23-24-66 0-82 13-9 27-12 41-13 18 0 35 3 52 11l-9 31c-7-3-14-6-20-7-9-2-17-3-25-2-11 1-18 9-18 18 0 6 2 10 7 13 7 4 14 7 21 10 7 4 15 7 23 11 19 10 29 27 28 49z"/>
    </symbol>

    <symbol id="pixel--illustrator" viewBox="0 0 512 512">
      <path d="m192 276l61 0c-10-36-21-69-31-103-10 34-20 67-30 103z m304-272l-485 0c-8 0-7 2-7 10l0 486c0 8-1 8 7 8l486 0c8 0 11 0 11-8l0-485c0-9-3-11-12-11z m-187 380c-6 0-13-1-19 0-5 0-7-2-8-6-6-20-12-39-19-59-1-4-2-5-7-5-22 0-44 0-66 0-5 0-7 1-8 5-6 20-12 40-18 59-1 4-3 6-7 6-14-1-27 0-41 0 3-13 7-24 11-35 22-69 44-138 66-206 1-5 3-7 8-7 16 1 31 0 47 0 3 0 5 0 6 4 26 80 52 161 78 242 0 0 0 2 0 2 0 0-23 0-23 0z m83 0l-48 0 0-180 48 0z m-25-204c-15 0-26-10-26-25 0-14 11-24 26-24 15 0 25 10 25 24 1 15-10 25-25 25z"/>
    </symbol>

    <symbol id="pixel--balsamiq" viewBox="0 0 512 512">
      <path d="m266 17c-1-1-4-3-6-5 5-7 13-9 20-11 6-2 12-1 18 2 19 10 38 19 57 28 53 28 95 66 121 120 21 43 28 88 23 134-3 31-11 62-25 90-21 41-54 72-93 95-34 20-71 33-110 39-47 7-93 4-138-12-57-22-94-62-110-120-11-42-13-84-9-126 4-43 13-84 31-122 9-22 21-42 36-59 21-25 47-39 80-42 35-4 70-7 105-11z m-19 461c6-1 16-1 26-2 59-4 106-31 141-78 41-55 59-117 49-186-6-39-22-73-50-102-16-16-35-26-55-36-4-2-7-3-12-1-9 5-18 5-27-1-8-5-18-10-27-14-18-8-36-14-56-13-31 2-61 9-90 20-12 5-23 11-33 19-21 17-35 40-45 64-14 34-21 70-24 106-2 34 0 68 8 102 11 48 39 83 86 102 34 13 69 19 109 20z m12-95c-41-1-75-9-106-31-24-17-40-41-41-72 0-2 0-4 1-5 2-4 6-4 8-1 1 1 2 2 2 3 6 23 22 38 42 49 47 27 97 33 148 13 23-8 41-23 56-41 1-2 2-5 4-6 1-2 3-2 5-3 1 2 3 4 3 5-2 17-8 32-19 46-20 24-47 36-77 41-10 1-20 2-26 2z m52-172c-1-14 9-20 21-21 11-1 21 9 21 20 0 13-11 26-23 26-11 0-19-11-19-25z m-143 21c-6 0-13-3-17-12-5-8-4-17 1-25 7-12 24-11 32 0 6 7 7 15 5 24-3 9-8 13-21 13z"/>
    </symbol>

    <symbol id="pixel--long-right-arrow" viewBox="0 0 512 512">
      <path d="m505 273c0 1-1 1-1 1l-134 145c-10 10-24 10-34 0-9-9-9-25 0-34l97-105-409 0c-13 0-24-11-24-24 0-13 11-24 24-24l409 0-97-105c-9-10-9-25 0-35 10-9 24-9 34 0l134 146c0 0 1 0 1 1 5 4 7 11 7 17 0 6-2 13-7 17z"/>
    </symbol>

    <symbol id="pixel--left-arrow" viewBox="0 0 512 512">
      <path d="m393 64l-197 192 200 194 0 0c7 7 11 16 11 25 0 21-17 37-38 37-10 0-19-4-26-10l0 0-226-220 0 0c-7-6-12-16-12-26 0 0 0 0 0 0 0 0 0 0 0 0 0-10 5-20 12-26l0 0 226-220 0 0c7-6 16-10 26-10 21 0 38 16 38 37 0 11-5 21-14 27z"/>
    </symbol>

    <symbol id="pixel--long-left-arrow" viewBox="0 0 512 512">
      <path d="m7 239c0-1 1-1 1-1l134-145c10-10 24-10 34 0 9 9 9 25 0 34l-97 105 409 0c13 0 24 11 24 24 0 13-11 24-24 24l-409 0 97 105c9 10 9 25 0 35-10 9-24 9-34 0l-134-146c0 0-1 0-1-1-5-4-7-11-7-17 0-6 2-13 7-17z"/>
    </symbol>

    <symbol id="pixel--paper" viewBox="0 0 512 512">
      <path d="m8 250l291 0 0 209-291 0z m295 177l-20 31-274-176 20-31z m-159-13l102 0 0 98-102 0z m101 67l-20 31-274-175 20-32z m-185-276l109 0 0 117-109 0z m190 286l-33 18-156-286 33-18z m-190-286l115 0 0 129-115 0z m190 286l-33 18-156-286 33-18z m-190-286l122 0 0 141-122 0z m190 286l-33 18-156-286 33-18z m-190-274l129 0 0 141-129 0z m190 274l-33 18-156-286 33-18z m-190-262l135 0 0 140-135 0z m190 262l-33 18-156-286 33-18z m-190-250l141 0 0 141-141 0z m190 250l-33 18-156-286 33-18z m-126-35c-9 0-17-8-17-18l0-409c0-10 8-18 17-18l300 0c9 0 17 8 17 18l0 409c0 10-8 18-17 18z m300-434c3 0 6 3 6 7l0 409c0 4-3 7-6 7l-300 0c-3 0-6-3-6-7l0-409c0-4 3-7 6-7l300 0m0-22l-300 0c-15 0-28 13-28 29l0 409c0 16 13 29 28 29l300 0c15 0 28-13 28-29l0-409c0-16-13-29-28-29z m-29 73l-242 0c-1 0-2 0-2-1l0-16c0-1 1-2 2-2l242 0c1 0 2 1 2 2l0 16c0 1-1 1-2 1z m-35 50l-208 0c0 0-1-1-1-2l0-16c0-1 1-2 1-2l208 0c1 0 1 1 1 2l0 16c0 1 0 2-1 2z m35 47l-242 0c-1 0-2-1-2-2l0-16c0-1 1-1 2-1l242 0c1 0 2 0 2 1l0 16c0 1-1 2-2 2z m-15 49l-227 0c-1 0-2-1-2-1l0-17c0-1 1-1 2-1l227 0c1 0 1 0 1 1l0 17c0 0 0 1-1 1z m-81 48l-147 0c0 0-1 0-1-1l0-17c0 0 1-1 1-1l147 0c0 0 1 1 1 1l0 17c0 1-1 1-1 1z m67 49l-214 0c0 0-1 0-1-1l0-16c0-1 1-2 1-2l214 0c1 0 2 1 2 2l0 16c0 1-1 1-2 1z m37 99l-66 0c-1 0-1 0-1 0l0-18c0 0 0-1 1-1l66 0c1 0 1 1 1 1l0 18c0 0 0 0-1 0z m-166 70l-23 13-150-274 23-13z m-228-462l3 0 0 36-3 0z m231 471l-20 11-4-9 19-10z m-222-437l2 0 0 1-2 0z m-16-27l3-2m-2 3l3-1m-2 2l3-1m-2 3l2-2m-2 3l3-1m-2 3l3-2m132 260l-6 3-40-72 6-3z m-135-270l1 0 0 10-1 0z"/>
    </symbol>

    <symbol id="pixel--sketching" viewBox="0 0 512 512">
      <path d="m168 457c-3 3-8 5-12 5-5-1-9-4-13-9l-51-73c-4-6-6-17-6-24l-2-247c0-5 1-11 5-15 4-4 8-7 13-7l102-2c6 0 11 3 16 6 4 4 7 10 7 16l1 246c0 8-4 19-7 25l-50 75c-1 1-2 2-3 4z m-63-350l1 249c0 3 1 10 3 13l49 67 46-69c2-4 4-10 4-14l-2-248z m-4 257l0-21 117-2 0 20z m37 75l0-20 35-1 1 21z m6-338l21 0 1 246-20 1z m137-88c3-7 10-13 18-13l108 0c5 0 10 2 14 6 3 3 5 8 5 14l2 473c0 6-2 11-6 14-3 4-8 6-14 6l-107 0c-6 0-11-2-14-6-4-3-6-8-6-14l-1-473c0-2 1-5 1-7z m129 481l-1-474-2-2-108 0c-1 0-2 0-2 2l2 473c0 1 0 1 0 1l2 1 107 0c1 0 2-1 2-1z m-66-446c2-3 5-5 9-5l59 0c5-1 9 3 9 8 0 5-4 9-9 9l-59 0c-5 0-9-4-9-9 0 0 0-2 0-3z m1 105c1-4 4-6 8-6l59 0c5 0 10 4 10 9 0 5-5 10-10 10l-59 0c-4 0-9-5-9-10 0-1 0-2 1-3z m20-70c2-3 5-5 9-5l38 0c5 0 10 4 10 9 0 5-5 9-10 9l-38 0c-5 0-9-4-9-9 0-1 0-3 0-4z m0 35c2-4 5-6 9-6l38 0c5 0 10 4 10 9 0 5-5 9-10 9l-38 0c-5 0-9-4-9-9 0-1 0-2 0-3z m-20 142c1-3 4-5 8-5l59 0c5 0 10 4 10 9 0 5-5 9-10 9l-59 0c-4 0-9-4-9-9 0-2 1-3 1-4z m20-70c2-3 5-6 9-6l38 0c5 0 10 5 10 10 0 4-5 9-10 9l-38 0c-5 0-9-5-9-9 0-2 0-3 0-4z m0 34c2-3 5-5 9-5l38 0c5 0 10 4 10 9 0 5-5 9-10 9l-38 0c-5 0-9-4-9-9 0-1 0-3 0-4z m-19 149c1-3 4-5 8-5l59 0c5 0 9 4 9 9 0 5-4 9-9 9l-59 0c-5 0-9-4-9-9 0-2 0-2 1-4z m20-77c2-4 4-6 9-6l38 0c5 0 9 5 9 9 0 5-4 10-9 10l-38 0c-5 0-10-5-10-10 0 0 0-2 1-3z m0 42c2-3 4-6 9-6l38 0c5 0 9 5 9 10 0 4-4 9-9 9l-38 0c-5 0-10-5-10-9 0-2 0-3 1-4z m0 72c2-3 4-5 9-5l38 0c5 0 9 4 9 9 0 5-4 9-9 9l-38 0c-5 0-10-4-10-9 0-2 0-2 1-4z m0 35c2-4 4-6 9-6l38 0c5 0 9 4 9 9 0 5-4 9-9 9l-38 0c-5 0-10-4-10-9 0-1 1-2 1-3z"/>
    </symbol>

    <symbol id="pixel--copywriter" viewBox="0 0 512 512">
      <path d="m144 484c-4 0-8-3-10-7l-133-344c-1-2-1-5 1-8 1-2 3-4 6-5l238-93c3-1 6-1 8 1 3 1 5 3 6 6l132 344c3 5 0 11-5 13l-240 92c-1 1-2 1-3 1z m-119-349l125 325 219-84-125-325z m50 38c-4 0-8-3-9-7-2-5 1-11 6-13l144-56c5-2 11 1 13 6 2 5 0 11-6 13l-144 56c-1 0-3 1-4 1z m-12-72l0-18 47 0 53-20-111 0c-2 0-5 1-7 2-2 2-3 5-3 8l0 36z m214-18l18 0 0 49 21 53 0-112c0-6-5-10-10-10l-37 0z m-161 346l-54 0 0-139-20-54 0 203c0 6 4 10 10 10l72 0z m179-3l0 3-7 0-53 20 71 0c2 0 5-1 7-2 2-2 3-5 3-8l0-21z m-201-205c-4 0-8-3-10-7-2-5 1-11 6-13l137-53c6-2 11 1 14 6 2 5-1 11-6 13l-137 53c-2 1-3 1-4 1z m22 53c-4 0-8-3-10-7-2-6 1-11 6-14l119-46c6-2 11 1 14 6 2 6-1 12-6 14l-120 46c-1 1-2 1-3 1z m18 52c-4 0-8-3-9-7-2-5 0-11 6-13l147-57c6-3 12 0 14 6 2 5-1 11-6 13l-148 57c-1 1-2 1-4 1z m335 4c-6 0-12-2-16-6l-17-16c-9-8-15-20-17-32l-21-166c-2-12 2-24 9-34 7-9 18-15 30-17 25-3 47 15 50 39l22 166c2 13-1 25-8 36l-11 19c-4 6-10 10-17 11-2 0-3 0-4 0z m-26-251c-2 0-3 0-4 1-6 0-12 4-16 9-4 5-6 11-5 18l22 166c1 8 5 15 10 20l17 15c0 1 1 1 2 1 1 0 2 0 2-1l12-19c4-7 6-15 5-22l-22-166c-1-12-11-22-23-22z m-25 107c-5 0-9-4-10-9-1-6 3-11 9-12l64-8c5-1 11 3 12 9 0 6-4 11-10 11l-64 9c0 0-1 0-1 0z m-30-1c-5 0-9-4-10-9l-9-67c0-6 4-11 10-12 5-1 10 3 11 9l9 67c1 5-3 11-9 11-1 0-1 1-2 1z m7-41c-6 0-10-3-11-9 0-6 4-11 10-11l10-2c6-1 11 3 12 9 1 6-3 11-9 12l-11 1c0 0-1 0-1 0z"/>
    </symbol>
    
    <symbol id="pixel--medium" viewBox="0 0 512 512">
      <path d="m510 118c1 1 1 2 1 3l-155 253-112-182 89-145c3-6 9-9 15-9 1 0 3 1 4 1 1 0 2 1 4 1l154 78 0 0c0 0 0 0 0 0z m-315 41l146 238-146-73z m168 249l149-242 0 290c0 15-13 21-28 13z m-193-290c0 1 1 1 1 2l0 336c0 11-6 18-14 18-3 0-7-1-10-3l-133-67c-8-4-14-14-14-23l0-327c0-8 5-13 11-13 3 0 5 0 8 2z"/>
    </symbol>

    <symbol id="pixel--qa-developer" viewbox="0 0 72 72">
      <path fill="#79BBED" fill-rule="evenodd" fill-opacity=".4" d="M15.7 22H11v2h2.75c.58-.73 1.23-1.4 1.94-2zm18.55 2H44v-2H34v1.7l.25.3zm-22.9 5H11v2h.04c.05-.68.15-1.35.3-2zm25.3 0H43v2h-6.04c-.05-.68-.15-1.35-.3-2zm-25.02 7H11v2h1.46c-.33-.64-.6-1.3-.83-2zm5.44 7H11v2h20v-2h-.07a12.94 12.94 0 0 1-13.86 0zM47 22h6v2h-6v-2zm-9 14h22v2H38v-2zm8-7h14v2H46v-2zM34 43h10v2H34v-2zm13 0h13v2H47v-2zm-36 7h14v2H11v-2z"/><path fill-rule="nonzero" d="M56.2 19.92l.13-.88a.3.3 0 0 0-.4-.33l-3.44 1.2a.3.3 0 0 0-.1.5l2.88 2.41a.3.3 0 0 0 .49-.18l.12-.74c.56.07 1.13.07 1.71 0l-.24-1.99c-.39.05-.78.05-1.16.01zM14.66 42.1L1.71 55.07a1 1 0 1 1-1.42-1.41l13.04-13.04a14 14 0 1 1 1.34 1.49zm-9.3 4.35V10a1 1 0 0 1 1-1h37v7h-36v-5h36-36v33.45l-2 2zm0 7.07l2-2V63h56V28h2v36a1 1 0 0 1-1 1h-58a1 1 0 0 1-1-1V53.52zM9.86 14a1.5 1.5 0 1 0 0-3 1.5 1.5 0 0 0 0 3zm5 0a1.5 1.5 0 1 0 0-3 1.5 1.5 0 0 0 0 3zm5 0a1.5 1.5 0 1 0 0-3 1.5 1.5 0 0 0 0 3zm4.5 30a12 12 0 1 0 0-24 12 12 0 0 0 0 24zm5.32-14.19a.67.67 0 1 1 0 1.34h-.96a.48.48 0 0 0 0 .96h.96a.67.67 0 0 1 0 1.34h-.96a.48.48 0 0 0 0 .95h.96a.67.67 0 0 1 0 1.35h-1.5A3.9 3.9 0 0 1 24.37 39a3.9 3.9 0 0 1-3.83-3.25h-1.5a.67.67 0 1 1 0-1.35H20a.48.48 0 1 0 0-.95h-.96a.67.67 0 1 1 0-1.34H20a.48.48 0 0 0 0-.96h-.96a.67.67 0 1 1 0-1.34h1.47c.08-.68.34-1.3.72-1.83l-1.45-1.58a.67.67 0 0 1 .04-.95c.28-.25.7-.23.94.04l1.42 1.55a3.86 3.86 0 0 1 4.38 0l1.42-1.55a.66.66 0 0 1 .95-.04c.27.26.28.68.03.95l-1.44 1.58c.38.53.64 1.15.72 1.83h1.46zM48.36 4h16a3 3 0 0 1 3 3v16a3 3 0 0 1-3 3h-16a3 3 0 0 1-3-3V7a3 3 0 0 1 3-3zM63 11.02a7.17 7.17 0 0 0-5.4-3.52l-.23 1.99c1.51.17 2.86.98 3.7 2.23l-.77.28a.3.3 0 0 0-.09.52l2.92 2.35a.3.3 0 0 0 .48-.19l.51-3.6a.3.3 0 0 0-.4-.33l-.72.27zm-10.81.95l.82.49a.3.3 0 0 0 .45-.26V8.56a.3.3 0 0 0-.44-.27l-3.21 1.72a.3.3 0 0 0-.02.52l.67.4a7.17 7.17 0 0 0-1.16 6.39l1.92-.57a5.16 5.16 0 0 1 .97-4.78zm5.4 9.93a7.16 7.16 0 0 0 5.54-3.93l-1.79-.9a5.16 5.16 0 0 1-4 2.84l.25 1.99z"/>
    </symbol>

</svg>
