<?xml version="1.0" encoding="utf-8"?>
<!-- Generator: Adobe Illustrator 19.0.0, SVG Export Plug-In . SVG Version: 6.00 Build 0)  -->
<svg version="1.1" id="Capa_1" xmlns="http://www.w3.org/2000/svg" xmlns:xlink="http://www.w3.org/1999/xlink" x="0px" y="0px"
	 viewBox="0 0 194.8 63.4" style="enable-background:new 0 0 194.8 63.4;" xml:space="preserve">
	<style type="text/css">
		.st0{fill-rule:evenodd;clip-rule:evenodd;fill:#D6D6D6;}
		.st1{fill-rule:evenodd;clip-rule:evenodd;fill:#5894CB;}
		.st2{fill-rule:evenodd;clip-rule:evenodd;fill:#B4221E;}
		.st3{fill-rule:evenodd;clip-rule:evenodd;fill:#95B55E;}
		.st4{fill-rule:evenodd;clip-rule:evenodd;fill:#E6D47A;}
		.st5{fill:#1A1A1A;}
		.st6{fill:#D6D6D6;}
		.st7{fill:#3B3B3B;}
		.st8{fill:#030104;}
	</style>
	<g id="LOGO_5_">
		<path class="st0" d="M86,42.7C72.8,60.7,65.7,18.3,72.3,0C60.2,22.1,74.5,71.6,86,42.7z"/>
		<path class="st0" d="M84.8,27.2C106.5,37.9,74.2,50.1,52,46.6C78.1,54.7,118.9,34.8,84.8,27.2z"/>
		<path class="st1" d="M85.8,28.5c21.6,10.7-10.7,22.9-32.9,19.4C79.1,56,119.9,36.1,85.8,28.5z"/>
		<path class="st0" d="M70.5,40.8C52.9,29,94.6,18.5,112.8,24.3C90.3,12.9,40.9,30.9,70.5,40.8z"/>
		<path class="st2" d="M71.4,41.8C53.8,30,95.5,19.5,113.7,25.3C91.2,13.9,41.8,31.9,71.4,41.8z"/>
		<path class="st0" d="M74.8,23.8C87.9,9.6,95.7,45.7,90.4,62.4C100.8,41.2,84.6-4.1,74.8,23.8z"/>
		<path class="st3" d="M86.9,43.7C73.7,61.7,66.6,19.2,73.2,1C61.1,23.1,75.4,72.6,86.9,43.7z"/>
		<path class="st4" d="M76,24.8c13.1-14.2,20.9,21.9,15.6,38.6C102,42.2,85.8-3.1,76,24.8z"/>
		<path class="st5" d="M41.2,40.4v-2.2h0c0.6,0,1-0.3,1.5-0.8c0.4-0.5,0.6-1.3,0.6-2.4c0-1-0.2-1.8-0.6-2.4c-0.4-0.5-0.9-0.8-1.5-0.8
			v-2.2c1.4,0,2.4,0.5,3.2,1.6c0.8,1.1,1.2,2.3,1.2,3.8c0,1.1-0.2,2-0.6,2.9c-0.4,0.9-0.9,1.5-1.6,1.9C42.7,40.2,42,40.4,41.2,40.4
			L41.2,40.4L41.2,40.4z M46.6,37.2l2.3-0.4c0.2,1.1,0.8,1.6,1.8,1.6c0.5,0,0.9-0.1,1.2-0.3c0.3-0.2,0.4-0.5,0.4-0.8
			c0-0.2-0.1-0.4-0.2-0.5c-0.1-0.1-0.4-0.2-0.7-0.3c-1.8-0.5-3-1-3.5-1.4c-0.6-0.6-0.9-1.3-0.9-2.3c0-1,0.3-1.7,0.9-2.3
			c0.6-0.6,1.5-0.9,2.7-0.9c1.1,0,2,0.2,2.5,0.6c0.6,0.4,1,1.1,1.2,2.1l-2.1,0.5c-0.2-0.8-0.7-1.2-1.6-1.2c-0.6,0-0.9,0.1-1.2,0.2
			c-0.2,0.2-0.4,0.4-0.4,0.6c0,0.2,0.1,0.4,0.3,0.6c0.2,0.2,0.9,0.4,2,0.7c1.3,0.4,2.1,0.8,2.6,1.3c0.4,0.5,0.7,1.2,0.7,2
			c0,1-0.3,1.8-1,2.5c-0.7,0.7-1.6,1-2.8,1c-1.1,0-2-0.3-2.7-0.8C47.3,39,46.8,38.2,46.6,37.2z M41.2,29.6v2.2h0
			c-0.6,0-1.1,0.3-1.5,0.8c-0.4,0.5-0.6,1.3-0.6,2.4c0,1.1,0.2,1.8,0.6,2.4c0.4,0.5,0.9,0.8,1.5,0.8v2.2c-1.3,0-2.3-0.5-3.1-1.4
			c-0.8-1-1.3-2.3-1.3-4.1c0-1,0.2-1.9,0.6-2.8c0.4-0.8,0.9-1.5,1.6-1.9C39.7,29.8,40.4,29.6,41.2,29.6L41.2,29.6L41.2,29.6z
			M26.5,40.3v-2.1h0c0.5,0,0.9-0.3,1.3-0.8c0.4-0.5,0.5-1.3,0.5-2.4c0-1.2-0.2-2-0.5-2.6c-0.4-0.5-0.8-0.8-1.3-0.8v-2
			c0.3,0.1,0.5,0.2,0.7,0.3c0.4,0.2,0.8,0.6,1.1,1.1v-5.2h2.3v14.3h-2.1v-1.5c-0.3,0.6-0.7,1-1.2,1.3C27,40.1,26.7,40.2,26.5,40.3
			L26.5,40.3z M32.8,28.4v-2.5h2.3v2.5H32.8L32.8,28.4z M32.8,40.2V29.8h2.3v10.4H32.8z M26.5,29.6v2h0c-0.5,0-1,0.3-1.3,0.8
			c-0.4,0.5-0.5,1.3-0.5,2.3c0,0.9,0.1,1.6,0.2,2.1c0.2,0.5,0.4,0.8,0.7,1c0.3,0.2,0.6,0.3,1,0.3v2.1c-0.2,0.1-0.4,0.1-0.6,0.1
			c-1,0-1.8-0.5-2.5-1.4c-0.7-0.9-1.1-2.3-1.1-4.1c0-1.8,0.3-3.1,1-4c0.7-0.9,1.5-1.4,2.5-1.4C26.1,29.6,26.3,29.6,26.5,29.6
			L26.5,29.6z M17,40.4v-2.1c0,0,0.1,0,0.1,0c0.7,0,1.2-0.5,1.4-1.5l2.2,0.5c-0.3,1-0.8,1.8-1.4,2.3C18.8,40.1,18,40.4,17,40.4
			L17,40.4L17,40.4z M17,35.8v-1.7h1.7c0-0.8-0.2-1.4-0.5-1.8c-0.3-0.4-0.7-0.6-1.2-0.6h0v-2.1c1.2,0,2.1,0.5,2.7,1.3
			c0.8,1,1.2,2.5,1.2,4.5l0,0.3H17z M0,40.2V25.8h3.5l2.1,9.8l2.1-9.8h3.6v14.3H9.1V28.9L6.8,40.2H4.5L2.2,28.9v11.3H0L0,40.2z
			M17,29.6v2.1c-0.5,0-0.9,0.2-1.2,0.6c-0.3,0.4-0.5,1-0.5,1.8H17v1.7h-1.7c0,0.8,0.2,1.5,0.5,1.9c0.3,0.4,0.7,0.6,1.2,0.7v2.1
			c-1.2,0-2.1-0.4-2.8-1.3c-0.8-1-1.2-2.3-1.2-4.1c0-1.7,0.4-3.1,1.2-4.2c0.7-0.9,1.6-1.3,2.7-1.3C17,29.6,17,29.6,17,29.6z"/>
		<path class="st5" d="M177.9,43.3v-2.1c0,0,0.1,0,0.1,0c0.7,0,1.2-0.5,1.4-1.5l2.2,0.5c-0.3,1-0.7,1.8-1.4,2.3
			C179.6,43,178.8,43.3,177.9,43.3L177.9,43.3L177.9,43.3z M177.9,38.7V37h1.6c0-0.8-0.2-1.4-0.5-1.8c-0.3-0.4-0.7-0.6-1.1-0.6h0
			v-2.1c1.1,0,2,0.5,2.7,1.3c0.8,1,1.2,2.5,1.2,4.5l0,0.3H177.9L177.9,38.7z M182.7,40.1l2.2-0.4c0.2,1.1,0.8,1.6,1.8,1.6
			c0.5,0,0.9-0.1,1.2-0.3c0.3-0.2,0.4-0.5,0.4-0.8c0-0.2-0.1-0.4-0.2-0.5c-0.1-0.1-0.4-0.2-0.7-0.3c-1.8-0.5-3-1-3.4-1.4
			c-0.6-0.6-0.9-1.3-0.9-2.3c0-1,0.3-1.7,0.9-2.3c0.6-0.6,1.5-0.9,2.6-0.9c1.1,0,1.9,0.2,2.5,0.7c0.6,0.4,1,1.1,1.2,2.1l-2.1,0.5
			c-0.2-0.8-0.7-1.3-1.6-1.3c-0.5,0-0.9,0.1-1.2,0.2c-0.2,0.2-0.3,0.4-0.3,0.6c0,0.2,0.1,0.4,0.3,0.6c0.2,0.2,0.9,0.4,2,0.7
			c1.2,0.4,2.1,0.8,2.5,1.3c0.4,0.5,0.7,1.2,0.7,2c0,1-0.3,1.8-1,2.5c-0.7,0.7-1.6,1-2.8,1c-1.1,0-2-0.3-2.6-0.8
			C183.4,41.9,182.9,41.1,182.7,40.1z M177.9,32.5v2.1c-0.5,0-0.9,0.2-1.2,0.6c-0.3,0.4-0.5,1-0.5,1.8h1.6v1.7h-1.7
			c0,0.8,0.2,1.5,0.5,1.9c0.3,0.4,0.7,0.6,1.1,0.7v2.1c-1.2,0-2.1-0.4-2.8-1.3c-0.8-1-1.2-2.3-1.2-4.1c0-1.7,0.4-3.1,1.2-4.2
			c0.7-0.9,1.5-1.3,2.6-1.3C177.8,32.5,177.8,32.5,177.9,32.5L177.9,32.5z M158.8,43.3v-2.2h0c0.6,0,1-0.3,1.4-0.8
			c0.4-0.5,0.6-1.3,0.6-2.4c0-1-0.2-1.8-0.6-2.4c-0.4-0.5-0.9-0.8-1.4-0.8v-2.2c1.3,0,2.4,0.5,3.2,1.6c0.8,1.1,1.1,2.3,1.1,3.8
			c0,1.1-0.2,2-0.6,2.9c-0.4,0.9-0.9,1.5-1.6,1.9C160.2,43.1,159.5,43.3,158.8,43.3L158.8,43.3L158.8,43.3z M172.3,43.1h-2.2v-5.3
			c0-1.1,0-1.8-0.1-2.1c-0.1-0.3-0.2-0.6-0.5-0.8c-0.2-0.2-0.5-0.3-0.8-0.3c-0.4,0-0.7,0.1-1,0.4c-0.3,0.2-0.5,0.6-0.6,1
			c-0.1,0.4-0.2,1.2-0.2,2.4v4.7h-2.2V32.7h2v1.5c0.4-0.6,0.8-1,1.2-1.3c0.5-0.3,1-0.4,1.5-0.4c0.6,0,1.2,0.2,1.6,0.5
			c0.4,0.3,0.7,0.8,0.9,1.3c0.2,0.5,0.3,1.3,0.3,2.3V43.1z M158.8,32.5v2.2l0,0c-0.6,0-1,0.3-1.4,0.8c-0.4,0.5-0.6,1.3-0.6,2.4
			c0,1,0.2,1.8,0.6,2.4c0.4,0.5,0.9,0.8,1.4,0.8v2.2c-1.2,0-2.3-0.5-3.1-1.4c-0.8-1-1.2-2.3-1.2-4.1c0-1,0.2-1.9,0.6-2.8
			c0.4-0.8,0.9-1.5,1.5-1.9C157.3,32.7,158,32.5,158.8,32.5L158.8,32.5z M121.3,43.3v-2.2h0c0.6,0,1-0.3,1.4-0.8
			c0.4-0.5,0.6-1.3,0.6-2.4c0-1-0.2-1.8-0.6-2.4c-0.4-0.5-0.9-0.8-1.4-0.8v-2.2c1.3,0,2.4,0.5,3.2,1.6c0.8,1.1,1.1,2.3,1.1,3.8
			c0,1.1-0.2,2-0.6,2.9c-0.4,0.9-0.9,1.5-1.6,1.9C122.8,43.1,122.1,43.3,121.3,43.3L121.3,43.3L121.3,43.3z M127.4,43.1V28.7h2.2
			v14.3H127.4L127.4,43.1z M137.3,43.1v-1.6c-0.3,0.6-0.7,1-1.2,1.3c-0.5,0.3-1,0.5-1.6,0.5c-0.5,0-1-0.1-1.5-0.4
			c-0.4-0.3-0.8-0.7-1-1.3c-0.2-0.5-0.3-1.3-0.3-2.4v-6.6h2.2v4.8c0,1.4,0,2.2,0.1,2.6c0.1,0.4,0.2,0.7,0.4,0.9
			c0.2,0.2,0.5,0.3,0.8,0.3c0.4,0,0.7-0.1,1-0.4c0.3-0.3,0.5-0.6,0.6-1c0.1-0.4,0.1-1.3,0.1-2.7v-4.4h2.2v10.4H137.3L137.3,43.1z
			M148.9,35.8l-2.2,0.5c-0.2-1.1-0.7-1.6-1.5-1.6c-0.5,0-1,0.2-1.3,0.7c-0.3,0.5-0.5,1.3-0.5,2.4c0,1.2,0.2,2.1,0.5,2.6
			c0.3,0.5,0.8,0.8,1.3,0.8c0.4,0,0.8-0.1,1-0.4c0.3-0.3,0.5-0.8,0.6-1.5l2.2,0.5c-0.4,2.5-1.7,3.7-3.8,3.7c-1.4,0-2.4-0.5-3-1.6
			c-0.7-1.1-1-2.3-1-3.8c0-1.8,0.4-3.1,1.1-4.1c0.7-0.9,1.7-1.4,2.9-1.4c1,0,1.8,0.3,2.4,0.8C148.2,33.8,148.6,34.6,148.9,35.8
			L148.9,35.8z M150.5,31.3v-2.5h2.2v2.5H150.5L150.5,31.3z M150.5,43.1V32.7h2.2v10.4H150.5z M106.3,38.4l2.3-0.3
			c0.3,1.8,1.1,2.7,2.5,2.7c0.7,0,1.2-0.2,1.6-0.6c0.4-0.4,0.6-0.8,0.6-1.4c0-0.3-0.1-0.6-0.2-0.8c-0.1-0.2-0.4-0.4-0.6-0.6
			c-0.3-0.1-1-0.4-2.1-0.7c-1-0.3-1.7-0.6-2.2-1c-0.5-0.4-0.8-0.8-1.1-1.4c-0.3-0.6-0.4-1.2-0.4-1.9c0-0.8,0.2-1.5,0.5-2.1
			c0.3-0.6,0.8-1.1,1.4-1.4c0.6-0.3,1.4-0.5,2.3-0.5c1.3,0,2.4,0.4,3.2,1.1c0.8,0.7,1.2,1.8,1.2,3.2L113,33c-0.1-0.8-0.3-1.3-0.7-1.6
			c-0.3-0.3-0.8-0.5-1.4-0.5c-0.6,0-1.1,0.1-1.4,0.4c-0.3,0.3-0.5,0.6-0.5,1c0,0.4,0.2,0.7,0.5,1c0.3,0.3,1,0.6,2.1,0.9
			c1.2,0.3,2,0.7,2.5,1.1c0.5,0.4,0.9,0.9,1.2,1.5c0.3,0.6,0.4,1.3,0.4,2.2c0,1.2-0.4,2.3-1.1,3.1c-0.7,0.8-1.9,1.3-3.5,1.3
			C108.2,43.3,106.6,41.7,106.3,38.4L106.3,38.4z M121.3,32.5v2.2l0,0c-0.6,0-1,0.3-1.4,0.8c-0.4,0.5-0.6,1.3-0.6,2.4
			c0,1,0.2,1.8,0.6,2.4c0.4,0.5,0.9,0.8,1.4,0.8v2.2c-1.2,0-2.3-0.5-3.1-1.4c-0.8-1-1.2-2.3-1.2-4.1c0-1,0.2-1.9,0.6-2.8
			c0.4-0.8,0.9-1.5,1.5-1.9C119.8,32.7,120.6,32.5,121.3,32.5z"/>
		<path class="st6" d="M87.7,41.2l-1.4,2.1c-0.7-0.4-1.3-0.9-1.9-1.6c-0.5,0.5-1,0.9-1.5,1.2c-0.4,0.2-0.8,0.3-1.2,0.3v-2.4
			c0.4-0.2,0.9-0.5,1.3-0.9l-1.3-2v-4.6l0.5-0.5c0.4-0.4,0.7-0.8,0.7-1.2c0-0.4-0.1-0.7-0.3-0.9c-0.2-0.2-0.5-0.3-0.8-0.4v-1.9
			c0.9,0,1.7,0.3,2.2,0.9c0.6,0.6,0.9,1.4,0.9,2.3c0,0.6-0.2,1.2-0.5,1.7c-0.3,0.5-0.9,1.1-1.7,1.7l1.6,2.6c0.2-0.4,0.3-0.9,0.5-1.6
			l2,0.6c-0.3,1.4-0.7,2.4-1,2.9c0.2,0.3,0.6,0.6,1,0.9C87.2,40.8,87.5,41.1,87.7,41.2z M81.7,43.1c-0.2,0-0.4,0-0.7,0
			c-1.4,0-2.5-0.4-3.1-1.3c-0.7-0.9-1-1.8-1-2.9c0-1.8,0.9-3.3,2.7-4.4c-0.8-1.1-1.2-2.2-1.2-3.1c0-0.9,0.3-1.7,0.9-2.2
			c0.6-0.6,1.4-0.9,2.4-0.9l0.1,0v1.9l0,0c-0.3,0-0.6,0.1-0.8,0.3c-0.2,0.2-0.3,0.5-0.3,0.8c0,0.3,0.2,0.8,0.5,1.2l0.6,0.8l0.1-0.1
			v4.6l-1-1.5c-0.5,0.3-0.9,0.7-1.1,1.1c-0.3,0.4-0.4,0.9-0.4,1.4c0,0.6,0.2,1.1,0.5,1.5c0.3,0.4,0.7,0.5,1.3,0.5
			c0.3,0,0.5-0.1,0.8-0.2V43.1z"/>
		<path class="st7" d="M188.2,54.2v-0.8c0.9-0.1,1.3-0.8,1.3-2c0-0.7-0.1-1.2-0.4-1.5c-0.2-0.2-0.5-0.4-0.9-0.4v-0.8
			c0.7,0,1.3,0.2,1.7,0.7c0.4,0.5,0.6,1.2,0.6,2.1c0,0.8-0.2,1.5-0.6,2C189.5,53.9,188.9,54.2,188.2,54.2z M188.2,48.7v0.8
			c-0.1,0-0.3,0-0.4,0c-0.1,0-0.3,0-0.5,0.1c-0.2,0.1-0.3,0.2-0.5,0.3V53c0.1,0.1,0.2,0.2,0.4,0.3c0.2,0.1,0.4,0.1,0.6,0.1
			c0.1,0,0.3,0,0.4,0v0.8c0,0-0.1,0-0.1,0c-0.2,0-0.5,0-0.7-0.1c-0.3-0.1-0.4-0.2-0.5-0.3v2.4h-0.9v-7.4h0.9v0.4
			C187.2,48.9,187.6,48.7,188.2,48.7L188.2,48.7L188.2,48.7z M176.9,54.2v-0.8h0c0.4,0,0.8-0.2,1-0.5c0.2-0.4,0.4-0.8,0.4-1.5
			c0-1.3-0.5-2-1.4-2h0v-0.8h0c0.8,0,1.3,0.2,1.8,0.7c0.4,0.5,0.6,1.2,0.6,2c0,0.9-0.2,1.5-0.6,2C178.3,53.9,177.7,54.2,176.9,54.2
			L176.9,54.2L176.9,54.2z M181.2,48.8v3.4c0,0.8,0.4,1.2,1.1,1.2c0.3,0,0.6-0.1,0.9-0.3c0.3-0.2,0.4-0.4,0.5-0.6v-3.7h0.9v5.3h-0.9
			v-0.7c-0.1,0.2-0.3,0.4-0.6,0.6c-0.3,0.2-0.6,0.3-0.9,0.3c-0.6,0-1-0.2-1.3-0.5c-0.3-0.3-0.5-0.8-0.5-1.4v-3.5H181.2z M176.9,48.7
			v0.8c-0.4,0-0.8,0.2-1,0.5c-0.3,0.4-0.4,0.8-0.4,1.4c0,1.3,0.5,2,1.4,2v0.8c-0.8,0-1.3-0.3-1.8-0.7c-0.4-0.5-0.6-1.2-0.6-2
			c0-0.8,0.2-1.5,0.7-2C175.6,48.9,176.2,48.7,176.9,48.7L176.9,48.7z M157.7,56.2v-0.8l0.1,0c0.4,0,0.8-0.1,1-0.2
			c0.2-0.1,0.4-0.3,0.4-0.5c0-0.4-0.3-0.6-0.9-0.6c-0.1,0-0.3,0-0.5,0.1v-0.8l0,0c0.3,0,0.5-0.1,0.7-0.1c0.5,0,0.9,0.1,1.2,0.4
			c0.3,0.2,0.4,0.6,0.4,1c0,0.5-0.2,0.9-0.7,1.2C159,56,158.4,56.2,157.7,56.2L157.7,56.2L157.7,56.2z M157.7,52.7v-0.8h0
			c0.3,0,0.6-0.1,0.8-0.4c0.2-0.2,0.3-0.5,0.3-0.9c0-0.3-0.1-0.6-0.3-0.8c-0.2-0.2-0.5-0.3-0.8-0.3h0v-0.8c0.5,0,0.9,0.1,1.2,0.3
			l0.5-0.6L160,49l-0.6,0.4c0.2,0.3,0.4,0.7,0.4,1.2c0,0.5-0.2,1-0.5,1.3c-0.3,0.4-0.8,0.6-1.3,0.6L157.7,52.7L157.7,52.7z
			M169.2,47.3l-0.4,0.8c-0.5-0.4-1-0.6-1.5-0.6c-0.8,0-1.4,0.3-1.8,0.8c-0.4,0.5-0.7,1.2-0.7,2.1c0,0.8,0.2,1.5,0.6,2
			c0.4,0.5,1,0.8,1.8,0.8c0.5,0,1-0.2,1.3-0.5v-1.7h-1v-0.8h2v3.2c-0.3,0.2-0.6,0.4-1.1,0.5c-0.5,0.1-0.9,0.2-1.4,0.2
			c-1,0-1.8-0.3-2.4-1c-0.6-0.7-0.9-1.6-0.9-2.7c0-1.1,0.3-2,1-2.7c0.6-0.7,1.5-1,2.6-1C168.1,46.7,168.7,46.9,169.2,47.3L169.2,47.3
			z M173.8,49.7c-0.2-0.1-0.4-0.2-0.6-0.2c-0.3,0-0.6,0.2-0.9,0.5c-0.2,0.3-0.4,0.7-0.4,1.1v3H171v-5.3h0.9v0.8
			c0.3-0.6,0.9-0.9,1.5-0.9c0.2,0,0.4,0,0.7,0.1L173.8,49.7z M157.7,48.7v0.8c-0.3,0-0.6,0.1-0.8,0.3c-0.2,0.2-0.3,0.5-0.3,0.8
			c0,0.4,0.1,0.7,0.3,0.9c0.2,0.2,0.5,0.4,0.8,0.4v0.8l-0.5,0.1c-0.1,0-0.2,0-0.4,0.1c-0.2,0.1-0.2,0.1-0.2,0.2
			c0,0.1,0.2,0.2,0.5,0.2c0.1,0,0.4,0,0.6-0.1V54l-0.1,0c-0.3,0.1-0.5,0.1-0.6,0.1c-0.8,0-1.1-0.3-1.1-0.9c0-0.2,0.1-0.3,0.3-0.5
			c0.2-0.1,0.4-0.2,0.7-0.3c-0.7-0.3-1.1-1-1.1-1.8c0-0.6,0.2-1,0.6-1.4C156.6,48.9,157.1,48.7,157.7,48.7L157.7,48.7L157.7,48.7z
			M157.7,55.3v0.8c-0.3,0-0.7-0.1-1.1-0.2c-0.4-0.1-0.7-0.3-0.9-0.4l0.5-0.8C156.8,55.1,157.3,55.3,157.7,55.3L157.7,55.3z
			M143.9,54.2v-0.8c0.1,0,0.3,0,0.4,0c0.1,0,0.3,0,0.5-0.1c0.2-0.1,0.3-0.2,0.4-0.3V50c-0.2-0.4-0.6-0.5-1-0.5c-0.1,0-0.2,0-0.4,0
			v-0.8c0,0,0.1,0,0.1,0c0.5,0,1,0.1,1.2,0.4v-2.5h0.9v7.5h-0.9v-0.4C144.9,54,144.5,54.2,143.9,54.2L143.9,54.2z M148.5,46.8
			c0.2,0,0.3,0.1,0.4,0.2c0.1,0.1,0.2,0.3,0.2,0.4c0,0.2-0.1,0.3-0.2,0.4c-0.1,0.1-0.3,0.2-0.4,0.2c-0.2,0-0.3-0.1-0.4-0.2
			c-0.1-0.1-0.2-0.2-0.2-0.4c0-0.2,0.1-0.3,0.2-0.4C148.2,46.8,148.3,46.8,148.5,46.8L148.5,46.8z M148,54.1v-4.5h-0.7v-0.8h1.7v5.3
			H148L148,54.1z M153.7,54.1V51c0-0.6-0.1-1-0.3-1.2c-0.2-0.2-0.5-0.3-0.9-0.3c-0.2,0-0.4,0.1-0.7,0.2c-0.2,0.1-0.4,0.3-0.5,0.5v3.9
			h-0.9v-5.3h0.6l0.3,0.7c0.3-0.5,0.8-0.8,1.5-0.8c1.2,0,1.7,0.7,1.7,2.1v3.3H153.7z M143.9,48.7v0.8c-0.3,0.1-0.6,0.2-0.9,0.5
			c-0.3,0.4-0.5,0.9-0.5,1.4c0,1.1,0.4,1.8,1.3,1.9v0.8c0,0-0.1,0-0.1,0c-0.7,0-1.2-0.2-1.6-0.7c-0.4-0.5-0.6-1.1-0.6-1.9
			c0-0.8,0.2-1.5,0.7-2C142.7,49,143.3,48.7,143.9,48.7L143.9,48.7z M135.5,54.2v-0.8h0c0.4,0,0.8-0.2,1-0.5c0.3-0.4,0.4-0.8,0.4-1.5
			c0-1.3-0.5-2-1.4-2h0v-0.8h0c0.8,0,1.3,0.2,1.8,0.7c0.4,0.5,0.6,1.2,0.6,2c0,0.9-0.2,1.5-0.6,2C136.8,53.9,136.2,54.2,135.5,54.2
			L135.5,54.2L135.5,54.2z M139,52.6v-6h0.9v5.8c0,0.3,0.1,0.5,0.2,0.7c0.2,0.2,0.4,0.2,0.6,0.2v0.8C139.6,54.2,139,53.7,139,52.6z
			M131,54.1v-3.5h-3.2v3.5h-1v-7.3h1v2.9h3.2v-2.9h1v7.3H131L131,54.1z M135.5,48.7v0.8c-0.4,0-0.8,0.2-1,0.5
			c-0.3,0.4-0.4,0.8-0.4,1.4c0,1.3,0.5,2,1.4,2v0.8c-0.8,0-1.3-0.3-1.8-0.7c-0.4-0.5-0.6-1.2-0.6-2c0-0.8,0.2-1.5,0.7-2
			C134.2,48.9,134.8,48.7,135.5,48.7z"/>
		<path class="st8" d="M194.8,30.3c0,1.2-0.9,2.1-2.1,2.1c-1.2,0-2.2-0.9-2.2-2.1c0-1.2,1-2.1,2.2-2.1
			C193.8,28.3,194.8,29.2,194.8,30.3z M191,30.3c0,0.9,0.7,1.7,1.6,1.7c0.9,0,1.6-0.7,1.6-1.7c0-0.9-0.7-1.7-1.6-1.7
			C191.7,28.7,191,29.4,191,30.3z M192.3,31.4h-0.5v-2.1c0.2,0,0.5-0.1,0.8-0.1c0.4,0,0.6,0.1,0.7,0.2c0.1,0.1,0.2,0.2,0.2,0.4
			c0,0.3-0.2,0.4-0.4,0.5v0c0.2,0.1,0.3,0.2,0.4,0.5c0.1,0.3,0.1,0.4,0.2,0.5h-0.5c-0.1-0.1-0.1-0.3-0.2-0.5c0-0.2-0.2-0.3-0.4-0.3
			h-0.2V31.4z M192.3,30.3h0.2c0.3,0,0.5-0.1,0.5-0.3c0-0.2-0.1-0.3-0.4-0.3c-0.1,0-0.2,0-0.3,0V30.3z"/>
	</g>
</svg>
