<?xml version="1.0" encoding="utf-8"?>
<!-- Generator: Adobe Illustrator 19.0.0, SVG Export Plug-In . SVG Version: 6.00 Build 0)  -->
<svg version="1.1" id="Capa_1" xmlns="http://www.w3.org/2000/svg" xmlns:xlink="http://www.w3.org/1999/xlink" x="0px" y="0px"
	 viewBox="303.5 -112.4 1240.2 62.9" style="enable-background:new 303.5 -112.4 1240.2 62.9;" xml:space="preserve">
<g id="XMLID_15_">
	<g id="XMLID_414_">
		<g id="XMLID_418_">
			<path style="fill:#E7BD3E;" d="M841.2-97.9h5.9v1.1h1.7v1.2h1.2v2.9h-1.2v0.9h-1.7v1.1h-5.9v-2.4h-9.3c-3.4,0-5.6,1.4-6.7,3.3
				c-0.5,0.8-0.7,1.7-0.8,2.6s0.1,1.8,0.4,2.7c0.7,1.8,2.5,3.3,5.2,3.6l12.4,1.4c3.1,0.4,5.2,1.9,6.4,3.9c0.7,1.3,1.1,2.7,1.1,4.2
				c0,1.4-0.3,2.9-0.8,4.2c-1.1,2.4-3.1,4.4-5.8,5h-0.1H843h-21.9h-1.2l-0.2-1.2l-5.2-27.5V-91v-0.1c-0.1-1.5-0.5-2.5-1-2.9
				c-0.1-0.1-0.2-0.1-0.3-0.1s-0.2,0-0.3,0.1c-0.5,0.4-1,1.3-1.2,2.9c-0.4,3.4-1.2,8.2-2.3,14.9c-0.3,1.4-0.5,2.8-0.7,4
				c-0.3,1.6-0.6,3.1-0.8,4.4l0,0l0,0l0,0c-0.4,2.3-1.1,3.8-1.8,4.6c-0.5,0.6-1.1,0.9-1.8,0.9s-1.3-0.3-1.8-1
				c-0.7-0.8-1.2-2.3-1.6-4.5L797.1-91c-0.2-1.3-0.4-2.2-0.6-2.7c-0.1-0.2-0.2-0.2-0.5-0.3c-0.3,0-0.6,0-0.7,0.1
				c-0.3,0.4-0.6,1.3-1,3l-6.7,32.8c1.2,0.7,1.9,2,1.9,3.4c0,2.2-1.8,4-4,4v-1.8c1.2,0,2.1-0.9,2.1-2.1c0-1.2-1-2.1-2.1-2.1v-5.4
				l6-29.3c0.4-2.1,0.9-3.4,1.5-4.2c0.9-1.1,1.8-1.3,3.2-1.2c1.4,0.1,2.2,0.7,2.8,1.8c0.4,0.8,0.6,1.9,0.8,3.5l3.8,23.2
				c0.2,1.1,0.4,1.9,0.6,2.5c0.3-0.6,0.5-1.5,0.8-2.7l0,0l0,0l0,0c0.3-1.7,0.6-3.2,0.8-4.4c0.3-1.6,0.5-2.9,0.7-4
				c1.2-6.4,1.9-11.2,2.3-14.7c0.3-2.4,1.2-4,2.3-4.8c0.6-0.5,1.3-0.7,2-0.6c0.7,0,1.4,0.3,2,0.8c1.1,0.9,1.9,2.5,2.1,4.8l4.9,26.3
				h20.5c1.6-0.4,2.9-1.7,3.6-3.3c0.4-0.9,0.6-2,0.6-3s-0.2-2-0.7-2.8c-0.7-1.3-2.1-2.3-4.2-2.5l-12.4-1.4c-3.9-0.4-6.4-2.7-7.5-5.4
				c-0.5-1.2-0.7-2.6-0.6-3.9c0.1-1.3,0.5-2.7,1.2-3.9c1.5-2.7,4.6-4.8,9.2-4.8h9.3L841.2-97.9L841.2-97.9z M785.5-50.6L785.5-50.6
				c-2.2,0-4.1-1.8-4.1-4c0-2,1.4-3.6,3.4-3.9l0.7-3.5v5.4l0,0c-1.2,0-2.1,0.9-2.1,2.1c0,1.2,1,2.1,2.1,2.1l0,0L785.5-50.6
				L785.5-50.6z"/>
		</g>
		<g id="XMLID_417_">
			<rect x="853.4" y="-97.8" style="fill:#272425;" width="0.7" height="36.6"/>
		</g>
		<g style="enable-background:new    ;">
			<path style="fill:#E7BD3E;" d="M890.6-72.3c0.5,0,0.9,0.2,1.2,0.5c0.3,0.4,0.5,0.8,0.5,1.3c0,0.5-0.2,0.9-0.5,1.3
				s-0.7,0.5-1.2,0.5c-0.5,0-0.9-0.2-1.2-0.5c-0.3-0.4-0.5-0.8-0.5-1.3c0-0.5,0.2-0.9,0.5-1.3C889.7-72.1,890.1-72.3,890.6-72.3z"/>
		</g>
		<g style="enable-background:new    ;">
			<path style="fill:#272425;" d="M897.3-76h1.1v6.3c0,0.6,0.2,1,0.5,1.4c0.3,0.4,0.8,0.5,1.3,0.5c0.6,0,1-0.2,1.3-0.5
				c0.3-0.3,0.5-0.8,0.5-1.4V-76h1.1v6.4c0,0.9-0.3,1.6-0.8,2.2c-0.5,0.5-1.3,0.8-2.2,0.8c-0.9,0-1.7-0.3-2.2-0.8
				c-0.5-0.5-0.8-1.2-0.8-2.2V-76z"/>
			<path style="fill:#272425;" d="M906.6-67.3l0.4-1.2c0.2,0.2,0.5,0.3,0.8,0.4c0.3,0.1,0.6,0.2,0.9,0.2c0.4,0,0.8-0.1,1.1-0.4
				c0.3-0.3,0.4-0.6,0.4-1c0-0.3-0.1-0.6-0.2-0.9s-0.5-0.6-1.1-0.9l-0.7-0.3c-0.6-0.3-1-0.6-1.2-1c-0.2-0.4-0.3-0.9-0.3-1.4
				c0-0.7,0.2-1.3,0.7-1.7c0.4-0.5,1-0.7,1.7-0.7c0.9,0,1.6,0.2,1.9,0.5l-0.3,1.1c-0.2-0.1-0.4-0.2-0.7-0.4
				c-0.3-0.1-0.6-0.2-0.9-0.2c-0.4,0-0.7,0.1-0.9,0.4c-0.2,0.2-0.3,0.6-0.3,0.9c0,0.2,0,0.4,0.1,0.6c0.1,0.2,0.2,0.4,0.3,0.5
				s0.4,0.3,0.9,0.5l0.7,0.4c0.6,0.3,1,0.6,1.2,1.1c0.2,0.4,0.3,0.9,0.3,1.6c0,0.7-0.3,1.3-0.8,1.8c-0.5,0.5-1.2,0.7-2,0.7
				C907.7-66.7,907.1-66.9,906.6-67.3z"/>
			<path style="fill:#272425;" d="M919.4-66.9l-0.6-1.9h-3.1l-0.6,1.9h-1.3l3.4-9.3h0.3l3.2,9.3H919.4z M917.3-73.8l-1.3,4h2.5
				L917.3-73.8z"/>
		</g>
		<g style="enable-background:new    ;">
			<path style="fill:#E7BD3E;" d="M928.5-72.3c0.5,0,0.9,0.2,1.2,0.5c0.3,0.4,0.5,0.8,0.5,1.3c0,0.5-0.2,0.9-0.5,1.3
				s-0.7,0.5-1.2,0.5c-0.5,0-0.9-0.2-1.2-0.5c-0.3-0.4-0.5-0.8-0.5-1.3c0-0.5,0.2-0.9,0.5-1.3C927.7-72.1,928.1-72.3,928.5-72.3z"/>
		</g>
		<g id="XMLID_415_" style="enable-background:new    ;">
			<path style="fill:#272425;" d="M858.1-84.2v-9.7h1.5v9.7H858.1z"/>
			<path style="fill:#272425;" d="M867.9-84l-4.1-6.2v6h-1.4v-9.7h0.7l4,5.9v-5.9h1.4v9.9H867.9z"/>
			<path style="fill:#272425;" d="M874.7-92.4v8.2h-1.5v-8.2h-2.7v-1.5h7v1.5H874.7z"/>
			<path style="fill:#272425;" d="M881-92.4v2.3h2.8v1.5H881v2.9h3.8v1.5h-5.3v-9.7h5.4v1.5H881z"/>
			<path style="fill:#272425;" d="M891.9-84.2l-2.2-4c-0.2,0-0.5,0-0.9,0v4.1h-1.5v-9.7c0.1,0,0.4,0,1,0c0.6,0,1,0,1.4,0
				c2.1,0,3.2,1,3.2,2.9c0,0.6-0.1,1.1-0.4,1.6c-0.3,0.5-0.7,0.8-1.1,1l2.5,4.4H891.9z M888.7-92.4v2.7c0.3,0,0.5,0,0.6,0
				c0.6,0,1.1-0.1,1.4-0.3c0.3-0.2,0.4-0.6,0.4-1.2c0-0.5-0.2-0.8-0.5-1s-0.8-0.3-1.5-0.3C889.1-92.4,888.9-92.4,888.7-92.4z"/>
			<path style="fill:#272425;" d="M900.9-84l-4.1-6.2v6h-1.4v-9.7h0.7l4,5.9v-5.9h1.4v9.9H900.9z"/>
			<path style="fill:#272425;" d="M909.2-84.2l-0.6-2h-2.9l-0.6,2h-1.7l3.3-9.9h0.7l3.4,9.9H909.2z M907.1-91.1l-1,3.6h2L907.1-91.1
				z"/>
			<path style="fill:#272425;" d="M915-92.4v8.2h-1.5v-8.2h-2.7v-1.5h7v1.5H915z"/>
			<path style="fill:#272425;" d="M919.9-84.2v-9.7h1.5v9.7H919.9z"/>
			<path style="fill:#272425;" d="M923.7-89.1c0-1.4,0.3-2.6,1-3.5s1.5-1.4,2.6-1.4c1.2,0,2.1,0.4,2.8,1.3c0.6,0.9,1,2.1,1,3.7
				c0,1.6-0.3,2.8-1,3.7s-1.6,1.4-2.8,1.4c-1.1,0-2-0.5-2.6-1.4C924-86.3,923.7-87.5,923.7-89.1z M925.3-89.1c0,1.1,0.2,2,0.5,2.6
				c0.3,0.6,0.8,0.9,1.5,0.9c0.7,0,1.3-0.3,1.7-0.9s0.6-1.5,0.6-2.7c0-2.3-0.7-3.4-2.2-3.4c-0.7,0-1.2,0.3-1.5,0.9
				C925.5-91,925.3-90.2,925.3-89.1z"/>
			<path style="fill:#272425;" d="M938.9-84l-4.1-6.2v6h-1.4v-9.7h0.7l4,5.9v-5.9h1.4v9.9H938.9z"/>
			<path style="fill:#272425;" d="M947.2-84.2l-0.6-2h-2.9l-0.6,2h-1.7l3.3-9.9h0.7l3.4,9.9H947.2z M945.1-91.1l-1,3.6h2L945.1-91.1
				z"/>
			<path style="fill:#272425;" d="M950.8-84.2v-9.7h1.5v8.2h3.8v1.5H950.8z"/>
		</g>
	</g>
	<g id="XMLID_407_">
		<g id="XMLID_411_">
			<path style="fill:#E7BD3E;" d="M632.5-98.8h6v1.1h1.7v1.2h1.2v2.9h-1.2v0.9h-1.7v1.1h-6v-2.3h-9.4c-3.4,0-5.7,1.5-6.8,3.4
				c-0.5,0.8-0.7,1.7-0.8,2.7c-0.1,0.9,0.1,1.9,0.4,2.7c0.8,1.9,2.5,3.4,5.3,3.7l12.5,1.4c3.2,0.4,5.3,1.9,6.4,4
				c0.7,1.3,1.1,2.7,1.1,4.2c0,1.4-0.3,2.9-0.8,4.2c-1.1,2.5-3.1,4.5-5.8,5h-0.1h-0.2h-22.1H611l-0.2-1.2l-5.2-27.8v-0.1v-0.1
				c-0.1-1.5-0.5-2.5-1-2.9c-0.1-0.1-0.2-0.1-0.3-0.1c-0.1,0-0.2,0-0.3,0.1c-0.5,0.4-1,1.3-1.2,2.9c-0.4,3.5-1.2,8.3-2.4,15
				c-0.3,1.4-0.5,2.8-0.7,4.1c-0.3,1.6-0.6,3.1-0.9,4.5l0,0l0,0l0,0c-0.5,2.3-1.1,3.9-1.8,4.7c-0.5,0.6-1.2,0.9-1.9,0.9
				c-0.7,0-1.3-0.3-1.8-1c-0.7-0.8-1.2-2.3-1.6-4.5l-3.9-23.5c-0.2-1.3-0.4-2.2-0.6-2.7c-0.1-0.2-0.2-0.2-0.5-0.3
				c-0.3,0-0.6,0-0.7,0.1c-0.3,0.4-0.6,1.3-1,3l-6.8,33.1c1.2,0.7,2,2,2,3.5c0,2.2-1.8,4-4.1,4v-1.9c1.2,0,2.1-0.9,2.1-2.1
				c0-1.2-1-2.1-2.1-2.1v-5.4l6.1-29.7c0.4-2.1,0.9-3.4,1.5-4.2c0.9-1.1,1.9-1.3,3.2-1.2c1.4,0.1,2.2,0.7,2.8,1.9
				c0.4,0.8,0.6,1.9,0.9,3.5l3.9,23.5c0.2,1.1,0.4,1.9,0.6,2.5c0.3-0.6,0.5-1.5,0.8-2.7l0,0l0,0l0,0c0.3-1.7,0.6-3.2,0.9-4.4
				c0.3-1.6,0.5-2.9,0.7-4c1.2-6.5,1.9-11.4,2.3-14.9c0.3-2.5,1.2-4.1,2.4-4.9c0.6-0.5,1.3-0.7,2.1-0.6c0.7,0,1.4,0.3,2,0.8
				c1.1,0.9,1.9,2.5,2.1,4.9l5,26.6h20.7c1.7-0.4,2.9-1.7,3.6-3.3c0.4-1,0.6-2,0.6-3.1c0-1-0.2-2-0.7-2.8c-0.7-1.3-2.1-2.3-4.3-2.5
				l-12.5-1.4c-3.9-0.4-6.5-2.7-7.6-5.5c-0.5-1.3-0.7-2.6-0.6-4c0.1-1.3,0.5-2.7,1.2-3.9c1.6-2.7,4.7-4.8,9.3-4.8h9.4V-98.8z
				 M576.2-50.9L576.2-50.9c-2.3,0-4.1-1.8-4.1-4c0-2,1.5-3.7,3.4-4l0.7-3.5v5.4l0,0c-1.2,0-2.1,1-2.1,2.1c0,1.2,1,2.1,2.1,2.1l0,0
				V-50.9z"/>
		</g>
		<g id="XMLID_410_">
			<rect x="644.8" y="-98.6" style="fill:#272425;" width="0.7" height="36.9"/>
		</g>
		<g style="enable-background:new    ;">
			<path style="fill:#E7BD3E;" d="M660-72.8c0.5,0,0.9,0.2,1.2,0.5c0.3,0.4,0.5,0.8,0.5,1.3s-0.2,0.9-0.5,1.3
				c-0.3,0.4-0.7,0.5-1.2,0.5c-0.5,0-0.9-0.2-1.2-0.5c-0.3-0.4-0.5-0.8-0.5-1.3s0.2-0.9,0.5-1.3C659.1-72.7,659.5-72.8,660-72.8z"/>
		</g>
		<g style="enable-background:new    ;">
			<path style="fill:#272425;" d="M668.1-75.5v2.6h2.8v1.1h-2.8v3.3h3.9v1.1h-5v-9.3h5.1v1.1H668.1z"/>
			<path style="fill:#272425;" d="M680.7-76.3l-0.4,1.1c-0.4-0.3-1-0.4-1.8-0.4c-0.7,0-1.3,0.3-1.8,1c-0.5,0.7-0.7,1.6-0.7,2.7
				c0,1.1,0.2,1.9,0.7,2.6c0.5,0.7,1.1,1,1.8,1c0.8,0,1.4-0.3,1.8-0.9l0.6,1c-0.7,0.7-1.5,1.1-2.6,1.1c-1.1,0-2-0.4-2.6-1.3
				c-0.6-0.9-1-2-1-3.4c0-1.4,0.3-2.5,1-3.4c0.7-0.9,1.6-1.4,2.6-1.4C679.5-76.8,680.2-76.6,680.7-76.3z"/>
			<path style="fill:#272425;" d="M684.4-76.6h1.2v6.3c0,0.6,0.2,1,0.5,1.4c0.3,0.4,0.8,0.5,1.3,0.5c0.6,0,1-0.2,1.4-0.5
				c0.3-0.4,0.5-0.8,0.5-1.4v-6.3h1.2v6.4c0,0.9-0.3,1.7-0.8,2.2c-0.5,0.5-1.3,0.8-2.2,0.8c-1,0-1.7-0.3-2.2-0.8s-0.8-1.3-0.8-2.2
				V-76.6z"/>
			<path style="fill:#272425;" d="M699-67.4l-0.6-2h-3.2l-0.6,2h-1.3l3.5-9.4h0.3l3.2,9.4H699z M696.9-74.3l-1.3,4.1h2.5L696.9-74.3
				z"/>
			<path style="fill:#272425;" d="M704.9-67.4h-1.7v-9.3c1.1,0,1.8-0.1,2.1-0.1c1.2,0,2.1,0.4,2.8,1.2s1,1.8,1,3.1
				C709.1-69,707.7-67.4,704.9-67.4z M704.3-75.5v6.9c0.3,0,0.6,0.1,1,0.1c0.8,0,1.5-0.3,1.9-1c0.5-0.7,0.7-1.6,0.7-2.8
				c0-2.2-0.9-3.3-2.7-3.3C705.1-75.6,704.8-75.5,704.3-75.5z"/>
			<path style="fill:#272425;" d="M712.1-72.1c0-1.3,0.3-2.5,0.9-3.4s1.5-1.4,2.5-1.4c1.2,0,2.1,0.4,2.7,1.2s0.9,2,0.9,3.5
				c0,1.5-0.3,2.7-0.9,3.6s-1.5,1.3-2.7,1.3c-1.1,0-1.9-0.5-2.5-1.4C712.4-69.5,712.1-70.7,712.1-72.1z M713.3-72.1
				c0,1.1,0.2,1.9,0.6,2.7c0.4,0.7,0.9,1.1,1.6,1.1c0.8,0,1.4-0.3,1.8-1s0.6-1.6,0.6-2.7c0-2.4-0.8-3.6-2.4-3.6
				c-0.7,0-1.3,0.3-1.6,1C713.5-74.1,713.3-73.2,713.3-72.1z"/>
			<path style="fill:#272425;" d="M727.2-67.4l-2.3-4c-0.3,0-0.7,0-1.2-0.1v4h-1.2v-9.3c0,0,0.3,0,0.9,0c0.6,0,1,0,1.2,0
				c2,0,3.1,0.9,3.1,2.7c0,0.6-0.2,1.1-0.5,1.6c-0.3,0.5-0.7,0.8-1.2,0.9l2.5,4.3H727.2z M723.7-75.5v3c0.3,0,0.5,0.1,0.8,0.1
				c0.7,0,1.2-0.1,1.5-0.4s0.5-0.7,0.5-1.3c0-0.5-0.2-0.9-0.5-1.1c-0.3-0.2-0.9-0.3-1.6-0.3C724.3-75.6,724.1-75.5,723.7-75.5z"/>
		</g>
		<g style="enable-background:new    ;">
			<path style="fill:#E7BD3E;" d="M739.9-72.8c0.5,0,0.9,0.2,1.2,0.5c0.3,0.4,0.5,0.8,0.5,1.3s-0.2,0.9-0.5,1.3s-0.7,0.5-1.2,0.5
				c-0.5,0-0.9-0.2-1.2-0.5c-0.3-0.4-0.5-0.8-0.5-1.3s0.2-0.9,0.5-1.3C739.1-72.7,739.5-72.8,739.9-72.8z"/>
		</g>
		<g id="XMLID_408_" style="enable-background:new    ;">
			<path style="fill:#272425;" d="M649.6-84.9v-9.8h1.5v9.8H649.6z"/>
			<path style="fill:#272425;" d="M659.4-84.7l-4.1-6.2v6.1h-1.4v-9.8h0.7l4,5.9v-5.9h1.4v10H659.4z"/>
			<path style="fill:#272425;" d="M666.3-93.1v8.3h-1.5v-8.3h-2.7v-1.5h7v1.5H666.3z"/>
			<path style="fill:#272425;" d="M672.6-93.1v2.3h2.8v1.5h-2.8v2.9h3.8v1.5h-5.4v-9.8h5.4v1.5H672.6z"/>
			<path style="fill:#272425;" d="M683.7-84.9l-2.3-4.1c-0.2,0-0.5,0-1,0v4.1h-1.6v-9.8c0.1,0,0.4,0,1-0.1c0.6,0,1-0.1,1.4-0.1
				c2.2,0,3.2,1,3.2,2.9c0,0.6-0.1,1.1-0.4,1.6s-0.7,0.8-1.1,1l2.5,4.4H683.7z M680.5-93.2v2.7c0.3,0,0.5,0,0.6,0
				c0.6,0,1.1-0.1,1.4-0.3s0.4-0.6,0.4-1.2c0-0.5-0.2-0.8-0.5-1c-0.3-0.2-0.8-0.3-1.5-0.3C680.8-93.2,680.6-93.2,680.5-93.2z"/>
			<path style="fill:#272425;" d="M692.7-84.7l-4.1-6.2v6.1h-1.4v-9.8h0.7l4,5.9v-5.9h1.4v10H692.7z"/>
			<path style="fill:#272425;" d="M701.1-84.9l-0.6-2h-2.9l-0.6,2h-1.7l3.4-10h0.7l3.4,10H701.1z M699-91.8l-1,3.6h2L699-91.8z"/>
			<path style="fill:#272425;" d="M707-93.1v8.3h-1.5v-8.3h-2.7v-1.5h7v1.5H707z"/>
			<path style="fill:#272425;" d="M711.9-84.9v-9.8h1.5v9.8H711.9z"/>
			<path style="fill:#272425;" d="M715.8-89.9c0-1.4,0.3-2.6,1-3.6c0.7-1,1.5-1.5,2.7-1.5c1.2,0,2.2,0.4,2.8,1.3
				c0.6,0.9,1,2.1,1,3.7c0,1.6-0.3,2.8-1,3.8s-1.6,1.4-2.9,1.4c-1.1,0-2-0.5-2.6-1.4C716.1-87,715.8-88.3,715.8-89.9z M717.3-89.9
				c0,1.2,0.2,2,0.5,2.7s0.8,0.9,1.5,0.9c0.8,0,1.3-0.3,1.7-0.9c0.4-0.6,0.6-1.5,0.6-2.7c0-2.3-0.7-3.5-2.2-3.5
				c-0.7,0-1.2,0.3-1.5,0.9S717.3-90.9,717.3-89.9z"/>
			<path style="fill:#272425;" d="M731.1-84.7L727-91v6.1h-1.4v-9.8h0.7l4,5.9v-5.9h1.4v10H731.1z"/>
			<path style="fill:#272425;" d="M739.5-84.9l-0.6-2h-2.9l-0.6,2h-1.7l3.4-10h0.7l3.4,10H739.5z M737.4-91.8l-1,3.6h2L737.4-91.8z"
				/>
			<path style="fill:#272425;" d="M743-84.9v-9.8h1.5v8.3h3.8v1.5H743z"/>
		</g>
	</g>
	<g id="XMLID_364_">
		<g id="XMLID_404_">
			<path style="fill:#E8BE3D;" d="M362.4-96.3h5.8v1h1.6v1.2h1.2v2.8h-1.2v0.9h-1.6v1h-5.8v-2.3h-9.2c-3.4,0-5.5,1.4-6.6,3.3
				c-0.5,0.8-0.7,1.7-0.8,2.6c-0.1,0.9,0.1,1.8,0.4,2.6c0.7,1.8,2.5,3.3,5.1,3.6l12.2,1.4c3.1,0.4,5.1,1.9,6.3,3.9
				c0.7,1.2,1.1,2.7,1.1,4.1s-0.3,2.8-0.8,4.1c-1,2.4-3,4.4-5.7,4.9h-0.1h-0.2h-21.6h-1.2l-0.2-1.1L336-89.4v-0.1v-0.1
				c-0.1-1.5-0.5-2.4-1-2.8c-0.1-0.1-0.2-0.1-0.3-0.1s-0.2,0-0.3,0.1c-0.5,0.4-1,1.3-1.2,2.8c-0.4,3.4-1.1,8.1-2.3,14.7
				c-0.3,1.4-0.5,2.7-0.7,4c-0.3,1.6-0.6,3-0.8,4.4l0,0l0,0l0,0c-0.4,2.3-1.1,3.8-1.7,4.6c-0.5,0.6-1.1,0.9-1.8,0.9
				c-0.7,0-1.3-0.3-1.8-0.9c-0.6-0.8-1.2-2.3-1.5-4.4l-3.8-22.9c-0.2-1.3-0.4-2.2-0.6-2.7c-0.1-0.1-0.2-0.2-0.4-0.2
				c-0.3,0-0.5,0-0.7,0.1c-0.3,0.4-0.6,1.3-0.9,2.9l-6.6,32.3c1.2,0.7,1.9,1.9,1.9,3.4c0,2.2-1.8,3.9-4,3.9v-1.8
				c1.2,0,2.1-0.9,2.1-2.1c0-1.1-0.9-2.1-2.1-2.1v-5.3l5.9-28.9c0.4-2.1,0.9-3.3,1.5-4.1c0.8-1.1,1.8-1.3,3.1-1.2
				c1.4,0.1,2.2,0.7,2.7,1.8c0.4,0.8,0.6,1.9,0.8,3.4l3.8,22.9c0.2,1.1,0.4,1.9,0.6,2.4c0.3-0.6,0.5-1.5,0.7-2.7l0,0l0,0l0,0
				c0.3-1.7,0.6-3.1,0.8-4.3c0.3-1.5,0.5-2.8,0.7-3.9c1.1-6.3,1.8-11.1,2.3-14.5c0.3-2.4,1.2-4,2.3-4.8c0.6-0.4,1.3-0.7,2-0.6
				c0.7,0,1.4,0.3,2,0.8c1.1,0.8,1.9,2.5,2.1,4.8l4.9,25.9h20.2c1.6-0.4,2.9-1.6,3.5-3.2c0.4-0.9,0.6-2,0.6-3s-0.2-1.9-0.7-2.7
				c-0.7-1.3-2.1-2.2-4.2-2.5l-12.2-1.4c-3.8-0.4-6.3-2.6-7.4-5.3c-0.5-1.2-0.7-2.6-0.6-3.9s0.5-2.6,1.1-3.8c1.5-2.7,4.5-4.7,9-4.7
				h9.2v-2H362.4z M307.5-49.6L307.5-49.6c-2.2,0-4-1.8-4-3.9c0-1.9,1.4-3.6,3.3-3.9l0.7-3.4v5.3l0,0c-1.2,0-2.1,0.9-2.1,2.1
				c0,1.1,0.9,2.1,2.1,2.1l0,0V-49.6z"/>
		</g>
		<g id="XMLID_396_">
			<path style="fill:#262424;" d="M431.3-74.1v-2.8h0.6v2.8H431.3L431.3-74.1z M431.3-91.5h3.9v17.4h3.3v-17.4h4.5v-2.8h-11.7V-91.5
				L431.3-91.5z M444.4-94.3h3.3v20.2h-3.3V-94.3z M383.2-94.3h4.9l4,14.5l4.1-14.5h4.7v20.2h-3.1v-17.3L393-74.2h-2.4L386-91.4
				v17.3h-2.8V-94.3L383.2-94.3z M431.3-94.3v2.8h-0.6v-2.8H431.3L431.3-94.3z M431.3-77h-6.5v-17.3h-3.3v20.2h9.9V-77H431.3z
				 M404.8-94.3h3.3v12.5c0,1.4,0.1,2.4,0.2,3.1c0.1,0.7,0.5,1.2,1,1.6s1.2,0.6,2.1,0.6c0.8,0,1.5-0.2,2-0.5s0.8-0.8,1-1.4
				c0.2-0.6,0.3-1.7,0.3-3.5v-12.4h3V-82c0,2-0.1,3.5-0.4,4.6c-0.3,1.1-0.9,1.9-1.9,2.6s-2.4,1.1-4.1,1.1c-1.3,0-2.5-0.2-3.5-0.7
				c-1-0.4-1.7-1.2-2.2-2.1c-0.5-1-0.8-2.7-0.8-5.2L404.8-94.3L404.8-94.3z"/>
		</g>
		<g id="XMLID_384_">
			<path style="fill:#E8BE3D;" d="M532.8-74.3v-2.8c0.8-0.2,1.5-0.7,2.1-1.6c0.8-1.1,1.2-2.6,1.2-4.5v-1c-0.5-0.1-0.9-0.1-1.2-0.1
				c-0.8,0-1.5,0.1-2.1,0.2v-2.6c0.8-0.1,1.6-0.1,2.4-0.1c0.2,0,0.5,0,0.9,0v-0.8c0-1.4-0.2-2.5-0.6-3.2c-0.4-0.7-1.2-1.1-2.3-1.1
				c-0.1,0-0.2,0-0.4,0v-3c0.2,0,0.4,0,0.7,0c1.8,0,3.3,0.4,4.4,1.1c1.1,0.7,1.8,1.6,2,2.6c0.3,1,0.4,2.5,0.4,4.5v6.8
				c0,2.7,0.1,4.6,0.4,5.5h-3.9c-0.2-0.7-0.3-1.8-0.3-3.3C535.5-76,534.3-74.8,532.8-74.3z M532.8-94.8v3c-1.6,0.1-2.6,1.2-2.9,3.1
				l-4-0.5c0.3-1.8,1.1-3.2,2.5-4.1C529.6-94.2,531-94.7,532.8-94.8L532.8-94.8z M532.8-86.7v2.6c-2.2,0.5-3.3,1.8-3.3,4
				c0,2,0.9,3,2.7,3c0.2,0,0.4,0,0.6-0.1v2.8c-0.6,0.2-1.3,0.3-2,0.3c-1.7,0-3.1-0.5-4.1-1.5s-1.6-2.4-1.6-4.2
				c0-2.2,0.8-3.9,2.3-5.1C528.5-85.8,530.3-86.4,532.8-86.7L532.8-86.7z M504.4-74.2v-3c0.9,0,1.7-0.4,2.4-1.2
				c0.7-0.8,1.1-2.3,1.1-4.3v-3.4c0-2-0.4-3.5-1.2-4.3c-0.8-0.8-1.6-1.2-2.4-1.2v-2.9c1.6,0.2,2.8,1.1,3.6,2.6v-9.3h4.1v26.9h-3.8
				v-3C507.5-75.6,506.2-74.5,504.4-74.2L504.4-74.2z M521.3-97h-4.4v-4.4h4.4V-97L521.3-97z M517-94.4h4.2v19.9H517V-94.4z
				 M504.4-94.6v2.9c0,0,0,0-0.1,0c-2.3,0-3.5,2.3-3.5,7c0,5,1.2,7.5,3.5,7.5l0,0v3c-0.4,0.1-0.7,0.1-1.1,0.1c-2.3,0-4-0.9-5.1-2.8
				s-1.7-4.3-1.7-7.4c0-3.3,0.6-5.8,1.9-7.6c1.3-1.8,2.9-2.7,5-2.7C503.8-94.7,504.1-94.7,504.4-94.6L504.4-94.6z M486.2-74v-3.1
				c0.1,0,0.2,0,0.3,0c1.9,0,3-1.2,3.5-3.7l3.8,0.5C492.8-76.1,490.3-74,486.2-74C486.3-74,486.3-74,486.2-74L486.2-74z M486.2-83.8
				v-2.8h3.5c0-3.5-1.2-5.3-3.5-5.3l0,0v-3c0.1,0,0.1,0,0.2,0c1.7,0,3.2,0.5,4.3,1.4c1.2,0.9,2,2.2,2.5,3.7s0.7,3.5,0.8,6
				C494-83.8,486.2-83.8,486.2-83.8z M450.7-94.4h3.9v3c1-2.3,2.7-3.5,5-3.5c2.6,0,4.1,1.2,4.6,3.7c1-2.5,2.7-3.7,5.1-3.7
				c1.2,0,2.3,0.3,3.1,0.8c0.8,0.5,1.4,1.2,1.7,2.1s0.5,2.5,0.5,4.9v12.6h-4.2v-12.2c0-1.9-0.2-3.2-0.5-3.8c-0.3-0.7-1-1-2-1
				c-2.1,0-3.2,1.8-3.2,5.4v11.7h-4.2v-12.1c0-1.7-0.1-2.8-0.2-3.3s-0.4-0.9-0.8-1.2c-0.4-0.3-0.9-0.4-1.5-0.4c-1.2,0-2,0.4-2.5,1.3
				s-0.7,2.3-0.7,4.2v11.6h-4.2L450.7-94.4L450.7-94.4z M486.2-94.8v3c-2.1,0-3.3,1.8-3.5,5.3h3.5v2.8h-3.6c0,2.7,0.4,4.5,1.1,5.4
				c0.7,0.8,1.5,1.3,2.5,1.3v3.1c-2.4,0-4.3-0.9-5.7-2.6c-1.5-1.7-2.2-4.2-2.2-7.6s0.7-6,2.2-7.9C482-93.8,483.9-94.8,486.2-94.8z"
				/>
		</g>
		<g id="XMLID_366_">
			<g id="XMLID_367_">
				<path style="fill:#262424;" d="M536.6-58.8v-2.4c0.1,0.2,0.3,0.3,0.4,0.4c0.2,0.1,0.3,0.1,0.5,0.1l0,0c0.3,0,0.6-0.1,0.7-0.3
					c0.2-0.2,0.4-0.6,0.5-1.1l0.1-0.3h0.3l1.6,0.2h0.3l-0.1,0.3c-0.2,1-0.6,1.8-1.2,2.3c-0.6,0.5-1.4,0.8-2.3,0.8l0,0
					C537.2-58.7,536.9-58.7,536.6-58.8L536.6-58.8z M536.6-63.1V-65h2c0-0.6-0.1-1-0.3-1.3l0,0c-0.2-0.3-0.5-0.4-0.8-0.4l0,0l0,0
					l0,0l0,0c-0.1,0-0.2,0-0.3,0c-0.1,0-0.2,0.1-0.2,0.1c-0.1,0.1-0.2,0.2-0.3,0.4v-2.4c0.3-0.1,0.6-0.1,0.9-0.1
					c0.4,0,0.8,0.1,1.1,0.2c0.3,0.1,0.7,0.3,0.9,0.5l0,0l0,0c0.1,0.1,0.2,0.1,0.2,0.2c0.1,0.1,0.1,0.1,0.2,0.2
					c0.3,0.4,0.6,0.8,0.7,1.4c0.1,0.4,0.2,0.8,0.2,1.2c0.1,0.5,0.1,1,0.1,1.5v0.3h-0.3h-4.1V-63.1z M536.6-61.2L536.6-61.2
					L536.6-61.2z M536.6-68.6v2.4c-0.2,0.3-0.3,0.7-0.3,1.2h0.3v1.9h-0.4c0,1,0.2,1.6,0.4,1.9l0,0v2.4c-0.7-0.2-1.4-0.6-1.9-1.2
					c-0.3-0.4-0.6-0.9-0.8-1.5c-0.2-0.6-0.2-1.3-0.2-2.1l0,0l0,0c0-0.8,0.1-1.5,0.2-2.1l0,0c0-0.1,0.1-0.2,0.1-0.3l0,0
					c0.2-0.5,0.4-1,0.7-1.3c0.3-0.5,0.7-0.8,1.2-1C536.2-68.5,536.4-68.6,536.6-68.6L536.6-68.6z M412.7-59v-2.4
					c0.1,0.2,0.3,0.3,0.4,0.4c0.2,0.1,0.3,0.1,0.5,0.1l0,0c0.3,0,0.6-0.1,0.7-0.3l0,0c0.2-0.2,0.4-0.6,0.5-1.1l0.1-0.3h0.3l1.6,0.2
					h0.3l-0.1,0.3c-0.2,1-0.6,1.8-1.2,2.3c-0.6,0.5-1.4,0.8-2.3,0.8l0,0C413.3-58.9,413-58.9,412.7-59L412.7-59z M412.7-63.3v-1.9h2
					c0-0.6-0.1-1-0.3-1.3s-0.5-0.4-0.8-0.4l0,0l0,0l0,0l0,0c-0.1,0-0.2,0-0.3,0s-0.2,0.1-0.2,0.1c-0.1,0.1-0.2,0.2-0.3,0.4v-2.4
					c0.3-0.1,0.6-0.1,0.9-0.1c0.4,0,0.8,0.1,1.1,0.2s0.7,0.3,0.9,0.5l0,0l0,0c0.1,0.1,0.1,0.1,0.2,0.2c0.1,0.1,0.1,0.1,0.2,0.2
					c0.3,0.4,0.6,0.9,0.7,1.4l0,0c0.1,0.4,0.2,0.8,0.2,1.2c0.1,0.5,0.1,1,0.1,1.5v0.3h-0.3h-4.1V-63.3z M412.7-61.4L412.7-61.4
					L412.7-61.4L412.7-61.4z M437.9-68.3h1.6h0.3v0.3v0.6c0.5-0.7,1.1-1.1,1.8-1.1c0,0,0.1,0,0.2,0l0,0c0.1,0,0.1,0,0.2,0h0.3v0.3
					v1.9v0.4h-0.4l0,0l0,0h-0.1l0,0h-0.1l0,0c-0.1,0-0.1,0-0.2,0l0,0c-0.5,0-0.9,0.2-1.2,0.5c-0.3,0.4-0.4,1-0.4,1.8v4.6v0.3h-0.3
					h-1.8h-0.3v-0.4V-68v-0.3L437.9-68.3L437.9-68.3z M461.6-68h1.7h0.2l0.1,0.2l1.3,5.2l1.3-5.2l0.1-0.2h0.2h1.5h0.4l-0.1,0.4
					l-2.4,8.9l-0.1,0.2h-0.2H464h-0.2l-0.1-0.2l-2.5-8.9l-0.1-0.4L461.6-68L461.6-68z M490.8-68.5h-1.9h-0.3v-0.3v-2v-0.3h0.3h1.9
					h0.3v0.3v2v0.3L490.8-68.5L490.8-68.5z M489-68h1.8h0.3v0.3v9v0.3h-0.3H489h-0.3v-0.3v-9V-68L489-68L489-68z M519.4-64.7
					l-1.7,0.2h-0.3v-0.3l0,0l0,0l0,0c0-0.1,0-0.2,0-0.3c0-0.1,0-0.2,0-0.3l0,0c-0.1-0.4-0.2-0.7-0.3-0.8l0,0l0,0c0,0,0-0.1-0.1-0.1
					c0,0,0,0-0.1-0.1l0,0c-0.1-0.1-0.3-0.1-0.5-0.1c-0.2,0-0.4,0-0.5,0.1c-0.1,0.1-0.3,0.2-0.4,0.4l0,0c-0.1,0.2-0.2,0.5-0.2,0.9
					c-0.1,0.4-0.1,1-0.1,1.6c0,0.9,0.1,1.6,0.3,2.1c0.2,0.4,0.5,0.6,0.9,0.6c0.3,0,0.5-0.1,0.6-0.3c0.2-0.3,0.3-0.7,0.3-1.3v-0.3
					h0.3l1.7,0.2h0.3v0.3c-0.1,1.2-0.5,2.1-1.1,2.7c-0.6,0.6-1.4,0.9-2.4,0.9c-0.6,0-1.1-0.1-1.6-0.3s-0.8-0.6-1.1-1l0,0
					c-0.3-0.4-0.5-1-0.6-1.6s-0.2-1.3-0.2-2l0,0c0-0.8,0.1-1.5,0.2-2.1c0.2-0.6,0.4-1.2,0.7-1.6l0,0l0,0c0.1-0.1,0.2-0.2,0.3-0.3
					c0.1-0.1,0.2-0.2,0.3-0.3c0.6-0.5,1.3-0.7,2.2-0.7c1,0,1.7,0.3,2.3,0.9c0.6,0.6,0.9,1.5,1,2.6v0.3L519.4-64.7L519.4-64.7z
					 M536.6-61.2L536.6-61.2L536.6-61.2z M389.6-66l-1.4,0.4l-0.3,0.1l-0.1-0.3c-0.1-0.4-0.3-0.7-0.5-0.9c-0.2-0.2-0.4-0.3-0.7-0.3
					c-0.1,0-0.2,0-0.3,0.1l0,0c-0.1,0-0.2,0.1-0.2,0.2l0,0l0,0l-0.1,0.1c0,0,0,0.1-0.1,0.1c0,0.1-0.1,0.2-0.1,0.3
					c0,0.1,0,0.3,0.1,0.3l0,0c0,0.1,0.1,0.1,0.1,0.2l0,0c0.1,0.1,0.2,0.1,0.4,0.2s0.5,0.2,0.9,0.3l0,0c0.5,0.2,0.9,0.3,1.2,0.5
					c0.4,0.2,0.6,0.4,0.9,0.6c0.2,0.2,0.4,0.5,0.5,0.8c0.1,0.3,0.2,0.7,0.2,1l0,0l0,0c0,0.4-0.1,0.8-0.2,1.2l0,0
					c0,0.1-0.1,0.1-0.1,0.2c-0.2,0.3-0.4,0.6-0.6,0.8l0,0l0,0l0,0c-0.1,0.1-0.2,0.2-0.3,0.2c-0.1,0.1-0.2,0.1-0.3,0.2
					c-0.5,0.3-1.2,0.5-1.9,0.5c-1,0-1.8-0.2-2.4-0.7c-0.6-0.5-0.9-1.2-1.1-2.2v-0.3l0.3-0.1l1.5-0.3l0.3-0.1l0.1,0.3
					c0.1,0.4,0.2,0.8,0.5,1c0.2,0.2,0.5,0.3,0.9,0.3c0.4,0,0.6-0.1,0.8-0.3l0,0c0.1-0.1,0.1-0.2,0.2-0.3c0-0.1,0.1-0.2,0.1-0.3
					s0-0.2,0-0.2c0-0.1-0.1-0.2-0.1-0.3l0,0l0,0l0,0l0,0c0,0,0,0-0.1-0.1l0,0c-0.2-0.1-0.5-0.3-1-0.5l0,0c-0.4-0.1-0.7-0.2-0.9-0.3
					c-0.3-0.1-0.5-0.2-0.7-0.3l0,0c-0.2-0.1-0.4-0.2-0.5-0.4c-0.2-0.2-0.3-0.3-0.4-0.6l0,0c-0.1-0.2-0.2-0.4-0.3-0.7
					c-0.1-0.2-0.1-0.5-0.1-0.7l0,0c0-0.9,0.3-1.6,0.9-2.2l0,0l0,0l0,0c0.1-0.1,0.2-0.2,0.3-0.2c0.1-0.1,0.2-0.1,0.3-0.2
					c0.5-0.3,1.1-0.5,1.8-0.5c0.8,0,1.5,0.2,2,0.6s0.9,1.1,1.1,1.9l0.1,0.3L389.6-66L389.6-66z M412.7-68.8v2.4
					c-0.2,0.3-0.3,0.7-0.3,1.2h0.3v1.9h-0.4c0,1,0.2,1.6,0.4,1.9l0,0v2.4c-0.7-0.2-1.4-0.6-1.9-1.2c-0.3-0.4-0.6-0.9-0.8-1.5
					s-0.2-1.3-0.2-2.1l0,0l0,0c0-0.8,0.1-1.5,0.2-2.1l0,0c0-0.1,0.1-0.2,0.1-0.3l0,0c0.2-0.5,0.4-0.9,0.7-1.3c0.3-0.5,0.7-0.8,1.2-1
					C412.2-68.7,412.5-68.7,412.7-68.8L412.7-68.8z M412.7-61.4L412.7-61.4L412.7-61.4z"/>
			</g>
		</g>
		<g id="XMLID_365_">
			<rect x="376.4" y="-94.3" style="fill:#262424;" width="0.8" height="35.9"/>
		</g>
	</g>
	<g id="XMLID_184_">
		<g id="XMLID_319_">
			<g id="XMLID_356_">
				<g id="XMLID_110_">
					<g id="XMLID_111_">
						<path style="fill:#BDBDBD;" d="M1089.8-80.9c-2.2,0-4,0.8-5.4,2.3c-1.4,1.6-2.1,3.6-2.1,6.2s0.7,4.7,2,6.3
							c1.3,1.5,3.1,2.3,5.5,2.3c2.3,0,4.1-0.8,5.4-2.3s2-3.6,2-6.3c0-2.7-0.7-4.8-2-6.3C1094-80.2,1092.1-80.9,1089.8-80.9z
							 M1093-67.9c-0.8,1.1-1.8,1.7-3.2,1.7c-2.9,0-4.4-2.1-4.4-6.2c0-1.9,0.4-3.4,1.2-4.5s1.9-1.6,3.2-1.6c2.9,0,4.4,2,4.4,6.1
							C1094.1-70.5,1093.8-69,1093-67.9z"/>
					</g>
				</g>
			</g>
			<g id="XMLID_348_">
				<g id="XMLID_105_">
					<g id="XMLID_106_">
						<path style="fill:#BDBDBD;" d="M1059.8-86.8c-0.4,0-3.3,0.1-3.3,0.1c-0.5,0-0.9,0.4-0.9,0.9v20.7c0,0.5,0.4,0.9,0.9,0.9h1.3
							c0.5,0,0.9-0.4,0.9-0.9v-7.8c1.2,0.1,1.9,0.2,2.3,0.2c5.8,0,8.7-2.5,8.7-7.6C1069.6-84.7,1066.3-86.8,1059.8-86.8z
							 M1060.7-75.4c-0.1,0-0.8-0.1-2.1-0.2v-8.3c0.7-0.1,1.3-0.2,1.7-0.2c4.1,0,6.1,1.4,6.1,4.1
							C1066.4-76.9,1064.5-75.4,1060.7-75.4z"/>
					</g>
				</g>
			</g>
			<g id="XMLID_345_">
				<g id="XMLID_62_">
					<path style="fill:#BDBDBD;" d="M1082-80.7c-0.9-0.2-1.6-0.2-2.1-0.2c-2.1,0-3.7,1-4.8,2.9v-1.7c0-0.5-0.4-0.9-0.9-0.9h-1.1
						c-0.5,0-0.9,0.4-0.9,0.9v14.6c0,0.5,0.4,0.9,0.9,0.9h1.1c0.5,0,0.9-0.4,0.9-0.9v-8.5c0-1.3,0.4-2.5,1.2-3.4
						c0.8-1,1.7-1.4,2.7-1.4c0.6,0,1.9,0.7,1.9,0.7s0.7,0.3,1-0.6l0.5-1.2C1082.9-80.5,1082-80.7,1082-80.7z"/>
				</g>
			</g>
			<g id="XMLID_342_">
				<g id="XMLID_48_">
					<path style="fill:#BDBDBD;" d="M1156.2-66.3c-0.2-0.7-0.9-0.4-0.9-0.4c-0.7,0.3-1.3,0.4-2,0.4c-1,0-1.8-0.3-2.3-0.9
						s-0.7-1.6-0.7-3v-8.2h3.6l0,0l0,0c0.5,0,0.9-0.4,0.9-0.9v-0.5c0-0.5-0.4-0.9-0.9-0.9l0,0h-3.6v-2.9v-0.1v-0.7
						c0-0.5-0.4-0.9-0.9-0.9h-1.1c-0.5,0-0.9,0.4-0.9,0.9v3.7h-1.4c-0.5,0-0.9,0.4-0.9,0.9v0.5c0,0.5,0.4,0.9,0.9,0.9h1.5v9.4
						c0,1.5,0.4,2.7,1.3,3.7c0.9,1,2,1.5,3.3,1.5s2.6-0.1,3.7-0.4l0,0l0,0c0,0,0.7-0.1,0.6-0.9L1156.2-66.3z"/>
				</g>
			</g>
			<g id="XMLID_334_">
				<g id="XMLID_96_">
					<g id="XMLID_97_">
						<path style="fill:#BDBDBD;" d="M1120.8-80.9c-2,0-3.8,0.7-5.3,2.2c-1.7,1.6-2.5,3.8-2.5,6.5c0,2.6,0.8,4.7,2.4,6.3
							c1.4,1.4,3.2,2.1,5.3,2.1c3.9,0,6.3-2,6.3-2c0.4-0.3,0.6-0.8,0.3-1.3l-0.3-0.6c-0.3-0.4-0.7-0.6-1.1-0.3c0,0-2.4,1.7-4.6,1.7
							c-1.5,0-2.7-0.4-3.6-1.4c-1.1-1-1.6-2.5-1.6-4.5h10.3h0.8c0.9,0,0.9-1,0.9-1l0,0c0-0.3,0.1-0.5,0.1-0.8c0-2.1-0.6-3.8-1.9-5.1
							C1125-80.3,1123.2-80.9,1120.8-80.9z M1116.2-74.2c0.1-1.2,0.6-2.2,1.4-3c0.9-0.8,2-1.3,3.3-1.3c1.4,0,2.5,0.4,3.3,1.3
							c0.7,0.8,1.1,1.8,1.1,3H1116.2z"/>
					</g>
				</g>
			</g>
			<g id="XMLID_331_">
				<g id="XMLID_38_">
					<path style="fill:#BDBDBD;" d="M1112-80.6c-1,0-0.6,0-1.5,0c-0.3,0-0.8,0.2-1.1,1c-0.3,0.9-4,11.8-4,11.8s-4.4-11.7-4.5-11.8
						c-0.3-0.6-0.8-0.9-1.1-0.9c-1,0-0.6,0-1.5,0c-0.3,0-0.6,0.4-0.3,1.1c0,0.1,4,10.4,4,10.4c0.5,1.3,0.9,2.4,1.2,3.3
						s0.5,1.8,0.5,2.7c0,0.8-0.4,2.6-1.3,3.2c-0.8,0.5-1.9,0.8-3,0.8h-0.4c-0.5,0-0.9,0.4-0.9,0.9v0.8c0,0.5,0.4,0.9,0.9,0.9h0.4
						l0,0c1.5,0,2.8-0.4,4-1c1.2-0.7,2.1-2,2.4-2.6s6.6-19.4,6.6-19.5C1112.6-80.2,1112.3-80.6,1112-80.6z"/>
				</g>
			</g>
			<g id="XMLID_323_">
				<g id="XMLID_89_">
					<g id="XMLID_90_">
						<path style="fill:#BDBDBD;" d="M1171.6-65.3c-0.8-0.2-1.3-1.4-1.3-2.9v-5.9c0-2.4-0.5-4.1-1.6-5.2c-1.1-1.1-2.8-1.6-5.2-1.6
							c-0.9,0-1.8,0.2-2.8,0.5c-0.8,0.3-1.5,0.6-2,1c0,0-0.9,0.4-0.5,1.2l0.5,1c0.4,0.9,0.9,0.5,0.9,0.5c1.2-0.8,2.4-1.5,4.2-1.5
							c2.4,0,3.6,1.3,3.6,4c-0.8-0.3-1.5-0.4-2.1-0.4c-2.3,0-4.1,0.6-5.6,1.7c-1.5,1.2-2.2,2.6-2.2,4.2c0,1.4,0.5,2.6,1.4,3.5
							c0.9,0.9,2.1,1.4,3.4,1.4c2.4,0,4.2-0.7,5.4-2.2c0.3,0.8,0.7,1.3,1.3,1.7c0.6,0.3,1.5,0.5,2.7,0.5c0,0,0.6,0,0.6-0.7
							C1172.2-65.3,1171.6-65.3,1171.6-65.3z M1167.4-68.3c-1.1,1.4-2.4,2.1-3.9,2.1c-2,0-3-0.9-3-2.6c0-1,0.5-1.9,1.4-2.7
							c0.9-0.8,2.1-1.1,3.6-1.1c0.4,0,1,0.1,1.9,0.3V-68.3z"/>
					</g>
				</g>
			</g>
			<g id="XMLID_320_">
				<g id="XMLID_36_">
					<path style="fill:#BDBDBD;" d="M1143.9-67.4c-0.2-0.5-0.7-0.7-1.3-0.4c0,0-2.2,1.6-4.1,1.6c-1.7,0-3-0.5-4-1.5
						s-1.4-2.5-1.4-4.4s0.5-3.5,1.4-4.6c0.9-1.1,2.2-1.7,3.8-1.7c0.7,0,1.5,0.1,2.2,0.4c0.9,0.3,1.8,1,1.8,1
						c0.4,0.3,0.9,0.2,1.2-0.2l0.4-0.7c0.3-0.4,0.2-1-0.3-1.3c0,0-0.9-0.7-2.3-1.2c-1-0.4-1.9-0.5-2.8-0.5c-2.6,0-4.7,0.8-6.3,2.4
						c-1.5,1.6-2.3,3.7-2.3,6.3c0,2.6,0.7,4.6,2.2,6.1s3.3,2.3,5.6,2.3c3.2,0,6-1.8,6-1.8c0.5-0.2,0.7-0.7,0.4-1.2L1143.9-67.4z"/>
				</g>
			</g>
		</g>
		<g id="XMLID_302_">
			<g id="XMLID_311_">
				<g id="XMLID_82_">
					<g id="XMLID_83_">
						<path style="fill:#5E5D5E;" d="M1215.8-84.9v-0.8h1.3v-0.7h0.9v-2.1h-0.9v-0.9h-1.3v-0.7h-4.5v1.3c-1.4,0.1-3.1,0.4-5.1,0.8
							c-0.9,0.2-1.8,0.4-2.7,0.6c-2,0.4-3.6,1-5,1.8c-1.7,1-2.5,1.9-2.5,2.9c0,0.1-0.4,1.9,3.4,4.4c1.5,0.9,3.3,2.1,5.6,3.2
							s14.5,5.4,7.4,10c-0.8,0.5-2.2,0.6-4,0.6c-0.5,0-10.2-1.3-18.6-5.4l-6.2-2.5c0.5-0.2,6-2,6.8-2.4c1.2-0.7,1.9-1.6,2.3-2.7
							c0.2-0.8,0.4-1.5,0.4-2.2c0-3-2.2-5.9-6.5-8.7c-0.9-0.6-1.6-0.9-2.3-0.9c-0.5,0-1,0.1-1.4,0.4c-1.9,1.1-3.4,2.4-4.6,4
							c-1.9,2.6-2.8,6-2.8,10.3c0,1.4,1,11.7,1,11.7c0.1,1.2,2.4,0.6,2.4,0.4c0.2-0.3,0.3-0.7,0.3-1.2c0-0.6-0.2-2.9-0.5-4
							c-0.3-1.2-0.5-3.3-0.4-3.5c2,0.4,4.7,1,7.9,2.7c14.4,7.4,23.7,6.3,24.8,6.3c7.8-0.3,6.8-7.1,6.5-7.9c-0.3-0.9-1.1-1.7-1.7-2
							c-1.3-1.1-3-2-5.8-3.5c-4.1-2.1-6.3-3.2-6.5-3.3c-3.7-2-3.4-3.4-3.4-3.4c0.1-1.8,5.6-3,11.4-3.5v1.2h4.3V-84.9z M1179.4-74.1
							c-0.4,0-0.8-0.2-1.1-0.5c-0.1-0.4-0.1-0.8-0.1-1.2c0-3.2,1-6.1,2.9-8.6c0.9-0.9,1.5-1.4,1.8-1.6c0.4-0.3,0.9-0.4,1.3-0.4
							c0.7,0,1.4,0.4,2.1,1.1c1.2,1.2,1.9,2,2.2,2.4c0.8,1,1.1,1.9,1.1,2.8c0,1.3-0.8,2.4-2.2,3.2c-0.7,0.4-1.8,0.9-3.1,1.3
							c-0.6,0.2-1.8,0.6-3.6,1.1C1180.2-74.2,1179.7-74.1,1179.4-74.1z"/>
					</g>
				</g>
			</g>
			<g id="XMLID_303_">
				<g id="XMLID_77_">
					<g id="XMLID_78_">
						<path style="fill:#5E5D5E;" d="M1242.6-69.8c-1.9,0-3.4,1.3-3.8,2.9c0,0-12.4,2-15.3,0.6c-2.7-0.7-1.9-6.1-1.9-6.3
							c0.9-0.2,8.5-1.4,9.6-1.6c1.8-0.5,3.1-0.9,3.9-1.5c0.9-0.7,0.7-1.8,0.8-1.9c-1.2,0-1.9,0.2-3.4,0.6
							c-4.8,1.3-10.3,1.5-11.1,1.3c-0.1-0.8-0.5-5.3,0.4-7.7c3.3-1.4,10.4-1.6,13.7-1.7c2.8,0,5-0.2,6.8-0.4
							c0.1-0.2,0.1-0.4,0.1-0.6c0-1.2-0.5-1.8-1.5-1.8c-0.8-0.1-6.1,0-8.8,0.2c0,0-9,1.4-11.9,1c-1,2.2-1.5,5.4-1.5,9.4
							c0,0.5,0.3,9.3,0.3,10c0.2,2.6,1.8,3.7,3.5,4.2c0.6,0.2,1.4,0.3,2.3,0.3c2,0,4.3-0.2,7.1-0.6l7.1-1c0.6,1.2,2,2.1,3.5,2.1
							c2.1,0,3.9-1.7,3.9-3.7C1246.5-68.1,1244.7-69.8,1242.6-69.8z M1242.6-64.1c-1.1,0-2.1-0.9-2.1-2s0.9-2,2.1-2
							c1.1,0,2.1,0.9,2.1,2C1244.6-65,1243.7-64.1,1242.6-64.1z"/>
					</g>
				</g>
			</g>
		</g>
		<g id="XMLID_218_">
			<g id="XMLID_299_">
				<path style="fill:#BDBDBD;" d="M1111.4-52.9l-1.8-2.9c-0.2,0-0.5,0-1,0v2.9h-0.9v-6.8c0,0,0.3,0,0.7,0s0.8,0,1,0
					c1.6,0,2.4,0.6,2.4,1.9c0,0.4-0.1,0.8-0.4,1.1c-0.3,0.3-0.6,0.6-0.9,0.6l2,3.1L1111.4-52.9L1111.4-52.9z M1108.6-58.8v2.2
					c0.2,0,0.4,0,0.6,0c0.6,0,1-0.1,1.2-0.3c0.3-0.2,0.4-0.5,0.4-1c0-0.4-0.1-0.6-0.4-0.8c-0.3-0.2-0.7-0.2-1.3-0.2
					C1109.1-58.9,1108.9-58.8,1108.6-58.8z"/>
			</g>
			<g id="XMLID_296_">
				<path style="fill:#BDBDBD;" d="M1117.5-55.3h-3.6c0,0.6,0.2,1,0.5,1.3s0.6,0.4,1.1,0.4s0.9-0.1,1.3-0.4l0.4,0.6
					c-0.1,0.1-0.3,0.3-0.6,0.4c-0.4,0.1-0.7,0.2-1.2,0.2c-0.6,0-1.1-0.2-1.6-0.6c-0.5-0.5-0.7-1.1-0.7-1.9c0-0.8,0.2-1.5,0.7-2
					c0.4-0.4,1-0.7,1.6-0.7c0.7,0,1.3,0.2,1.7,0.6c0.4,0.4,0.6,0.9,0.6,1.5C1117.6-55.6,1117.6-55.4,1117.5-55.3z M1115.4-57.2
					c-0.4,0-0.7,0.1-1,0.4c-0.3,0.2-0.4,0.5-0.4,0.9h2.7c0-0.4-0.1-0.7-0.3-0.9C1116.1-57.1,1115.8-57.2,1115.4-57.2z"/>
			</g>
			<g id="XMLID_294_">
				<path style="fill:#BDBDBD;" d="M1118.6-53.2l0.3-0.8c0.5,0.3,0.9,0.5,1.2,0.5c0.5,0,0.8-0.2,0.8-0.7c0-0.3-0.3-0.6-0.8-0.8
					c-0.4-0.2-0.7-0.3-0.8-0.4c-0.1-0.1-0.3-0.2-0.4-0.3c-0.1-0.1-0.2-0.3-0.2-0.4c-0.1-0.1-0.1-0.3-0.1-0.4c0-0.4,0.1-0.7,0.4-0.9
					s0.7-0.3,1.2-0.3c0.4,0,0.8,0.1,1.4,0.3l-0.2,0.8c-0.3-0.3-0.7-0.4-1-0.4c-0.2,0-0.4,0-0.5,0.1s-0.2,0.2-0.2,0.4
					c0,0.3,0.2,0.6,0.5,0.7l0.6,0.3c0.4,0.2,0.7,0.4,0.8,0.6c0.2,0.2,0.3,0.5,0.3,0.8c0,0.4-0.2,0.8-0.5,1c-0.3,0.2-0.7,0.4-1.3,0.4
					C1119.5-52.8,1119-52.9,1118.6-53.2z"/>
			</g>
			<g id="XMLID_291_">
				<path style="fill:#BDBDBD;" d="M1123.9-53.2v2.2h-0.9v-6.9h0.9v0.4c0.3-0.3,0.7-0.5,1.2-0.5c0.7,0,1.2,0.2,1.6,0.7
					c0.4,0.4,0.6,1.1,0.6,1.9c0,0.7-0.2,1.4-0.6,1.8c-0.4,0.5-1,0.7-1.7,0.7c-0.2,0-0.4,0-0.7-0.1C1124.2-53,1124-53.1,1123.9-53.2z
					 M1123.9-56.8v2.9c0.1,0.1,0.2,0.2,0.3,0.2c0.2,0.1,0.4,0.1,0.5,0.1c1.1,0,1.6-0.6,1.6-1.8c0-0.6-0.1-1.1-0.4-1.4
					c-0.3-0.3-0.7-0.4-1.2-0.4c-0.1,0-0.3,0-0.5,0.1C1124.2-57,1124-56.9,1123.9-56.8z"/>
			</g>
			<g id="XMLID_288_">
				<path style="fill:#BDBDBD;" d="M1128.4-55.4c0-0.8,0.2-1.4,0.6-1.8c0.4-0.5,0.9-0.7,1.6-0.7c0.7,0,1.3,0.2,1.6,0.7
					c0.4,0.4,0.6,1.1,0.6,1.9c0,0.8-0.2,1.4-0.6,1.9c-0.4,0.5-0.9,0.7-1.6,0.7c-0.7,0-1.3-0.2-1.6-0.7
					C1128.6-54,1128.4-54.6,1128.4-55.4z M1129.4-55.4c0,1.2,0.4,1.9,1.3,1.9c0.4,0,0.7-0.2,1-0.5c0.2-0.3,0.3-0.8,0.3-1.4
					c0-1.2-0.4-1.8-1.3-1.8c-0.4,0-0.7,0.2-1,0.5C1129.5-56.4,1129.4-55.9,1129.4-55.4z"/>
			</g>
			<g id="XMLID_286_">
				<path style="fill:#BDBDBD;" d="M1137.3-52.9v-2.9c0-0.5-0.1-0.9-0.2-1.1c-0.2-0.2-0.4-0.3-0.8-0.3c-0.2,0-0.4,0.1-0.6,0.2
					c-0.2,0.1-0.4,0.3-0.5,0.4v3.7h-0.9v-4.9h0.6l0.3,0.6c0.3-0.5,0.8-0.7,1.4-0.7c1.1,0,1.6,0.7,1.6,2v3.1h-0.9V-52.9z"/>
			</g>
			<g id="XMLID_284_">
				<path style="fill:#BDBDBD;" d="M1139.4-53.2l0.3-0.8c0.5,0.3,0.9,0.5,1.2,0.5c0.5,0,0.8-0.2,0.8-0.7c0-0.3-0.3-0.6-0.8-0.8
					c-0.4-0.2-0.7-0.3-0.8-0.4c-0.1-0.1-0.3-0.2-0.4-0.3c-0.1-0.1-0.2-0.3-0.2-0.4c-0.1-0.1-0.1-0.3-0.1-0.4c0-0.4,0.2-0.7,0.4-0.9
					c0.3-0.2,0.7-0.3,1.2-0.3c0.4,0,0.8,0.1,1.4,0.3l-0.2,0.8c-0.3-0.3-0.7-0.4-1-0.4c-0.2,0-0.4,0-0.5,0.1s-0.2,0.2-0.2,0.4
					c0,0.3,0.2,0.6,0.5,0.7l0.6,0.3c0.4,0.2,0.7,0.4,0.8,0.6c0.2,0.2,0.3,0.5,0.3,0.8c0,0.4-0.2,0.8-0.5,1c-0.3,0.2-0.7,0.4-1.3,0.4
					C1140.3-52.8,1139.9-52.9,1139.4-53.2z"/>
			</g>
			<g id="XMLID_281_">
				<path style="fill:#BDBDBD;" d="M1146.8-53.5c-0.4,0.4-0.9,0.7-1.6,0.7c-0.4,0-0.7-0.1-1-0.4c-0.3-0.3-0.4-0.6-0.4-1.1
					s0.2-0.9,0.7-1.3c0.4-0.3,1-0.5,1.7-0.5c0.2,0,0.4,0,0.6,0.1c0-0.8-0.4-1.2-1.1-1.2c-0.5,0-1,0.1-1.3,0.4l-0.4-0.7
					c0.2-0.1,0.4-0.3,0.7-0.3c0.3-0.1,0.6-0.1,0.8-0.1c0.7,0,1.2,0.2,1.6,0.5c0.3,0.3,0.5,0.8,0.5,1.6v1.8c0,0.4,0.1,0.7,0.4,0.9
					v0.4c-0.4,0-0.6,0-0.8-0.2C1147-53.1,1146.8-53.2,1146.8-53.5z M1146.7-55.3c-0.3-0.1-0.5-0.1-0.6-0.1c-0.4,0-0.8,0.1-1.1,0.3
					c-0.3,0.2-0.4,0.5-0.4,0.8c0,0.5,0.3,0.8,0.9,0.8c0.4,0,0.8-0.2,1.2-0.6L1146.7-55.3L1146.7-55.3z"/>
			</g>
			<g id="XMLID_278_">
				<path style="fill:#BDBDBD;" d="M1150-53.2l-0.3,0.4h-0.4v-7.1h0.9v2.4c0.1-0.1,0.2-0.2,0.5-0.3c0.2-0.1,0.5-0.1,0.7-0.1
					c0.7,0,1.2,0.2,1.6,0.7c0.4,0.5,0.6,1.1,0.6,1.8c0,0.8-0.2,1.5-0.6,1.9c-0.4,0.5-1,0.7-1.7,0.7c-0.2,0-0.5,0-0.7-0.1
					C1150.3-53,1150.1-53.1,1150-53.2z M1150.1-56.8v2.8c0,0,0.1,0.1,0.3,0.2c0.2,0.1,0.4,0.2,0.5,0.2c0.6,0,1-0.1,1.3-0.4
					c0.3-0.3,0.4-0.8,0.4-1.4c0-0.6-0.1-1-0.5-1.3c-0.3-0.3-0.7-0.5-1.2-0.5c-0.1,0-0.3,0-0.5,0.1
					C1150.3-57,1150.2-56.9,1150.1-56.8z"/>
			</g>
			<g id="XMLID_275_">
				<path style="fill:#BDBDBD;" d="M1155.1-52.9v-4.2h-0.7v-0.7h1.6v4.9H1155.1z M1155.6-59.7c0.2,0,0.3,0.1,0.4,0.2
					c0.1,0.1,0.2,0.2,0.2,0.4s-0.1,0.3-0.2,0.4c-0.1,0.1-0.2,0.2-0.4,0.2c-0.1,0-0.3-0.1-0.4-0.2c-0.1-0.1-0.2-0.2-0.2-0.4
					s0.1-0.3,0.2-0.4S1155.4-59.7,1155.6-59.7z"/>
			</g>
			<g id="XMLID_273_">
				<path style="fill:#BDBDBD;" d="M1157.7-54.3v-5.6h0.9v5.4c0,0.3,0.1,0.5,0.2,0.6c0.2,0.2,0.4,0.2,0.6,0.2v0.8
					C1158.2-52.8,1157.7-53.3,1157.7-54.3z"/>
			</g>
			<g id="XMLID_270_">
				<path style="fill:#BDBDBD;" d="M1160.8-52.9v-4.2h-0.7v-0.7h1.6v4.9H1160.8z M1161.3-59.7c0.2,0,0.3,0.1,0.4,0.2
					c0.1,0.1,0.2,0.2,0.2,0.4s-0.1,0.3-0.2,0.4c-0.1,0.1-0.2,0.2-0.4,0.2c-0.1,0-0.3-0.1-0.4-0.2c-0.1-0.1-0.2-0.2-0.2-0.4
					s0.1-0.3,0.2-0.4C1161-59.6,1161.2-59.7,1161.3-59.7z"/>
			</g>
			<g id="XMLID_267_">
				<path style="fill:#BDBDBD;" d="M1166.5-52.9v-0.4c-0.3,0.3-0.7,0.5-1.3,0.5c-0.6,0-1.1-0.2-1.5-0.7c-0.4-0.4-0.6-1-0.6-1.8
					c0-0.7,0.2-1.4,0.7-1.9c0.4-0.5,1-0.8,1.6-0.8c0.5,0,0.9,0.1,1.2,0.4v-2.3h0.9v7H1166.5z M1166.5-56.7c-0.2-0.3-0.5-0.5-0.9-0.5
					c-0.5,0-0.9,0.2-1.1,0.5c-0.3,0.4-0.4,0.8-0.4,1.3c0,1.2,0.5,1.8,1.6,1.8c0.1,0,0.3,0,0.5-0.1s0.3-0.2,0.4-0.3L1166.5-56.7
					L1166.5-56.7z"/>
			</g>
			<g id="XMLID_264_">
				<path style="fill:#BDBDBD;" d="M1171.7-53.5c-0.3,0.4-0.9,0.7-1.6,0.7c-0.4,0-0.7-0.1-1-0.4c-0.3-0.3-0.4-0.6-0.4-1.1
					s0.2-0.9,0.7-1.3c0.4-0.3,1-0.5,1.7-0.5c0.2,0,0.4,0,0.6,0.1c0-0.8-0.4-1.2-1.1-1.2c-0.5,0-1,0.1-1.3,0.4l-0.4-0.7
					c0.2-0.1,0.4-0.3,0.7-0.3c0.3-0.1,0.6-0.1,0.8-0.1c0.7,0,1.2,0.2,1.6,0.5c0.3,0.3,0.5,0.8,0.5,1.6v1.8c0,0.4,0.1,0.7,0.4,0.9
					v0.4c-0.4,0-0.6,0-0.8-0.2C1171.9-53.1,1171.8-53.2,1171.7-53.5z M1171.6-55.3c-0.3-0.1-0.5-0.1-0.6-0.1c-0.4,0-0.8,0.1-1.1,0.3
					s-0.4,0.5-0.4,0.8c0,0.5,0.3,0.8,0.9,0.8c0.4,0,0.8-0.2,1.2-0.6L1171.6-55.3L1171.6-55.3z"/>
			</g>
			<g id="XMLID_261_">
				<path style="fill:#BDBDBD;" d="M1177.3-52.9v-0.4c-0.3,0.3-0.7,0.5-1.3,0.5s-1.1-0.2-1.5-0.7c-0.4-0.4-0.6-1-0.6-1.8
					c0-0.7,0.2-1.4,0.7-1.9c0.4-0.5,1-0.8,1.6-0.8c0.5,0,0.9,0.1,1.2,0.4v-2.3h0.9v7H1177.3z M1177.3-56.7c-0.2-0.3-0.5-0.5-0.9-0.5
					c-0.5,0-0.8,0.2-1.1,0.5c-0.3,0.4-0.4,0.8-0.4,1.3c0,1.2,0.5,1.8,1.6,1.8c0.1,0,0.3,0,0.5-0.1c0.2-0.1,0.3-0.2,0.4-0.3
					L1177.3-56.7L1177.3-56.7z"/>
			</g>
			<g id="XMLID_259_">
				<path style="fill:#BDBDBD;" d="M1183-53.2l0.3-0.8c0.2,0.1,0.4,0.2,0.6,0.3c0.3,0.1,0.5,0.1,0.7,0.1c0.4,0,0.7-0.1,0.9-0.3
					s0.3-0.4,0.3-0.8c0-0.2-0.1-0.4-0.2-0.6c-0.1-0.2-0.4-0.4-0.9-0.6l-0.5-0.3c-0.5-0.2-0.8-0.5-1-0.8s-0.3-0.7-0.3-1.1
					c0-0.5,0.2-0.9,0.5-1.3c0.4-0.3,0.8-0.5,1.4-0.5c0.7,0,1.3,0.1,1.6,0.4l-0.3,0.8c-0.1-0.1-0.3-0.2-0.6-0.3s-0.5-0.1-0.7-0.1
					c-0.3,0-0.6,0.1-0.7,0.3c-0.2,0.2-0.3,0.4-0.3,0.7c0,0.2,0,0.3,0.1,0.5c0.1,0.1,0.2,0.3,0.3,0.4c0.1,0.1,0.4,0.2,0.7,0.4
					l0.6,0.3c0.5,0.2,0.8,0.5,1,0.8c0.2,0.3,0.3,0.7,0.3,1.2s-0.2,0.9-0.6,1.3c-0.4,0.4-1,0.5-1.6,0.5
					C1183.9-52.8,1183.4-52.9,1183-53.2z"/>
			</g>
			<g id="XMLID_256_">
				<path style="fill:#BDBDBD;" d="M1187.9-55.4c0-0.8,0.2-1.4,0.6-1.8c0.4-0.5,1-0.7,1.6-0.7c0.7,0,1.3,0.2,1.6,0.7
					c0.4,0.4,0.6,1.1,0.6,1.9c0,0.8-0.2,1.4-0.6,1.9c-0.4,0.5-0.9,0.7-1.6,0.7c-0.7,0-1.3-0.2-1.6-0.7
					C1188.1-54,1187.9-54.6,1187.9-55.4z M1188.8-55.4c0,1.2,0.4,1.9,1.3,1.9c0.4,0,0.7-0.2,1-0.5c0.2-0.3,0.3-0.8,0.3-1.4
					c0-1.2-0.4-1.8-1.3-1.8c-0.4,0-0.7,0.2-1,0.5C1188.9-56.4,1188.8-55.9,1188.8-55.4z"/>
			</g>
			<g id="XMLID_254_">
				<path style="fill:#BDBDBD;" d="M1197.4-57.4l-0.4,0.6c-0.1-0.1-0.2-0.2-0.5-0.3c-0.2-0.1-0.4-0.1-0.7-0.1
					c-0.5,0-0.9,0.2-1.1,0.5c-0.3,0.3-0.4,0.8-0.4,1.4c0,0.6,0.1,1,0.4,1.3s0.7,0.5,1.2,0.5c0.4,0,0.8-0.2,1.2-0.5l0.3,0.7
					c-0.5,0.3-1.1,0.5-1.7,0.5c-0.7,0-1.2-0.2-1.7-0.7c-0.4-0.5-0.7-1.1-0.7-1.8c0-0.8,0.2-1.4,0.7-1.9s1.1-0.7,1.9-0.7
					c0.3,0,0.5,0.1,0.8,0.2C1197.1-57.7,1197.3-57.5,1197.4-57.4z"/>
			</g>
			<g id="XMLID_251_">
				<path style="fill:#BDBDBD;" d="M1199.2-52.9v-4.2h-0.7v-0.7h1.6v4.9H1199.2z M1199.7-59.7c0.2,0,0.3,0.1,0.4,0.2
					c0.1,0.1,0.2,0.2,0.2,0.4s-0.1,0.3-0.2,0.4c-0.1,0.1-0.2,0.2-0.4,0.2c-0.1,0-0.3-0.1-0.4-0.2c-0.1-0.1-0.2-0.2-0.2-0.4
					s0.1-0.3,0.2-0.4C1199.4-59.6,1199.6-59.7,1199.7-59.7z"/>
			</g>
			<g id="XMLID_248_">
				<path style="fill:#BDBDBD;" d="M1204.5-53.5c-0.4,0.4-0.9,0.7-1.6,0.7c-0.4,0-0.7-0.1-1-0.4c-0.3-0.3-0.4-0.6-0.4-1.1
					s0.2-0.9,0.7-1.3c0.4-0.3,1-0.5,1.7-0.5c0.2,0,0.4,0,0.6,0.1c0-0.8-0.4-1.2-1.1-1.2c-0.5,0-1,0.1-1.3,0.4l-0.4-0.7
					c0.2-0.1,0.4-0.3,0.7-0.3c0.3-0.1,0.6-0.1,0.8-0.1c0.7,0,1.2,0.2,1.6,0.5c0.3,0.3,0.5,0.8,0.5,1.6v1.8c0,0.4,0.1,0.7,0.4,0.9
					v0.4c-0.4,0-0.6,0-0.8-0.2S1204.6-53.2,1204.5-53.5z M1204.4-55.3c-0.3-0.1-0.5-0.1-0.6-0.1c-0.4,0-0.8,0.1-1.1,0.3
					s-0.4,0.5-0.4,0.8c0,0.5,0.3,0.8,0.9,0.8c0.4,0,0.8-0.2,1.2-0.6L1204.4-55.3L1204.4-55.3z"/>
			</g>
			<g id="XMLID_246_">
				<path style="fill:#BDBDBD;" d="M1206.9-54.3v-5.6h0.9v5.4c0,0.3,0.1,0.5,0.2,0.6c0.2,0.2,0.3,0.2,0.6,0.2v0.8
					C1207.5-52.8,1206.9-53.3,1206.9-54.3z"/>
			</g>
			<g id="XMLID_244_">
				<path style="fill:#BDBDBD;" d="M1214.4-58.8v1.9h2.2v0.8h-2.2v2.4h3.1v0.8h-4v-6.8h4v0.8h-3.1V-58.8z"/>
			</g>
			<g id="XMLID_242_">
				<path style="fill:#BDBDBD;" d="M1224.5-52.9V-56c0-0.8-0.3-1.2-1-1.2c-0.2,0-0.4,0.1-0.6,0.2c-0.2,0.1-0.3,0.3-0.4,0.4v3.7h-0.9
					v-3.5c0-0.2-0.1-0.4-0.3-0.6c-0.2-0.1-0.4-0.2-0.7-0.2c-0.2,0-0.4,0.1-0.6,0.2c-0.2,0.1-0.3,0.3-0.4,0.4v3.6h-0.9v-4.9h0.6
					l0.3,0.6c0.3-0.4,0.8-0.7,1.3-0.7c0.7,0,1.2,0.2,1.5,0.7c0.1-0.2,0.3-0.3,0.5-0.5c0.3-0.1,0.5-0.2,0.8-0.2
					c0.5,0,0.9,0.2,1.2,0.5s0.4,0.7,0.4,1.3v3.3H1224.5z"/>
			</g>
			<g id="XMLID_239_">
				<path style="fill:#BDBDBD;" d="M1227.9-53.2v2.2h-0.9v-6.9h0.9v0.4c0.3-0.3,0.7-0.5,1.2-0.5c0.7,0,1.2,0.2,1.6,0.7
					c0.4,0.4,0.6,1.1,0.6,1.9c0,0.7-0.2,1.4-0.6,1.8c-0.4,0.5-1,0.7-1.7,0.7c-0.2,0-0.4,0-0.7-0.1
					C1228.1-53,1227.9-53.1,1227.9-53.2z M1227.9-56.8v2.9c0.1,0.1,0.2,0.2,0.3,0.2c0.2,0.1,0.4,0.1,0.5,0.1c1.1,0,1.6-0.6,1.6-1.8
					c0-0.6-0.1-1.1-0.4-1.4c-0.3-0.3-0.7-0.4-1.2-0.4c-0.1,0-0.3,0-0.5,0.1C1228.1-57,1228-56.9,1227.9-56.8z"/>
			</g>
			<g id="XMLID_237_">
				<path style="fill:#BDBDBD;" d="M1235.3-57c-0.2-0.1-0.4-0.2-0.6-0.2c-0.3,0-0.6,0.1-0.8,0.4c-0.2,0.3-0.3,0.6-0.3,1v2.8h-0.9
					v-4.9h0.9v0.8c0.3-0.6,0.8-0.9,1.4-0.9c0.2,0,0.4,0,0.7,0.1L1235.3-57z"/>
			</g>
			<g id="XMLID_234_">
				<path style="fill:#BDBDBD;" d="M1240.6-55.3h-3.6c0,0.6,0.2,1,0.5,1.3s0.6,0.4,1.1,0.4s0.9-0.1,1.3-0.4l0.4,0.6
					c-0.1,0.1-0.3,0.3-0.6,0.4c-0.3,0.1-0.7,0.2-1.2,0.2c-0.6,0-1.1-0.2-1.6-0.6c-0.5-0.5-0.7-1.1-0.7-1.9c0-0.8,0.2-1.5,0.7-2
					c0.4-0.4,1-0.7,1.6-0.7c0.7,0,1.3,0.2,1.7,0.6c0.4,0.4,0.6,0.9,0.6,1.5C1240.7-55.6,1240.7-55.4,1240.6-55.3z M1238.5-57.2
					c-0.4,0-0.7,0.1-1,0.4c-0.2,0.2-0.4,0.5-0.4,0.9h2.7c0-0.4-0.1-0.7-0.3-0.9C1239.3-57.1,1238.9-57.2,1238.5-57.2z"/>
			</g>
			<g id="XMLID_232_">
				<path style="fill:#BDBDBD;" d="M1241.7-53.2l0.3-0.8c0.5,0.3,0.9,0.5,1.2,0.5c0.5,0,0.8-0.2,0.8-0.7c0-0.3-0.3-0.6-0.8-0.8
					c-0.4-0.2-0.7-0.3-0.8-0.4c-0.1-0.1-0.3-0.2-0.4-0.3c-0.1-0.1-0.2-0.3-0.2-0.4c0-0.1-0.1-0.3-0.1-0.4c0-0.4,0.1-0.7,0.4-0.9
					c0.3-0.2,0.7-0.3,1.2-0.3c0.4,0,0.8,0.1,1.4,0.3l-0.2,0.8c-0.3-0.3-0.7-0.4-1-0.4c-0.2,0-0.4,0-0.5,0.1
					c-0.1,0.1-0.2,0.2-0.2,0.4c0,0.3,0.2,0.6,0.5,0.7l0.6,0.3c0.4,0.2,0.7,0.4,0.8,0.6c0.2,0.2,0.3,0.5,0.3,0.8c0,0.4-0.2,0.8-0.5,1
					s-0.7,0.4-1.3,0.4C1242.7-52.8,1242.2-52.9,1241.7-53.2z"/>
			</g>
			<g id="XMLID_229_">
				<path style="fill:#BDBDBD;" d="M1249.1-53.5c-0.3,0.4-0.9,0.7-1.6,0.7c-0.4,0-0.7-0.1-1-0.4c-0.3-0.3-0.4-0.6-0.4-1.1
					s0.2-0.9,0.7-1.3c0.4-0.3,1-0.5,1.7-0.5c0.2,0,0.4,0,0.6,0.1c0-0.8-0.4-1.2-1.1-1.2c-0.5,0-1,0.1-1.3,0.4l-0.4-0.7
					c0.2-0.1,0.4-0.3,0.7-0.3c0.3-0.1,0.6-0.1,0.8-0.1c0.7,0,1.2,0.2,1.6,0.5c0.3,0.3,0.5,0.8,0.5,1.6v1.8c0,0.4,0.1,0.7,0.4,0.9
					v0.4c-0.4,0-0.6,0-0.8-0.2C1249.3-53.1,1249.1-53.2,1249.1-53.5z M1249-55.3c-0.3-0.1-0.5-0.1-0.6-0.1c-0.4,0-0.8,0.1-1.1,0.3
					c-0.3,0.2-0.4,0.5-0.4,0.8c0,0.5,0.3,0.8,0.9,0.8c0.4,0,0.8-0.2,1.2-0.6V-55.3z"/>
			</g>
			<g id="XMLID_227_">
				<path style="fill:#BDBDBD;" d="M1254.2-57c-0.2-0.1-0.4-0.2-0.6-0.2c-0.3,0-0.6,0.1-0.8,0.4c-0.2,0.3-0.3,0.6-0.3,1v2.8h-0.9
					v-4.9h0.9v0.8c0.3-0.6,0.8-0.9,1.4-0.9c0.2,0,0.4,0,0.7,0.1L1254.2-57z"/>
			</g>
			<g id="XMLID_224_">
				<path style="fill:#BDBDBD;" d="M1256.2-52.9v-4.2h-0.7v-0.7h1.6v4.9H1256.2z M1256.6-59.7c0.2,0,0.3,0.1,0.4,0.2
					c0.1,0.1,0.2,0.2,0.2,0.4s-0.1,0.3-0.2,0.4c-0.1,0.1-0.2,0.2-0.4,0.2c-0.1,0-0.3-0.1-0.4-0.2c-0.1-0.1-0.2-0.2-0.2-0.4
					s0.1-0.3,0.2-0.4C1256.4-59.6,1256.5-59.7,1256.6-59.7z"/>
			</g>
			<g id="XMLID_221_">
				<path style="fill:#BDBDBD;" d="M1261.4-53.5c-0.3,0.4-0.9,0.7-1.6,0.7c-0.4,0-0.7-0.1-1-0.4c-0.3-0.3-0.4-0.6-0.4-1.1
					s0.2-0.9,0.7-1.3c0.4-0.3,1-0.5,1.7-0.5c0.2,0,0.4,0,0.6,0.1c0-0.8-0.4-1.2-1.1-1.2c-0.5,0-1,0.1-1.3,0.4l-0.4-0.7
					c0.2-0.1,0.4-0.3,0.7-0.3c0.3-0.1,0.6-0.1,0.8-0.1c0.7,0,1.2,0.2,1.6,0.5c0.3,0.3,0.5,0.8,0.5,1.6v1.8c0,0.4,0.1,0.7,0.4,0.9
					v0.4c-0.4,0-0.6,0-0.8-0.2C1261.6-53.1,1261.5-53.2,1261.4-53.5z M1261.4-55.3c-0.3-0.1-0.5-0.1-0.6-0.1c-0.4,0-0.8,0.1-1.1,0.3
					c-0.3,0.2-0.4,0.5-0.4,0.8c0,0.5,0.3,0.8,0.9,0.8c0.4,0,0.8-0.2,1.2-0.6V-55.3z"/>
			</g>
			<g id="XMLID_219_">
				<path style="fill:#BDBDBD;" d="M1263.9-54.3v-5.6h0.9v5.4c0,0.3,0.1,0.5,0.2,0.6c0.2,0.2,0.4,0.2,0.6,0.2v0.8
					C1264.5-52.8,1263.9-53.3,1263.9-54.3z"/>
			</g>
		</g>
		<g id="XMLID_212_">
			<g id="XMLID_217_">
				<circle style="fill:#DFB935;" cx="1246.9" cy="-107.3" r="4.2"/>
			</g>
			<g id="XMLID_214_">
				<g id="XMLID_216_">
					<path style="fill:#DFB935;" d="M1244.8-92.8c-0.2,5.3-0.7,11.7,0.1,12.2c1.5,0.8,4.6-10.5,5.4-12.1c0.8-1.5,6.2,6.2,10,6.3
						c3.1,0.1-2.7-5.2-5.4-10.1C1251.5-95,1248-93.6,1244.8-92.8z"/>
				</g>
				<g id="XMLID_215_">
					<path style="fill:#DFB935;" d="M1243.9-99.5c0.6-0.2,0.9,1.1,1,3.1c2.4-0.9,5.3-2.2,8.8-4.2c0.9-3.3,8.6-6.3,7.9-8
						c-0.7-1.9-10,2.7-10.1,3.4c-0.1,0.7-0.7,2.3-3.3,3c-2.6,0.6-3.9-1-3.9-1s-5.5,3-7,5.6C1235.5-95.2,1241.6-98.8,1243.9-99.5z"/>
				</g>
			</g>
			<g id="XMLID_213_">
				<path style="fill:#DFB935;" d="M1239.2-92.7c8.7,0,23.3-8.3,29.7-12.2l2.4,2.6l3.1-10.1l-10.3,2.3l1.9,2
					c-15.2,11.3-23.8,13.8-28.3,13.8c-3.4,0-4.6-1.4-4.6-1.4C1234.3-93.6,1236.4-92.7,1239.2-92.7z"/>
			</g>
		</g>
		<g id="XMLID_209_">
			<g id="XMLID_211_">
				<circle style="fill:#971922;" cx="1252.9" cy="-83.2" r="3.8"/>
			</g>
			<g id="XMLID_210_">
				<path style="fill:#971922;" d="M1263.9-84.9c-0.6-1.6-2.3,2.1-6.9,3.5l0,0c0,0,0,0.1-0.1,0.1c0,0,0,0,0,0.1l0,0
					c-0.3,0.7-0.7,1.3-1.1,1.7c-0.5,0.4-1.1,0.7-1.9,0.9c-0.2,0-0.3,0.1-0.5,0.1c-1.6,0-2.9-1-3-1l0,0l0,0c0,0-4.9,2.5-6.4,4.8
					c-1.4,2.1,3.8-0.7,6.2-1.6c2.7,1.5-0.6,9.5-1.9,10.8c0.6,0.3,1.5,0.4,2.6,0.4c-0.9,1.7-1.7,3.4-1.9,3.9c-0.3,0.9-0.2,1.9,2-0.4
					c0.9-0.9,2.1-2.5,3.1-4c0.8-0.2,1.6-0.4,2.4-0.6v0.1c-1,2-2.9,4-2.4,4.3c0.4,0.2,4-2.4,6.5-5.7l0,0c0.4-0.1,0.7-0.2,0.7-0.2
					s-0.7-5.5-1.8-9c-0.1-0.2-0.7-2.1-0.7-2.1S1264.5-83.2,1263.9-84.9z"/>
			</g>
		</g>
		<g id="XMLID_206_">
			<g id="XMLID_208_">
				<circle style="fill:#3E8BB9;" cx="1223.7" cy="-102.8" r="4"/>
			</g>
			<g id="XMLID_207_">
				<path style="fill:#3E8BB9;" d="M1236.8-104.4c-0.8-1.7-9,3.1-9,3.7c-0.1,0.6-0.5,2.2-2.9,2.9c-2.3,0.7-3.6-0.7-3.6-0.7
					s-5.7,4-7,6.4c-1.3,2.4,5-0.6,7.1-1.5c0.8-0.3,1.5,1.8,2,4.6c1.5-0.1,3.3-0.3,4.8-0.5l1.3-0.2c1.3-0.2,2.2-0.3,2.2-0.3h0.1
					c1-0.1,2.3-0.2,3.6-0.2c-2-2.1-4.1-4.5-4.7-6.6C1229.9-100.1,1237.6-102.7,1236.8-104.4z"/>
			</g>
		</g>
		<g id="XMLID_203_">
			<path style="fill:#DFB935;" d="M1048.8-85.4v-0.8h1.3v-0.7h0.9V-89h-0.9v-0.9h-1.3v-0.8h-4.5v1.3c-1.4,0.1-3.1,0.4-5.1,0.8
				c-0.9,0.2-1.8,0.4-2.7,0.6c-2,0.4-3.6,1-5,1.8c-1.7,1-2.5,1.9-2.5,2.9c0,0.1-0.4,1.9,3.4,4.4c1.5,0.9,3.3,2.1,5.6,3.2
				s14.5,5.4,7.4,10c-0.8,0.5-14.2,2.2-16.2-3.9c-1.7-5.1-3.8-20.9-7-20.9c0,0-3.1-0.8-4.1,5.9c-1,6.7-2.2,19-3,18.8
				c0,0-0.6,1.7-2.5-18.6c-0.6-6.7-4.6-5.9-4.6-5.9c-3.2-0.1-7.6,26.5-8.2,30.3c-1.4,0.3-2.5,1.5-2.5,3c0,1.7,1.4,3.1,3.2,3.1
				s3.2-1.4,3.2-3.1c0-1.1-0.6-2.1-1.6-2.6c0.9-3.1,4.4-21.3,4.4-21.3s1.4-6.1,2.2-6.1c1.6,0,2.2,14.4,2.9,19.8s3.6,4.8,3.6,4.8
				c0.8-0.1,2.9-0.8,3.5-5.1c0.7-5.4,1.9-19.7,3-19.8c1-0.1,2.2,6.6,2.2,6.6s2.1,13.7,5.2,15.6c5.7,3.4,14.2,2.4,14.9,2.4
				c7.8-0.3,6.8-7.1,6.5-7.9c-0.3-0.9-1.1-1.7-1.7-2c-1.3-1.1-3-2-5.8-3.5c-4.1-2.1-6.3-3.2-6.5-3.3c-3.7-2-3.4-3.4-3.4-3.4
				c0.1-1.8,5.6-3,11.4-3.5v1.2h4.3V-85.4z M1002.2-57.2c0,0.9-0.8,1.6-1.7,1.6s-1.7-0.7-1.7-1.6c0-0.9,0.8-1.6,1.7-1.6
				C1001.4-58.9,1002.2-58.1,1002.2-57.2z"/>
		</g>
		<g id="XMLID_185_">
			<g id="XMLID_202_">
				<polygon style="fill:#BDBDBD;" points="998.4,-99.1 1001.5,-99.1 1001.5,-100.2 998.4,-100.2 998.4,-102.7 1002.7,-102.7 
					1002.7,-103.8 997.2,-103.8 997.2,-94.8 998.4,-94.8 				"/>
			</g>
			<g id="XMLID_201_">
				<path style="fill:#BDBDBD;" d="M1005.2-94.7c0.4,0,0.8-0.1,1.2-0.3c0.4-0.2,0.7-0.5,0.8-0.7v0.9h1.2v-6.6h-1.2v4.6
					c-0.1,0.3-0.3,0.6-0.6,0.8c-0.3,0.2-0.7,0.3-1.1,0.3c-0.9,0-1.3-0.5-1.3-1.5v-4.2h-1.2v4.3c0,0.8,0.2,1.3,0.6,1.8
					C1004-94.9,1004.5-94.7,1005.2-94.7z"/>
			</g>
			<g id="XMLID_200_">
				<path style="fill:#BDBDBD;" d="M1011-99.7c0.2-0.2,0.4-0.4,0.7-0.6s0.6-0.2,0.8-0.2c0.5,0,0.8,0.1,1.1,0.4
					c0.2,0.3,0.3,0.8,0.3,1.5v3.8h1.2v-4.1c0-1.8-0.7-2.6-2.2-2.6c-0.9,0-1.5,0.3-1.9,1l-0.4-0.8h-0.8v6.6h1.2L1011-99.7L1011-99.7z
					"/>
			</g>
			<g id="XMLID_197_">
				<path style="fill:#BDBDBD;" d="M1018.9-94.7c0.8,0,1.4-0.2,1.8-0.6v0.5h1.2v-9.3h-1.2v3.1c-0.4-0.3-0.9-0.5-1.5-0.5
					c-0.8,0-1.5,0.4-2.1,1c-0.6,0.7-0.9,1.5-0.9,2.5s0.3,1.8,0.8,2.4C1017.4-95,1018.1-94.7,1018.9-94.7z M1018-99.8
					c0.4-0.5,0.9-0.7,1.5-0.7c0.5,0,0.9,0.2,1.2,0.7v3.6c-0.1,0.1-0.2,0.3-0.5,0.4s-0.5,0.2-0.7,0.2c-1.4,0-2.2-0.8-2.2-2.4
					C1017.4-98.8,1017.6-99.3,1018-99.8z"/>
			</g>
			<g id="XMLID_194_">
				<path style="fill:#BDBDBD;" d="M1023.9-98.3c-0.6,0.5-0.9,1-0.9,1.7c0,0.6,0.2,1,0.6,1.4c0.4,0.4,0.8,0.6,1.3,0.6
					c1,0,1.7-0.3,2.1-0.9c0.1,0.3,0.3,0.5,0.5,0.7c0.2,0.1,0.6,0.2,1.1,0.2v-0.6c-0.3-0.2-0.5-0.6-0.5-1.2v-2.4
					c0-0.9-0.2-1.6-0.6-2.1c-0.4-0.4-1.1-0.7-2.1-0.7c-0.4,0-0.7,0.1-1.1,0.2c-0.4,0.1-0.7,0.3-0.9,0.5l0.5,1c0.4-0.4,1-0.6,1.7-0.6
					c1,0,1.4,0.5,1.4,1.6c-0.3-0.1-0.6-0.2-0.8-0.2C1025.2-99,1024.5-98.8,1023.9-98.3z M1026.9-98v1.6c-0.5,0.6-1,0.8-1.6,0.8
					c-0.8,0-1.2-0.3-1.2-1c0-0.4,0.2-0.8,0.6-1.1c0.4-0.3,0.9-0.5,1.4-0.5C1026.3-98.2,1026.6-98.1,1026.9-98z"/>
			</g>
			<g id="XMLID_193_">
				<path style="fill:#BDBDBD;" d="M1032.4-94.7c0.9,0,1.7-0.2,2.3-0.6l-0.5-1c-0.5,0.4-1.1,0.6-1.6,0.6c-0.7,0-1.2-0.2-1.6-0.6
					c-0.4-0.4-0.6-1-0.6-1.8s0.2-1.4,0.6-1.8c0.4-0.4,0.9-0.7,1.5-0.7c0.3,0,0.6,0.1,0.9,0.2c0.3,0.1,0.5,0.2,0.6,0.3l0.6-0.8
					c-0.2-0.2-0.5-0.3-0.9-0.4c-0.4-0.1-0.8-0.2-1.1-0.2c-1.1,0-1.9,0.3-2.5,1c-0.6,0.6-0.9,1.5-0.9,2.5s0.3,1.8,0.9,2.4
					C1030.7-95,1031.5-94.7,1032.4-94.7z"/>
			</g>
			<g id="XMLID_192_">
				<polygon style="fill:#BDBDBD;" points="1036.4,-94.8 1037.6,-94.8 1037.6,-101.4 1035.5,-101.4 1035.5,-100.4 1036.4,-100.4 
									"/>
			</g>
			<g id="XMLID_191_">
				<path style="fill:#BDBDBD;" d="M1037.1-102.4c0.2,0,0.4-0.1,0.5-0.2s0.2-0.3,0.2-0.5s-0.1-0.4-0.2-0.5s-0.3-0.2-0.5-0.2
					s-0.4,0.1-0.5,0.2s-0.2,0.3-0.2,0.5s0.1,0.4,0.2,0.5S1036.9-102.4,1037.1-102.4z"/>
			</g>
			<g id="XMLID_188_">
				<path style="fill:#BDBDBD;" d="M1041.8-94.7c0.9,0,1.6-0.3,2.2-0.9c0.5-0.6,0.8-1.4,0.8-2.5s-0.3-1.9-0.8-2.5s-1.2-0.9-2.2-0.9
					c-0.9,0-1.6,0.3-2.2,0.9c-0.5,0.6-0.8,1.4-0.8,2.5c0,1,0.3,1.9,0.8,2.5S1040.8-94.7,1041.8-94.7z M1040.5-99.9
					c0.3-0.4,0.7-0.7,1.3-0.7c1.2,0,1.7,0.8,1.7,2.4c0,0.8-0.2,1.4-0.5,1.8s-0.7,0.7-1.3,0.7c-1.2,0-1.7-0.8-1.7-2.5
					C1040-98.9,1040.2-99.5,1040.5-99.9z"/>
			</g>
			<g id="XMLID_187_">
				<polygon style="fill:#BDBDBD;" points="1043.2,-104.7 1041.9,-104.7 1040.9,-102.7 1041.8,-102.7 				"/>
			</g>
			<g id="XMLID_186_">
				<path style="fill:#BDBDBD;" d="M1048.9-101.5c-0.9,0-1.5,0.3-1.9,1l-0.4-0.8h-0.8v6.6h1.2v-4.9c0.2-0.2,0.4-0.4,0.7-0.6
					c0.3-0.2,0.6-0.2,0.8-0.2c0.5,0,0.9,0.1,1.1,0.4c0.2,0.3,0.3,0.8,0.3,1.5v3.8h1.2v-4.1C1051.1-100.6,1050.4-101.5,1048.9-101.5z
					"/>
			</g>
		</g>
	</g>
	<g id="XMLID_16_">
		<g id="XMLID_183_">
			<rect x="1383.6" y="-106.7" style="fill:#1D3767;" width="0.6" height="48.4"/>
		</g>
		<g id="XMLID_182_">
			<g>
				<defs>
					<path id="SVGID_1_" d="M1307.5-75.4l-0.1,0.4L1307.5-75.4z"/>
				</defs>
				<clipPath id="SVGID_2_">
					<use xlink:href="#SVGID_1_"  style="overflow:visible;"/>
				</clipPath>
				<rect x="1307.4" y="-75.4" style="clip-path:url(#SVGID_2_);fill:#38599E;" width="0.1" height="0.4"/>
			</g>
		</g>
		<g id="XMLID_181_">
			<g>
				<defs>
					<polygon id="SVGID_3_" points="1307.8,-76.5 1307.5,-75.4 1307.5,-75.4 					"/>
				</defs>
				<clipPath id="SVGID_4_">
					<use xlink:href="#SVGID_3_"  style="overflow:visible;"/>
				</clipPath>
				<rect x="1307.5" y="-76.5" style="clip-path:url(#SVGID_4_);fill:#38599E;" width="0" height="1.1"/>
				<rect x="1307.5" y="-76.5" style="clip-path:url(#SVGID_4_);fill:#38599E;" width="0.3" height="1.1"/>
			</g>
		</g>
		<g id="XMLID_180_">
			<polygon style="fill:#333333;" points="1307.4,-75 1307,-73.4 1307,-73.4 			"/>
		</g>
		<g id="XMLID_179_">
			<path style="fill:none;" d="M1304.3-59.9L1316-86l7.8,20.3c0.7-0.1,1.4-0.3,2.1-0.4l-9.9-41.8L1304.3-59.9z"/>
		</g>
		<g id="XMLID_178_">
			<path style="fill:none;" d="M1329.5-50.4l-3.4-14.6c-0.7,0.1-1.3,0.2-2,0.3L1329.5-50.4z"/>
		</g>
		<g id="XMLID_177_">
			<path style="fill:none;" d="M1303.2-57.7v-0.2V-57.7z"/>
		</g>
		<g id="XMLID_176_">
			<path style="fill:#666666;" d="M1326.4-66.1c-0.2,0-0.3,0-0.5,0.1C1326-66.1,1326.2-66.1,1326.4-66.1L1326.4-66.1z"/>
		</g>
		<g id="XMLID_175_">
			<path style="fill:#666666;" d="M1323.2-65.5L1323.2-65.5c0.2,0,0.3-0.1,0.5-0.1C1323.6-65.6,1323.4-65.6,1323.2-65.5z"/>
		</g>
		<g id="XMLID_174_">
			<path style="fill:#666666;" d="M1323.6-64.6c0.2,0,0.3-0.1,0.5-0.1C1323.9-64.7,1323.7-64.6,1323.6-64.6L1323.6-64.6z"/>
		</g>
		<g id="XMLID_171_">
			<g id="XMLID_173_">
				<path style="fill:#666666;" d="M1375.2-67.8c-1.4-0.5-2.9-1-4.4-1.3c-3-0.7-6.1-1.3-9.1-1.8c-6.1-1-12.4-1.5-18.7-1.5
					c-6,0-11.9,0.4-17.7,1.4l0.2,0.8c2.7-0.4,5.5-0.8,8.3-0.9c3.1-0.2,6.2-0.3,9.2-0.3c3.1,0,6.2,0.1,9.3,0.4
					c3.1,0.2,6.2,0.5,9.2,0.9c3.1,0.4,6.1,0.8,9.1,1.5c3,0.6,5.9,1.5,8.6,2.8C1378-66.6,1376.6-67.2,1375.2-67.8z"/>
			</g>
			<g id="XMLID_172_">
				<path style="fill:#666666;" d="M1316-107.9V-86l6,15.7c-2.2,0.5-4.4,1.1-6.5,1.7c-2.9,0.9-5.7,2-8.3,3.3
					c4.8-1.9,9.9-3.4,15.1-4.4l7.3,19.2L1316-107.9z"/>
			</g>
		</g>
		<g id="XMLID_168_">
			<g id="XMLID_170_">
				<path style="fill:#1D3767;" d="M1318.5-77.9c-2.2,0.1-4.4,0.3-6.4,0.7l3.9-8.7v-21.9l-8,31.5c-9.3,2.5-14.5,7.6-3.5,11.2
					c-5.7-3.7-2.9-7,3-9.1l-4.2,16.4l7.9-17.5c2.4-0.6,5.1-1,7.8-1.2L1318.5-77.9z"/>
			</g>
			<g id="XMLID_169_">
				<path style="fill:#1D3767;" d="M1380-102.4h-0.7c-0.9-0.5-3-0.3-3-0.3c-0.7-0.4-1.9-0.7-1.9-0.7l-0.1-0.1l-1-1.8h0.1l-1-1.5h0.8
					v-0.1h0.1c0-0.1-0.4,0-0.4,0l-1.5,0.1l-0.1,0.1h0.1v1.6l0,0v1.7h-1.7l-0.7-1.1h-0.5v1h-6.7c-3.9,0-6.5,1.7-7.8,4
					c-0.6,1-0.9,2.1-1,3.3c-0.1,1.1,0.1,2.3,0.5,3.3c0.9,2.3,3.1,4.2,6.4,4.6l10.4,1.2c1.8,0.2,3,1,3.6,2.1c0.4,0.7,0.6,1.5,0.6,2.4
					s-0.2,1.8-0.5,2.6c-0.6,1.3-1.6,2.4-3,2.8h-17.4l-4.2-22.2c-0.1-2-0.9-3.4-1.8-4.1c-0.5-0.4-1.1-0.6-1.7-0.6s-1.2,0.2-1.7,0.5
					c-0.9,0.7-1.7,2-2,4.1c-0.4,2.9-1,7-2,12.4c-0.2,0.9-0.4,2.1-0.6,3.4c-0.2,1-0.4,2.3-0.7,3.7l0,0l0,0c-0.2,1-0.4,1.8-0.6,2.3
					c-0.2-0.5-0.4-1.2-0.5-2.1l-3.2-19.7c-0.2-1.3-0.4-2.2-0.7-2.9c-0.5-1-1.1-1.4-2.3-1.6c-1.1-0.1-1.9,0.1-2.7,1
					c-0.5,0.7-0.9,1.8-1.3,3.5l-4.7,20.5l1.6,7l1-5.2c2.8,0.1,5.3,0.4,7.4,1.1c-2.1-1-4.6-1.7-7.3-2l4.2-20.9
					c0.3-1.4,0.5-2.1,0.8-2.5c0.1-0.1,0.3-0.1,0.6-0.1c0.2,0,0.3,0.1,0.4,0.2c0.2,0.4,0.3,1.2,0.5,2.3l3.2,19.7
					c0.3,1.8,0.8,3.1,1.3,3.8c0.4,0.5,0.9,0.8,1.5,0.8s1.1-0.3,1.6-0.8c0.6-0.7,1.1-2,1.5-3.9l0,0l0,0c0.2-1.1,0.5-2.4,0.7-3.7
					c0.2-1.1,0.4-2.2,0.6-3.4c1-5.6,1.6-9.7,2-12.6c0.2-1.3,0.6-2.1,1-2.4c0.1-0.1,0.2-0.1,0.2-0.1c0.1,0,0.2,0,0.3,0.1
					c0.4,0.3,0.8,1.2,0.9,2.4v0.1v0.1l4.4,23.3l0.2,1h1h18.5h0.1h0.1c2.3-0.4,4-2.1,4.9-4.2c0.5-1.1,0.7-2.3,0.7-3.5
					s-0.3-2.5-0.9-3.5c-1-1.7-2.7-3-5.4-3.3l-10.4-1.2c-2.3-0.3-3.8-1.5-4.4-3.1c-0.3-0.7-0.4-1.5-0.4-2.3s0.3-1.5,0.7-2.2
					c0.9-1.6,2.8-2.8,5.7-2.8h6.7v1.2h0.5l0.8-1.2h1.6l0,0c0,0,0,3.4,0,3.5v0.1c0.2,0.1,1.5,0,1.6,0c0.2,0,0.2,0,0.2-0.1h-0.1l0,0
					h-0.8l1-1.6h-0.1l1.1-1.8c1.1-0.2,2-0.8,2-0.8c2-0.1,3-0.7,3-0.7S1379.9-102.4,1380-102.4L1380-102.4z"/>
			</g>
		</g>
		<g id="XMLID_141_">
			<g id="XMLID_165_">
				<path style="fill:#1D3767;" d="M1389.4-96.1l2.4-10.1h2.5l2.3,10.1h-2l-0.5-2.6h-2.2l-0.5,2.6H1389.4z M1392.3-100.1h1.6
					l-0.5-2.9c-0.1-0.5-0.1-0.9-0.2-1.4c0-0.2,0-0.5-0.1-0.7l0,0c0,0.2-0.1,0.4-0.1,0.7c-0.1,0.5-0.1,0.9-0.2,1.4L1392.3-100.1z"/>
			</g>
			<g id="XMLID_163_">
				<path style="fill:#1D3767;" d="M1401.7-96.1v-10.1h5.3v1.5h-3.4v2.5h3.1v1.5h-3.1v3.1h3.4v1.5H1401.7z"/>
			</g>
			<g id="XMLID_160_">
				<path style="fill:#1D3767;" d="M1414.3-100.4v4.3h-1.9v-10.1h3.6c1.6,0,2.9,0.6,2.9,2.4c0,1.1-0.3,2.3-1.5,2.4l0,0
					c1.1,0.1,1.4,0.9,1.4,1.8v0.4c0,0.8,0,2.5,0.4,2.8v0.3h-2.1c-0.2-0.5-0.2-1.4-0.2-2.1v-0.4c0-0.6,0-1.5-0.6-1.7
					c-0.4-0.1-0.9-0.1-1.3-0.1h-0.3C1414.7-100.4,1414.3-100.4,1414.3-100.4z M1414.3-101.9h1.5c0.6,0,1.1-0.4,1.1-1.4
					c0-1.1-0.5-1.3-1.2-1.3h-1.4V-101.9z"/>
			</g>
			<g id="XMLID_157_">
				<path style="fill:#1D3767;" d="M1424.6-101.9c0.1-2.6,0.3-4.5,3.3-4.5s3.2,1.9,3.3,4.5v1.4c0,2.7-0.2,4.6-3.3,4.6
					c-3.1,0-3.3-2-3.3-4.6V-101.9z M1426.5-99.6c0,0.8,0.1,2.2,1.4,2.2s1.4-1.4,1.4-2.3v-2.7c0-0.9,0-2.5-1.4-2.5
					c-1.3,0-1.4,1.3-1.4,2.2v0.4V-99.6z"/>
			</g>
			<g id="XMLID_155_">
				<path style="fill:#1D3767;" d="M1441.4-106.2h1.9v10.1h-2l-1.5-3.6c-0.5-1.2-0.9-2.4-1.3-4l0,0c0.1,0.8,0.1,1.9,0.2,2.9
					s0.1,2,0.1,2.8v1.9h-1.9v-10.1h1.9l1.5,3.7c0.5,1.2,0.9,2.4,1.3,4l0,0c-0.1-0.9-0.1-1.9-0.2-2.9s-0.1-1.9-0.1-2.8L1441.4-106.2
					L1441.4-106.2z"/>
			</g>
			<g id="XMLID_152_">
				<path style="fill:#1D3767;" d="M1448.4-96.1l2.4-10.1h2.5l2.3,10.1h-2l-0.5-2.6h-2.2l-0.5,2.6H1448.4z M1451.2-100.1h1.6
					l-0.5-2.9c-0.1-0.5-0.1-0.9-0.2-1.4c0-0.2,0-0.5-0.1-0.7l0,0c0,0.2-0.1,0.4-0.1,0.7c-0.1,0.5-0.1,0.9-0.2,1.4L1451.2-100.1z"/>
			</g>
			<g id="XMLID_150_">
				<path style="fill:#1D3767;" d="M1465.2-106.2h1.9v7c0,2.2-0.7,3.3-3.2,3.3s-3.2-1.1-3.2-3.3v-7h1.9v6.9c0,1,0.1,1.9,1.3,1.9
					c1.2,0,1.3-1,1.3-1.9L1465.2-106.2L1465.2-106.2z"/>
			</g>
			<g id="XMLID_148_">
				<path style="fill:#1D3767;" d="M1472.2-106.2h6.3v1.5h-2.2v8.6h-1.9v-8.6h-2.2L1472.2-106.2L1472.2-106.2z"/>
			</g>
			<g id="XMLID_146_">
				<path style="fill:#1D3767;" d="M1483.6-96.1v-10.1h1.9v10.1H1483.6z"/>
			</g>
			<g id="XMLID_144_">
				<path style="fill:#1D3767;" d="M1497.3-99.7c0,0.2,0,0.4,0,0.6c-0.1,1.8-0.7,3.2-2.8,3.2c-3.1,0-3.3-2-3.3-4.6v-1.4
					c0.1-2.6,0.3-4.5,3.3-4.5c1.7,0,2.6,0.9,2.8,2.6c0,0.2,0,0.4,0,0.6v0.1h-1.9c-0.1-0.6,0-1.9-0.9-1.9c-1.3,0-1.4,1.3-1.4,2.2v3.2
					c0,0.8,0.1,2.2,1.4,2.2c1,0,0.9-1.7,1-2.3L1497.3-99.7L1497.3-99.7z"/>
			</g>
			<g id="XMLID_142_">
				<path style="fill:#1D3767;" d="M1506.7-103.1L1506.7-103.1c0-0.9-0.1-1.7-1.1-1.7c-0.6,0-1,0.2-1,0.9c0,0.8,0.5,1.1,1.1,1.4
					c0.6,0.4,1.8,1.1,2.3,1.6c0.6,0.6,0.8,1.2,0.8,2.1c0,1.9-1.3,2.9-3.1,2.9c-2.3,0-3.1-1.3-3.1-3.1v-0.7h1.9v0.8
					c0,0.9,0.3,1.5,1.2,1.5c0.8,0,1.2-0.4,1.2-1.2c0-0.6-0.3-1-0.8-1.3c-1-0.8-2.2-1.3-3-2.3c-0.3-0.5-0.5-1-0.5-1.5
					c0-1.7,1-2.7,3-2.7c3,0,2.9,2.3,2.9,3.3L1506.7-103.1L1506.7-103.1z"/>
			</g>
		</g>
		<g id="XMLID_132_">
			<g id="XMLID_133_">
				<path style="fill:#868589;" d="M1436.5-73v-2.8h0.6v2.8H1436.5L1436.5-73z M1436.5-90h3.8v17h3.3v-17h4.4v-2.8h-11.5L1436.5-90
					L1436.5-90z M1449.4-92.8h3.3V-73h-3.3V-92.8z M1389.4-92.8h4.9l3.9,14.3l4-14.3h4.6V-73h-3.1v-16.9L1399-73h-2.4l-4.6-16.9V-73
					h-2.7L1389.4-92.8L1389.4-92.8z M1436.5-92.8v2.8h-0.6v-2.8H1436.5L1436.5-92.8z M1436.5-75.8h-6.4v-17h-3.3V-73h9.7
					L1436.5-75.8L1436.5-75.8z M1410.6-92.8h3.2v12.3c0,1.4,0.1,2.4,0.2,3c0.1,0.7,0.5,1.2,1,1.6s1.2,0.6,2.1,0.6
					c0.8,0,1.5-0.2,1.9-0.5c0.5-0.3,0.8-0.8,1-1.3c0.2-0.6,0.3-1.7,0.3-3.4v-12.3h2.9v12c0,1.9-0.1,3.4-0.4,4.5
					c-0.3,1-0.9,1.9-1.9,2.6s-2.3,1-4,1c-1.3,0-2.4-0.2-3.4-0.6s-1.7-1.1-2.2-2.1s-0.7-2.7-0.7-5.1V-92.8z"/>
			</g>
		</g>
		<g id="XMLID_117_">
			<g id="XMLID_129_">
				<path style="fill:#868589;" d="M1418-63.2h0.3v-0.3c0-0.5,0-1.1-0.1-1.5c-0.1-0.5-0.1-0.9-0.2-1.2l0,0c-0.2-0.5-0.4-1-0.7-1.3
					c-0.1-0.1-0.1-0.2-0.2-0.2c-0.1-0.1-0.1-0.1-0.2-0.2l0,0l0,0c-0.3-0.2-0.6-0.4-0.9-0.5s-0.7-0.2-1.1-0.2c-0.3,0-0.6,0-0.9,0.1
					c-0.2,0.1-0.4,0.1-0.6,0.2c-0.5,0.2-0.9,0.6-1.2,1c-0.3,0.4-0.5,0.8-0.7,1.3l0,0c0,0.1-0.1,0.2-0.1,0.3l0,0
					c-0.2,0.6-0.2,1.3-0.2,2.1l0,0l0,0c0,0.8,0.1,1.4,0.2,2c0.2,0.6,0.4,1.1,0.7,1.5c0.5,0.6,1.1,1,1.8,1.2c0.3,0.1,0.6,0.1,0.9,0.1
					l0,0c0.9,0,1.7-0.3,2.2-0.8c0.6-0.5,1-1.3,1.2-2.3l0.1-0.3h-0.3l-1.6-0.2h-0.3l-0.1,0.3c-0.1,0.5-0.2,0.9-0.5,1.1l0,0
					c-0.2,0.2-0.4,0.3-0.7,0.3l0,0c-0.2,0-0.4,0-0.5-0.1c-0.2-0.1-0.3-0.2-0.4-0.4c-0.2-0.3-0.4-0.9-0.4-1.9h0.4h4.1V-63.2z
					 M1413.6-65.1c0.1-0.5,0.2-0.9,0.3-1.2c0.1-0.2,0.2-0.3,0.3-0.4c0.1,0,0.1-0.1,0.2-0.1s0.2,0,0.3,0l0,0l0,0l0,0l0,0
					c0.4,0,0.6,0.1,0.8,0.4c0.2,0.3,0.3,0.7,0.3,1.3h-2C1413.8-65.1,1413.6-65.1,1413.6-65.1z"/>
			</g>
			<g id="XMLID_128_">
				<path style="fill:#868589;" d="M1437.4-68.3L1437.4-68.3c-0.1,0-0.1,0-0.2,0c-0.7,0-1.3,0.4-1.8,1.1v-0.6v-0.3h-0.3h-1.5h-0.3
					v0.3v8.8v0.3h0.3h1.8h0.3v-0.4v-4.5c0-0.8,0.1-1.4,0.4-1.8c0.2-0.3,0.6-0.5,1.1-0.5l0,0c0.1,0,0.1,0,0.2,0l0,0l0,0l0,0h0.1l0,0
					h0.3v-0.2V-68v-0.3L1437.4-68.3C1437.5-68.3,1437.4-68.3,1437.4-68.3z"/>
			</g>
			<g id="XMLID_127_">
				<path style="fill:#868589;" d="M1395.5-63.8c-0.2-0.2-0.5-0.4-0.8-0.6s-0.7-0.4-1.2-0.5l0,0c-0.4-0.1-0.6-0.2-0.9-0.3
					c-0.2-0.1-0.4-0.2-0.4-0.2l0,0c-0.1-0.1-0.1-0.1-0.1-0.2l0,0c0-0.1-0.1-0.2-0.1-0.3c0-0.1,0-0.2,0.1-0.3c0,0,0-0.1,0.1-0.1
					l0.1-0.1l0,0l0,0c0.1-0.1,0.1-0.1,0.2-0.2l0,0c0.1,0,0.2-0.1,0.3-0.1c0.3,0,0.5,0.1,0.7,0.2c0.2,0.2,0.3,0.5,0.5,0.8l0.1,0.3
					l0.3-0.1l1.4-0.4l0.3-0.1l-0.1-0.3c-0.2-0.8-0.6-1.4-1.1-1.9c-0.5-0.4-1.2-0.6-1.9-0.6c-0.7,0-1.2,0.2-1.7,0.5
					c-0.1,0.1-0.2,0.1-0.3,0.2c-0.1,0.1-0.2,0.1-0.3,0.2l0,0l0,0l0,0c-0.6,0.6-0.9,1.3-0.9,2.1l0,0c0,0.3,0,0.5,0.1,0.7
					s0.2,0.5,0.3,0.7l0,0c0.1,0.2,0.3,0.4,0.4,0.5c0.2,0.2,0.3,0.3,0.5,0.4l0,0c0.2,0.1,0.4,0.2,0.7,0.3c0.3,0.1,0.6,0.2,0.9,0.3
					l0,0c0.5,0.2,0.8,0.3,1,0.4l0,0c0,0,0.1,0,0.1,0.1l0,0l0,0l0,0l0,0c0.1,0.1,0.1,0.2,0.1,0.2c0,0.1,0,0.1,0,0.2
					c0,0.1,0,0.2-0.1,0.3c0,0.1-0.1,0.2-0.2,0.3c-0.2,0.2-0.4,0.3-0.8,0.3s-0.7-0.1-0.9-0.3c-0.2-0.2-0.4-0.5-0.5-1l-0.1-0.3
					l-0.3,0.1l-1.5,0.3l-0.3,0.1v0.3c0.1,0.9,0.5,1.6,1.1,2.1s1.3,0.7,2.3,0.7c0.7,0,1.4-0.2,1.9-0.5c0.1-0.1,0.2-0.1,0.3-0.2
					c0.1-0.1,0.2-0.2,0.3-0.2l0,0l0,0l0,0c0.3-0.2,0.5-0.5,0.6-0.8c0-0.1,0.1-0.1,0.1-0.2c0.2-0.4,0.2-0.8,0.2-1.2l0,0
					c0-0.4-0.1-0.7-0.2-1C1395.9-63.3,1395.7-63.6,1395.5-63.8z"/>
			</g>
			<g id="XMLID_126_">
				<path style="fill:#868589;" d="M1542.5-63.8c-0.2-0.2-0.5-0.4-0.8-0.6s-0.7-0.4-1.2-0.5l0,0c-0.3-0.1-0.6-0.2-0.9-0.3
					c-0.2-0.1-0.3-0.2-0.4-0.2l0,0c-0.1-0.1-0.1-0.1-0.1-0.2l0,0c0-0.1-0.1-0.2-0.1-0.3c0-0.1,0-0.2,0.1-0.3c0,0,0-0.1,0.1-0.1
					l0.1-0.1l0,0l0,0c0.1-0.1,0.1-0.1,0.2-0.2l0,0c0.1,0,0.2-0.1,0.3-0.1c0.3,0,0.5,0.1,0.7,0.2c0.2,0.2,0.3,0.5,0.5,0.8l0.1,0.3
					l0.3-0.1l1.4-0.4l0.3-0.1l-0.1-0.3c-0.2-0.8-0.6-1.4-1.1-1.9c-0.5-0.4-1.2-0.6-1.9-0.6c-0.7,0-1.2,0.2-1.7,0.5
					c-0.1,0.1-0.2,0.1-0.3,0.2c-0.1,0.1-0.2,0.1-0.3,0.2l0,0l0,0l0,0c-0.6,0.6-0.9,1.3-0.9,2.1l0,0c0,0.3,0,0.5,0.1,0.7
					s0.2,0.5,0.3,0.7l0,0c0.1,0.2,0.3,0.4,0.4,0.5c0.2,0.2,0.3,0.3,0.5,0.4l0,0c0.2,0.1,0.4,0.2,0.7,0.3c0.3,0.1,0.6,0.2,0.9,0.3
					l0,0c0.5,0.2,0.8,0.3,1,0.4l0,0c0,0,0.1,0,0.1,0.1l0,0l0,0l0,0l0,0c0.1,0.1,0.1,0.2,0.1,0.2c0,0.1,0,0.1,0,0.2
					c0,0.1,0,0.2-0.1,0.3c0,0.1-0.1,0.2-0.2,0.3c-0.2,0.2-0.4,0.3-0.8,0.3s-0.7-0.1-0.9-0.3c-0.2-0.2-0.4-0.5-0.5-1l-0.1-0.3
					l-0.3,0.1l-1.5,0.3l-0.3,0.1v0.3c0.1,0.9,0.5,1.6,1.1,2.1s1.3,0.7,2.3,0.7c0.7,0,1.4-0.2,1.9-0.5c0.1-0.1,0.2-0.1,0.3-0.2
					c0.1-0.1,0.2-0.2,0.3-0.2l0,0l0,0l0,0c0.3-0.2,0.5-0.5,0.6-0.8c0-0.1,0.1-0.1,0.1-0.2c0.2-0.4,0.2-0.8,0.2-1.2l0,0
					c0-0.4-0.1-0.7-0.2-1C1542.9-63.3,1542.7-63.6,1542.5-63.8z"/>
			</g>
			<g id="XMLID_125_">
				<path style="fill:#868589;" d="M1496.9-64.7v0.3h0.3l1.7-0.2h0.3v-0.3c-0.1-1.1-0.5-2-1-2.5c-0.6-0.6-1.3-0.9-2.3-0.9
					c-0.8,0-1.6,0.2-2.1,0.7c-0.1,0.1-0.2,0.2-0.3,0.3c-0.1,0.1-0.2,0.2-0.3,0.3l0,0l0,0c-0.3,0.4-0.5,0.9-0.7,1.6
					c-0.1,0.6-0.2,1.3-0.2,2.1l0,0c0,0.7,0.1,1.4,0.2,2s0.3,1.1,0.6,1.5l0,0c0.3,0.5,0.7,0.8,1.1,1s1,0.3,1.6,0.3
					c1,0,1.8-0.3,2.4-0.9c0.6-0.6,0.9-1.5,1-2.6v-0.3h-0.3l-1.7-0.2h-0.3v0.3c0,0.6-0.2,1-0.3,1.3c-0.1,0.2-0.4,0.3-0.6,0.3
					c-0.4,0-0.6-0.2-0.8-0.6c-0.2-0.4-0.3-1.1-0.3-2c0-0.6,0-1.1,0.1-1.5s0.1-0.7,0.2-0.9l0,0c0.1-0.2,0.2-0.3,0.3-0.4
					c0.1-0.1,0.3-0.1,0.5-0.1s0.4,0,0.5,0.1l0,0c0,0,0,0,0.1,0.1c0,0,0,0,0.1,0.1l0,0l0,0c0.1,0.2,0.2,0.4,0.3,0.8l0,0
					C1497-64.9,1497-64.8,1496.9-64.7C1496.9-64.9,1496.9-64.8,1496.9-64.7L1496.9-64.7L1496.9-64.7z"/>
			</g>
			<g id="XMLID_122_">
				<path style="fill:#868589;" d="M1519.5-62.3h-0.3l-0.1,0.3c-0.1,0.5-0.2,0.8-0.4,1.1c-0.2,0.2-0.4,0.3-0.7,0.3l0,0
					c-0.2,0-0.4,0-0.5-0.1c-0.2-0.1-0.3-0.2-0.4-0.4l0,0c-0.2-0.3-0.4-0.9-0.4-1.9h0.4h4.1h0.3v-0.3c0-0.6,0-1.1-0.1-1.5
					c-0.1-0.5-0.1-0.9-0.2-1.2c-0.2-0.5-0.4-1-0.7-1.4c-0.1-0.1-0.1-0.2-0.2-0.2c-0.1-0.1-0.1-0.1-0.2-0.2l0,0
					c-0.3-0.2-0.6-0.4-0.9-0.5s-0.7-0.2-1.1-0.2c-0.3,0-0.6,0-0.9,0.1c-0.2,0.1-0.4,0.1-0.6,0.2c-0.5,0.2-0.9,0.6-1.2,1
					c-0.3,0.4-0.5,0.8-0.7,1.3l0,0c0,0.1-0.1,0.2-0.1,0.3l0,0c-0.2,0.6-0.2,1.3-0.2,2.1l0,0l0,0c0,0.8,0.1,1.4,0.2,2
					c0.2,0.6,0.4,1.1,0.7,1.5c0.5,0.6,1.1,1,1.8,1.2c0.3,0.1,0.6,0.1,0.9,0.1l0,0c0.9,0,1.7-0.3,2.2-0.8c0.6-0.5,1-1.3,1.2-2.3
					l0.1-0.3h-0.3L1519.5-62.3z M1517-66.1c0.1-0.2,0.2-0.3,0.3-0.4c0.1,0,0.1-0.1,0.2-0.1s0.2,0,0.3,0l0,0l0,0
					c0.4,0,0.6,0.1,0.8,0.4c0.2,0.3,0.3,0.7,0.3,1.3h-2h-0.3C1516.8-65.4,1516.9-65.8,1517-66.1z"/>
			</g>
			<g id="XMLID_119_">
				<g id="XMLID_121_">
					<polygon style="fill:#868589;" points="1475.3,-67.8 1475,-67.8 1475,-67.5 1475,-58.7 1475,-58.4 1475.3,-58.4 1477,-58.4 
						1477.3,-58.4 1477.3,-58.7 1477.3,-67.5 1477.3,-67.8 1477,-67.8 					"/>
				</g>
				<g id="XMLID_120_">
					<polygon style="fill:#868589;" points="1475.2,-70.9 1474.9,-70.9 1474.9,-70.6 1474.9,-68.7 1474.9,-68.4 1475.2,-68.4 
						1477.1,-68.4 1477.4,-68.4 1477.4,-68.7 1477.4,-70.6 1477.4,-70.9 1477.1,-70.9 					"/>
				</g>
			</g>
			<g id="XMLID_118_">
				<polygon style="fill:#868589;" points="1458.1,-67.8 1457.8,-67.8 1457.8,-67.6 1456.5,-62.5 1455.2,-67.6 1455.2,-67.8 
					1454.9,-67.8 1453.2,-67.8 1452.8,-67.8 1452.9,-67.4 1455.3,-58.6 1455.4,-58.4 1455.6,-58.4 1457.2,-58.4 1457.4,-58.4 
					1457.5,-58.6 1459.9,-67.4 1460,-67.8 1459.6,-67.8 				"/>
			</g>
		</g>
		<g id="XMLID_17_">
			<g id="XMLID_101_">
				<path style="fill:#1D3767;" d="M1498.1-82.5c0-2.4-0.3-4.3-0.8-5.8s-1.3-2.7-2.4-3.6c-1.2-0.9-2.6-1.4-4.3-1.4
					c-0.1,0-0.1,0-0.2,0c-2.3,0-4.2,1-5.6,2.7c-1.4,1.8-2.2,4.4-2.2,7.8c0,3.3,0.7,5.7,2.1,7.4c1.4,1.7,3.3,2.5,5.6,2.5h0.1
					c3.9,0,6.4-2.1,7.3-6.2l-3.7-0.5c-0.5,2.4-1.6,3.6-3.5,3.6c-0.1,0-0.2,0-0.3,0c-1-0.1-1.8-0.5-2.5-1.3c-0.7-0.9-1.1-2.6-1.1-5.3
					h3.6h7.9V-82.5z M1486.9-85.2c0.2-3.4,1.4-5.1,3.5-5.1l0,0c2.3,0,3.4,1.7,3.4,5.1h-3.5H1486.9z"/>
			</g>
			<g id="XMLID_88_">
				<path style="fill:#1D3767;" d="M1476.8-92.5c-0.8-0.5-1.8-0.8-3-0.8c-2.4,0-4.1,1.2-5,3.6c-0.5-2.4-2-3.6-4.5-3.6
					c-2.3,0-3.9,1.1-4.9,3.4v-3h-3.8v19.5h4.1v-11.3c0-1.9,0.2-3.3,0.7-4.1c0.5-0.8,1.3-1.3,2.4-1.3c0.6,0,1.1,0.1,1.4,0.4
					c0.4,0.3,0.6,0.7,0.8,1.2c0.1,0.5,0.2,1.6,0.2,3.3v11.9h4.1v-11.4c0-3.5,1-5.3,3.1-5.3c1,0,1.6,0.3,1.9,1s0.5,1.9,0.5,3.7v12
					h4.1v-12.3c0-2.4-0.2-4-0.5-4.8C1478.2-91.3,1477.6-92,1476.8-92.5z"/>
			</g>
			<g id="XMLID_76_">
				<rect x="1520.5" y="-99.7" style="fill:#1D3767;" width="4.3" height="4.3"/>
			</g>
			<g id="XMLID_45_">
				<path style="fill:#1D3767;" d="M1511.8-90.6c-0.7-1.4-1.9-2.3-3.5-2.5c-0.3,0-0.7-0.1-1-0.1c-2.1,0-3.7,0.9-4.9,2.7
					c-1.2,1.8-1.9,4.3-1.9,7.5c0,3,0.6,5.4,1.7,7.2c1.1,1.8,2.8,2.8,5,2.8c0.4,0,0.8,0,1.1-0.1c1.7-0.3,3-1.4,3.8-3.2v3h3.8v-33.4
					h-4.1V-90.6z M1511.8-81.5c0,2-0.4,3.4-1.1,4.2c-0.7,0.8-1.5,1.2-2.4,1.2l0,0c-2.3,0-3.5-2.4-3.5-7.3c0-4.6,1.1-6.9,3.4-6.9
					c0,0,0,0,0.1,0c0.8,0,1.6,0.4,2.3,1.2c0.8,0.8,1.2,2.2,1.2,4.2V-81.5z"/>
			</g>
			<g id="XMLID_23_">
				<path style="fill:#1D3767;" d="M1543.4-78.7v-6.6c0-2-0.1-3.4-0.4-4.4s-0.9-1.8-2-2.5s-2.5-1-4.3-1c-0.2,0-0.4,0-0.7,0
					c-1.7,0.1-3.2,0.6-4.4,1.4c-1.4,1-2.2,2.3-2.4,4.1l3.9,0.5c0.3-1.9,1.3-2.9,2.9-3c0.1,0,0.2,0,0.3,0c1.1,0,1.9,0.4,2.3,1.1
					s0.6,1.8,0.6,3.1v0.8c-0.4,0-0.7,0-0.9,0c-0.9,0-1.7,0-2.4,0.1c-2.4,0.2-4.2,0.8-5.3,1.8c-1.5,1.2-2.2,2.9-2.2,5
					c0,1.7,0.5,3.1,1.5,4.1s2.4,1.5,4,1.5c0.7,0,1.4-0.1,2-0.3c1.5-0.5,2.7-1.6,3.6-3.4c0,1.5,0.1,2.5,0.3,3.2h3.9
					C1543.5-74.2,1543.4-76,1543.4-78.7z M1539.4-81.9c0,1.9-0.4,3.4-1.2,4.5c-0.6,0.9-1.3,1.4-2.1,1.6c-0.2,0-0.4,0.1-0.6,0.1
					c-1.8,0-2.6-1-2.6-3c0-2.1,1.1-3.5,3.3-3.9c0.6-0.1,1.3-0.2,2.1-0.2c0.3,0,0.7,0,1.2,0.1v0.8H1539.4z"/>
			</g>
			<g id="XMLID_19_">
				<rect x="1520.6" y="-92.8" style="fill:#1D3767;" width="4.1" height="19.5"/>
			</g>
		</g>
	</g>
</g>
</svg>
