<?xml version="1.0" encoding="utf-8"?>
<!-- Generator: Adobe Illustrator 19.0.0, SVG Export Plug-In . SVG Version: 6.00 Build 0)  -->
<svg  class="MS-title--section MS-title--holdingGroup" version="1.1" id="Capa_1" xmlns="http://www.w3.org/2000/svg" xmlns:xlink="http://www.w3.org/1999/xlink" x="0px" y="0px"
	 viewBox="0 0 248.8 77.1" style="enable-background:new 0 0 248.8 77.1;" xml:space="preserve">
	<g id="MS_x5F_home--proyectosRecientes">
		<g id="XMLID_119_">
			<g id="XMLID_229_">
				<path id="XMLID_249_" style="fill:#353140;" d="M19.9,3.5c2.4,1.8,3.6,4.6,3.6,8.3c0,3.8-1.2,6.7-3.6,8.6
					c-2.4,1.9-5.6,2.9-9.6,2.9H6.4v12H0V0.8h9.9C14.2,0.8,17.5,1.7,19.9,3.5z M15,16.8c1.2-1,1.7-2.7,1.7-5.1c0-4.1-2.3-6.2-6.9-6.2
					H6.4v12.7h3.4C12.1,18.3,13.9,17.8,15,16.8z"/>
				<path id="XMLID_246_" style="fill:#353140;" d="M39.1,21.5h-4.1v13.8h-6.4V0.8h10c8.9,0,13.3,3.4,13.3,10.1
					c0,2.3-0.5,4.2-1.6,5.7c-1.1,1.5-2.8,2.7-5.1,3.7l8.8,15h-7.4L39.1,21.5z M35.1,16.7h4c2,0,3.6-0.5,4.6-1.4
					c1-0.9,1.6-2.4,1.6-4.4c0-1.9-0.5-3.2-1.6-4.1c-1.1-0.9-2.8-1.3-5.1-1.3h-3.4V16.7z"/>
				<path id="XMLID_243_" style="fill:#353140;" d="M78.4,2.1c2.2,1.4,3.9,3.5,5.1,6.2s1.8,6,1.8,9.8c0,3.8-0.6,7-1.8,9.7
					c-1.2,2.7-2.9,4.8-5.1,6.2c-2.2,1.4-4.8,2.2-7.8,2.2c-3,0-5.6-0.7-7.8-2.1c-2.2-1.4-3.9-3.5-5.1-6.2s-1.8-6-1.8-9.8
					c0-3.7,0.6-7,1.8-9.7s2.9-4.8,5.1-6.2C65.1,0.7,67.6,0,70.6,0C73.6,0,76.2,0.7,78.4,2.1z M64.7,8.2c-1.4,2.1-2,5.4-2,9.9
					c0,8.6,2.7,13,8,13c2.6,0,4.6-1,5.9-3.1c1.3-2.1,2-5.4,2-9.9c0-4.5-0.7-7.8-2-9.9C75.2,6.1,73.2,5,70.6,5C68,5,66.1,6.1,64.7,8.2
					z"/>
				<path id="XMLID_241_" style="fill:#353140;" d="M113.7,0.8l-10.8,21.5v13.1h-6.5v-13L85.6,0.8h7.1l7.1,16l7.1-16H113.7z"/>
				<path id="XMLID_239_" style="fill:#353140;" d="M136.9,0.8l-0.7,4.9h-12.4v9.7h10.8v4.9h-10.8v10.1h13.2v5h-19.6V0.8H136.9z"/>
				<path id="XMLID_237_" style="fill:#353140;" d="M160.7,0.9c1.5,0.6,3,1.5,4.5,2.8l-3.3,3.9c-2-1.6-4-2.5-6.2-2.5
					c-2.5,0-4.5,1-6,3.1s-2.3,5.3-2.3,9.8c0,4.3,0.7,7.5,2.2,9.6c1.5,2.1,3.5,3.2,6,3.2c1.3,0,2.5-0.2,3.5-0.7c1-0.5,2.1-1.2,3.3-2.1
					l3,3.9c-1.1,1.2-2.6,2.2-4.3,3c-1.7,0.8-3.7,1.2-5.8,1.2c-2.9,0-5.5-0.7-7.7-2.1c-2.2-1.4-4-3.5-5.2-6.2c-1.2-2.7-1.8-6-1.8-9.8
					c0-3.8,0.6-7,1.9-9.7s3-4.8,5.2-6.2c2.2-1.4,4.7-2.1,7.5-2.1C157.4,0,159.2,0.3,160.7,0.9z"/>
				<path id="XMLID_235_" style="fill:#353140;" d="M191.2,0.8L190.5,6h-8.7v29.3h-6.5V6h-9V0.8H191.2z"/>
				<path id="XMLID_232_" style="fill:#353140;" d="M214.3,2.1c2.2,1.4,3.9,3.5,5.1,6.2c1.2,2.7,1.8,6,1.8,9.8c0,3.8-0.6,7-1.8,9.7
					c-1.2,2.7-2.9,4.8-5.1,6.2c-2.2,1.4-4.8,2.2-7.8,2.2c-3,0-5.6-0.7-7.8-2.1c-2.2-1.4-3.9-3.5-5.1-6.2c-1.2-2.7-1.8-6-1.8-9.8
					c0-3.7,0.6-7,1.8-9.7c1.2-2.7,2.9-4.8,5.1-6.2c2.2-1.4,4.8-2.1,7.8-2.1C209.5,0,212.1,0.7,214.3,2.1z M200.6,8.2
					c-1.4,2.1-2,5.4-2,9.9c0,8.6,2.7,13,8,13c2.6,0,4.6-1,5.9-3.1c1.3-2.1,2-5.4,2-9.9c0-4.5-0.7-7.8-2-9.9C211,6.1,209.1,5,206.5,5
					C203.9,5,201.9,6.1,200.6,8.2z"/>
				<path id="XMLID_230_" style="fill:#353140;" d="M243,1c1.7,0.7,3.4,1.8,4.9,3.2L244.7,8c-1.2-1-2.4-1.8-3.6-2.3
					c-1.2-0.5-2.5-0.7-3.9-0.7c-1.6,0-2.8,0.4-3.8,1.1c-1,0.7-1.4,1.7-1.4,3c0,0.9,0.2,1.6,0.6,2.2c0.4,0.6,1,1.1,2,1.6
					s2.4,1.1,4.3,1.7c3.3,1.1,5.8,2.4,7.4,4c1.7,1.6,2.5,3.9,2.5,6.9c0,2.1-0.5,3.9-1.5,5.5c-1,1.6-2.5,2.8-4.4,3.8
					c-1.9,0.9-4.2,1.3-6.8,1.3c-2.6,0-4.8-0.4-6.9-1.3c-2-0.8-3.8-2-5.2-3.5l3.3-3.8c1.3,1.1,2.6,2,4,2.6c1.4,0.6,2.9,0.9,4.6,0.9
					c1.8,0,3.3-0.5,4.5-1.4c1.1-0.9,1.7-2.2,1.7-3.8c0-1-0.2-1.8-0.6-2.5c-0.4-0.7-1.1-1.2-2-1.8c-0.9-0.5-2.3-1.1-4.1-1.6
					c-3.6-1.1-6.1-2.5-7.7-4.1c-1.6-1.6-2.4-3.7-2.4-6.3c0-1.9,0.5-3.6,1.5-5c1-1.4,2.3-2.5,4.1-3.3c1.7-0.8,3.7-1.2,5.9-1.2
					C239.2,0,241.2,0.3,243,1z"/>
			</g>
		</g>
		<g id="XMLID_99_">
			<g id="XMLID_187_">
				<path id="XMLID_204_" style="fill:#353140;" d="M12.5,62.3H4.9v14.3H1.6V44.7h9.1c8.9,0,13.4,2.9,13.4,8.7c0,2.3-0.7,4.1-2.1,5.5
					c-1.4,1.4-3.5,2.3-6.3,2.9l10.3,14.8h-3.9L12.5,62.3z M11.2,60c6.3,0,9.5-2.2,9.5-6.7c0-2.2-0.8-3.8-2.4-4.8
					c-1.6-1-4.1-1.6-7.6-1.6H4.9V60H11.2z"/>
				<path id="XMLID_202_" style="fill:#353140;" d="M53.2,44.7L52.8,47H37.4v11.9h13.4v2.3H37.4v13.1h16.2v2.3H34.1V44.7H53.2z"/>
				<path id="XMLID_200_" style="fill:#353140;" d="M79.7,44.9c1.4,0.5,2.9,1.2,4.4,2.2L82.3,49c-1.3-0.9-2.5-1.5-3.7-1.9
					s-2.5-0.6-4-0.6c-3.6,0-6.4,1.2-8.7,3.4c-2.2,2.3-3.3,5.8-3.3,10.6c0,3.1,0.5,5.7,1.5,7.8c1,2.1,2.4,3.7,4.2,4.7
					c1.8,1,3.8,1.5,6.1,1.5c1.8,0,3.3-0.2,4.6-0.7c1.2-0.5,2.5-1.1,3.8-2l1.7,1.8c-2.8,2.2-6.1,3.3-10.2,3.3c-2.9,0-5.5-0.6-7.8-1.9
					c-2.3-1.3-4.1-3.1-5.4-5.6c-1.3-2.5-2-5.5-2-9c0-3.5,0.7-6.5,2-9s3.2-4.3,5.5-5.6c2.3-1.3,4.9-1.9,7.7-1.9
					C76.5,44.2,78.3,44.4,79.7,44.9z"/>
				<path id="XMLID_198_" style="fill:#353140;" d="M95.2,44.7v31.9h-3.3V44.7H95.2z"/>
				<path id="XMLID_196_" style="fill:#353140;" d="M126.5,44.7l-0.4,2.3h-15.5v11.9h13.4v2.3h-13.4v13.1h16.2v2.3h-19.5V44.7H126.5z
					"/>
				<path id="XMLID_194_" style="fill:#353140;" d="M160.4,76.6H156l-17.8-28.9c0.3,3.9,0.4,7.6,0.4,11v17.9h-3.1V44.7h4.2l17.9,28.9
					c-0.3-3.6-0.4-6.8-0.4-9.5V44.7h3.1V76.6z"/>
				<path id="XMLID_192_" style="fill:#353140;" d="M193.1,44.7l-0.4,2.5h-11.1v29.5h-3.2V47.2h-11.2v-2.5H193.1z"/>
				<path id="XMLID_190_" style="fill:#353140;" d="M218.9,44.7l-0.4,2.3h-15.5v11.9h13.4v2.3h-13.4v13.1h16.2v2.3h-19.5V44.7H218.9z
					"/>
				<path id="XMLID_188_" style="fill:#353140;" d="M241.9,45.1c1.7,0.6,3.3,1.5,4.9,2.7l-1.9,1.8c-1.4-1-2.8-1.8-4.2-2.2
					c-1.4-0.5-2.9-0.7-4.6-0.7c-2.3,0-4.2,0.5-5.7,1.5c-1.4,1-2.1,2.3-2.1,3.9c0,1.1,0.3,2,0.8,2.8c0.5,0.7,1.4,1.4,2.7,2
					c1.2,0.6,3,1.2,5.3,1.7c2.5,0.7,4.5,1.4,6,2.1c1.5,0.7,2.7,1.7,3.6,2.9c0.8,1.2,1.3,2.7,1.3,4.5c0,1.8-0.5,3.4-1.5,4.8
					c-1,1.4-2.5,2.5-4.4,3.3c-1.9,0.8-4.1,1.2-6.6,1.2c-4.7,0-8.7-1.3-12-4l1.9-1.8c1.5,1.1,3.1,2,4.7,2.5c1.6,0.6,3.4,0.9,5.4,0.9
					c2.7,0,4.9-0.6,6.6-1.8c1.7-1.2,2.6-2.9,2.6-4.9c0-1.3-0.3-2.4-0.9-3.2c-0.6-0.8-1.5-1.6-2.8-2.2c-1.3-0.6-3.1-1.2-5.4-1.8
					c-3.9-1-6.6-2.1-8.3-3.4c-1.7-1.3-2.5-3.1-2.5-5.3c0-1.5,0.5-2.8,1.4-4c0.9-1.2,2.2-2.1,3.9-2.8c1.7-0.7,3.6-1,5.7-1
					C238.3,44.2,240.3,44.5,241.9,45.1z"/>
			</g>
		</g>
	</g>
</svg>
