<?xml version="1.0" encoding="utf-8"?>
<!-- Generator: Adobe Illustrator 19.0.0, SVG Export Plug-In . SVG Version: 6.00 Build 0)  -->
<svg version="1.1" id="Capa_1" xmlns="http://www.w3.org/2000/svg" xmlns:xlink="http://www.w3.org/1999/xlink" x="0px" y="0px"
	 viewBox="0 0 282.9 36.2" style="enable-background:new 0 0 282.9 36.2;" xml:space="preserve">
	<g id="MS_x5F_home--hologramas">
		<path id="XMLID_42_" style="fill:#353140;" d="M19,35.4V19.9H6.6v15.5H0V0.8h6.6v13.9H19V0.8h6.7v34.7H19z"/>
		<path id="XMLID_44_" style="fill:#353140;" d="M55.1,2.1c2.3,1.4,4,3.5,5.2,6.2c1.2,2.7,1.8,6,1.8,9.8c0,3.8-0.6,7-1.9,9.7
			c-1.2,2.7-3,4.8-5.3,6.2c-2.3,1.4-5,2.2-8,2.2c-3.1,0-5.8-0.7-8.1-2.1c-2.3-1.4-4-3.5-5.3-6.2c-1.2-2.7-1.9-6-1.9-9.8
			c0-3.7,0.6-7,1.9-9.7c1.2-2.7,3-4.8,5.3-6.2C41.3,0.7,43.9,0,47,0C50.1,0,52.8,0.7,55.1,2.1z M40.9,8.2c-1.4,2.1-2.1,5.4-2.1,9.9
			c0,8.7,2.7,13,8.2,13c2.7,0,4.7-1,6.1-3.1c1.4-2.1,2.1-5.4,2.1-9.9c0-4.5-0.7-7.8-2.1-9.9c-1.4-2.1-3.4-3.1-6.1-3.1
			C44.3,5.1,42.3,6.1,40.9,8.2z"/>
		<path id="XMLID_47_" style="fill:#353140;" d="M75,0.8V30h13.9l-0.8,5.4H68.4V0.8H75z"/>
		<path id="XMLID_49_" style="fill:#353140;" d="M113,2.1c2.3,1.4,4,3.5,5.2,6.2c1.2,2.7,1.8,6,1.8,9.8c0,3.8-0.6,7-1.9,9.7
			c-1.2,2.7-3,4.8-5.3,6.2c-2.3,1.4-5,2.2-8,2.2c-3.1,0-5.8-0.7-8.1-2.1c-2.3-1.4-4-3.5-5.3-6.2c-1.2-2.7-1.9-6-1.9-9.8
			c0-3.7,0.6-7,1.9-9.7c1.2-2.7,3-4.8,5.3-6.2c2.3-1.4,5-2.2,8.1-2.2C108,0,110.7,0.7,113,2.1z M98.8,8.2c-1.4,2.1-2.1,5.4-2.1,9.9
			c0,8.7,2.7,13,8.2,13c2.7,0,4.7-1,6.1-3.1c1.4-2.1,2.1-5.4,2.1-9.9c0-4.5-0.7-7.8-2.1-9.9c-1.4-2.1-3.4-3.1-6.1-3.1
			C102.3,5.1,100.2,6.1,98.8,8.2z"/>
		<path id="XMLID_52_" style="fill:#353140;" d="M146.4,1c1.8,0.7,3.4,1.7,5,3l-3.6,3.7c-1.2-1-2.4-1.7-3.5-2.1
			c-1.1-0.4-2.4-0.7-3.8-0.7c-2.7,0-4.9,1.1-6.6,3.2c-1.7,2.1-2.6,5.4-2.6,9.8c0,4.6,0.7,7.9,2,10c1.4,2,3.4,3.1,6.2,3.1
			c2.1,0,3.9-0.5,5.5-1.4v-9h-5.2l-0.7-4.9h12.4v17c-3.7,2.3-7.7,3.4-11.9,3.4c-5,0-8.7-1.5-11.4-4.6c-2.6-3.1-3.9-7.6-3.9-13.5
			c0-3.8,0.7-7,2.1-9.8c1.4-2.7,3.3-4.8,5.7-6.2c2.4-1.4,5.1-2.1,8-2.1C142.6,0,144.6,0.3,146.4,1z"/>
		<path id="XMLID_54_" style="fill:#353140;" d="M169.2,21.5h-4.2v13.9h-6.6V0.8h10.3c9.2,0,13.7,3.4,13.7,10.2
			c0,2.3-0.6,4.2-1.7,5.7c-1.1,1.5-2.9,2.7-5.3,3.7l9.1,15.1h-7.6L169.2,21.5z M164.9,16.8h4.1c2.1,0,3.7-0.5,4.8-1.4
			c1.1-0.9,1.6-2.4,1.6-4.4c0-1.9-0.6-3.2-1.7-4.1c-1.1-0.9-2.9-1.3-5.3-1.3h-3.6V16.8z"/>
		<path id="XMLID_57_" style="fill:#353140;" d="M207.3,35.4l-2.2-8h-11.5l-2.2,8h-6.9l10.8-34.7h8.2l10.7,34.7H207.3z M195,22.4h8.8
			l-4.4-16.6L195,22.4z"/>
		<path id="XMLID_60_" style="fill:#353140;" d="M251.1,35.4h-6.5l-0.9-14.5c-0.3-5.2-0.5-9.3-0.5-12.3V6.8L237,31.7h-6.3L224,6.7
			c0.1,2.2,0.1,3.9,0.1,5c0,3-0.1,6.2-0.3,9.4l-0.9,14.3h-6.4l2.8-34.7h8.5l6.2,24.3l5.8-24.3h8.6L251.1,35.4z"/>
		<path id="XMLID_62_" style="fill:#353140;" d="M275.8,35.4l-2.2-8h-11.5l-2.2,8h-6.9L264,0.8h8.2l10.7,34.7H275.8z M263.5,22.4h8.8
			l-4.4-16.6L263.5,22.4z"/>
	</g>
</svg>
