<?xml version="1.0" encoding="utf-8"?>
<!-- Generator: Adobe Illustrator 19.0.0, SVG Export Plug-In . SVG Version: 6.00 Build 0)  -->
<svg version="1.1" id="Capa_1" xmlns="http://www.w3.org/2000/svg" xmlns:xlink="http://www.w3.org/1999/xlink" x="0px" y="0px"
	 viewBox="0 0 205.6 36.2" style="enable-background:new 0 0 205.6 36.2;" xml:space="preserve">
	<g id="MS_x5F_home--agrosim">
		<path id="XMLID_66_" style="fill:#353140;" d="M22.7,35.4l-2.2-8H9l-2.2,8H0L10.8,0.8H19l10.7,34.7H22.7z M10.3,22.4h8.8L14.8,5.8
			L10.3,22.4z"/>
		<path id="XMLID_69_" style="fill:#353140;" d="M53.1,1c1.8,0.7,3.4,1.7,5,3l-3.6,3.7c-1.2-1-2.4-1.7-3.5-2.1C50,5.2,48.7,5,47.3,5
			c-2.7,0-4.9,1.1-6.6,3.2c-1.7,2.1-2.6,5.4-2.6,9.8c0,4.6,0.7,7.9,2,10c1.4,2,3.4,3.1,6.2,3.1c2.1,0,3.9-0.5,5.5-1.4v-9h-5.2
			L46,15.8h12.4v17c-3.7,2.3-7.7,3.4-11.9,3.4c-5,0-8.7-1.5-11.4-4.6c-2.6-3.1-3.9-7.6-3.9-13.5c0-3.8,0.7-7,2.1-9.8
			c1.4-2.7,3.3-4.8,5.7-6.2s5.1-2.1,8-2.1C49.3,0,51.4,0.3,53.1,1z"/>
		<path id="XMLID_71_" style="fill:#353140;" d="M75.9,21.5h-4.2v13.9h-6.6V0.8h10.3c9.2,0,13.8,3.4,13.8,10.2c0,2.3-0.6,4.2-1.7,5.7
			c-1.1,1.5-2.9,2.7-5.3,3.7l9.1,15.1h-7.6L75.9,21.5z M71.7,16.8h4.1c2.1,0,3.7-0.5,4.8-1.4c1.1-0.9,1.6-2.4,1.6-4.4
			c0-1.9-0.6-3.2-1.7-4.1c-1.1-0.9-2.9-1.3-5.3-1.3h-3.6V16.8z"/>
		<path id="XMLID_74_" style="fill:#353140;" d="M116.6,2.1c2.3,1.4,4,3.5,5.2,6.2c1.2,2.7,1.8,6,1.8,9.8c0,3.8-0.6,7-1.9,9.7
			c-1.2,2.7-3,4.8-5.3,6.2c-2.3,1.4-5,2.2-8,2.2c-3.1,0-5.8-0.7-8.1-2.1c-2.3-1.4-4-3.5-5.3-6.2c-1.2-2.7-1.9-6-1.9-9.8
			c0-3.7,0.6-7,1.9-9.7c1.2-2.7,3-4.8,5.3-6.2c2.3-1.4,5-2.2,8.1-2.2C111.6,0,114.3,0.7,116.6,2.1z M102.4,8.2
			c-1.4,2.1-2.1,5.4-2.1,9.9c0,8.7,2.7,13,8.2,13c2.7,0,4.7-1,6.1-3.1c1.4-2.1,2.1-5.4,2.1-9.9c0-4.5-0.7-7.8-2.1-9.9
			c-1.4-2.1-3.4-3.1-6.1-3.1C105.8,5.1,103.8,6.1,102.4,8.2z"/>
		<path id="XMLID_77_" style="fill:#353140;" d="M146.2,1.1c1.8,0.7,3.5,1.8,5.1,3.2L148,8c-1.2-1-2.5-1.8-3.7-2.3
			c-1.3-0.5-2.6-0.7-4-0.7c-1.6,0-2.9,0.4-3.9,1.1c-1,0.7-1.5,1.7-1.5,3c0,0.9,0.2,1.6,0.6,2.2c0.4,0.6,1.1,1.1,2.1,1.6
			c1,0.5,2.5,1.1,4.5,1.7c3.4,1.1,6,2.4,7.7,4c1.7,1.6,2.6,3.9,2.6,7c0,2.1-0.5,3.9-1.6,5.5c-1.1,1.6-2.6,2.9-4.5,3.8
			c-2,0.9-4.3,1.4-7,1.4c-2.6,0-5-0.4-7.1-1.3c-2.1-0.9-3.9-2-5.4-3.5l3.4-3.8c1.3,1.1,2.7,2,4.2,2.6c1.4,0.6,3,0.9,4.8,0.9
			c1.9,0,3.4-0.5,4.6-1.4c1.2-0.9,1.8-2.2,1.8-3.8c0-1-0.2-1.8-0.6-2.5c-0.4-0.7-1.1-1.2-2.1-1.8c-1-0.5-2.4-1.1-4.2-1.6
			c-3.7-1.1-6.3-2.5-8-4.1c-1.6-1.6-2.5-3.7-2.5-6.3c0-1.9,0.5-3.6,1.5-5c1-1.4,2.4-2.6,4.2-3.4c1.8-0.8,3.8-1.2,6.1-1.2
			C142.3,0,144.4,0.4,146.2,1.1z"/>
		<path id="XMLID_79_" style="fill:#353140;" d="M164.6,0.8v34.7H158V0.8H164.6z"/>
		<path id="XMLID_81_" style="fill:#353140;" d="M205.6,35.4h-6.5l-0.9-14.5c-0.3-5.2-0.5-9.3-0.5-12.3V6.8l-6.3,24.9h-6.3l-6.7-24.9
			c0.1,2.2,0.1,3.9,0.1,5c0,3-0.1,6.2-0.3,9.4l-0.9,14.3H171l2.8-34.7h8.5l6.2,24.3l5.8-24.3h8.6L205.6,35.4z"/>
	</g>
</svg>
