<?xml version="1.0" encoding="utf-8"?>
<!-- Generator: Adobe Illustrator 19.0.0, SVG Export Plug-In . SVG Version: 6.00 Build 0)  -->
<svg version="1.1" id="Capa_1" xmlns="http://www.w3.org/2000/svg" xmlns:xlink="http://www.w3.org/1999/xlink" x="0px" y="0px"
	 viewBox="0 0 349.4 36.3" style="enable-background:new 0 0 349.4 36.3;" xml:space="preserve">
	<g id="MS_x5F_home--holding-group">
		<g id="XMLID_159_">
			<g id="XMLID_102_">
				<path id="XMLID_114_" style="fill:#353140;" d="M227.1,0.8c1.5,0.6,3,1.4,4.5,2.6l-1.8,1.9c-1.3-1-2.5-1.7-3.7-2.2
					c-1.2-0.4-2.6-0.7-4.1-0.7c-2,0-3.9,0.5-5.6,1.6c-1.7,1.1-3.1,2.7-4.2,5c-1.1,2.3-1.6,5.2-1.6,8.7c0,5.2,1,9.1,3,11.7
					c2,2.6,4.7,3.9,8.3,3.9c2.7,0,5.2-0.6,7.4-1.8V19.3h-6.9l-0.4-2.6h10.2v16.6c-3.3,1.9-6.8,2.9-10.4,2.9c-4.5,0-8-1.6-10.6-4.7
					c-2.6-3.1-3.9-7.6-3.9-13.6c0-3.9,0.7-7.1,2-9.9c1.3-2.7,3.1-4.7,5.4-6.1c2.2-1.3,4.7-2,7.3-2C223.9,0,225.7,0.3,227.1,0.8z"/>
				<path id="XMLID_111_" style="fill:#353140;" d="M250.1,23h-5.9v12.7h-3V6.9h7.6c3.6,0,6.3,0.7,8.2,2c1.8,1.4,2.7,3.3,2.7,5.9
					c0,2-0.6,3.7-1.7,4.9c-1.1,1.2-2.8,2.1-5,2.7l8.3,13.3h-3.6L250.1,23z M249.1,20.6c2.5,0,4.4-0.5,5.7-1.4
					c1.3-0.9,1.9-2.4,1.9-4.4c0-1.9-0.6-3.3-1.9-4.2c-1.2-0.9-3.3-1.4-6.1-1.4h-4.5v11.3H249.1z"/>
				<path id="XMLID_108_" style="fill:#353140;" d="M285.2,8.1c1.9,1.1,3.4,2.8,4.4,5.1c1,2.2,1.6,4.9,1.6,8.1c0,3.1-0.5,5.8-1.5,8
					c-1,2.2-2.5,3.9-4.4,5.1c-1.9,1.2-4.1,1.7-6.6,1.7c-2.5,0-4.6-0.6-6.5-1.7c-1.9-1.1-3.3-2.8-4.4-5c-1-2.2-1.6-4.9-1.6-8
					c0-3.1,0.5-5.8,1.6-8c1-2.2,2.5-3.9,4.4-5.1c1.9-1.2,4-1.8,6.5-1.8C281.1,6.4,283.3,7,285.2,8.1z M271.8,12
					c-1.7,2.1-2.5,5.2-2.5,9.3c0,4.1,0.8,7.2,2.5,9.2c1.7,2.1,3.9,3.1,6.8,3.1c3,0,5.3-1,6.9-3.1c1.7-2.1,2.5-5.2,2.5-9.3
					c0-4.1-0.8-7.2-2.5-9.3c-1.7-2-4-3.1-6.9-3.1C275.7,8.9,273.4,9.9,271.8,12z"/>
				<path id="XMLID_106_" style="fill:#353140;" d="M319.9,26.6c0,2.9-0.9,5.2-2.6,6.9c-1.7,1.7-4.2,2.6-7.5,2.6
					c-3.3,0-5.8-0.9-7.5-2.6c-1.7-1.7-2.6-4-2.6-6.9V6.9h3v19.5c0,2.3,0.6,4.1,1.8,5.4c1.2,1.3,3,1.9,5.4,1.9c4.7,0,7.1-2.4,7.1-7.3
					V6.9h3V26.6z"/>
				<path id="XMLID_103_" style="fill:#353140;" d="M346.5,9c2,1.4,2.9,3.6,2.9,6.6c0,3.1-1,5.4-3.1,6.8c-2,1.5-4.8,2.2-8.4,2.2h-4.3
					v11.1h-3V6.9h7.3C341.7,6.9,344.5,7.6,346.5,9z M344.1,20.7c1.5-1,2.2-2.7,2.2-5.1c0-2.3-0.7-3.9-2.1-4.9c-1.4-1-3.5-1.5-6.1-1.5
					h-4.4v12.9h4.3C340.6,22.2,342.7,21.7,344.1,20.7z"/>
			</g>
		</g>
		<g id="XMLID_142_">
			<path id="XMLID_143_" style="fill:#353140;" d="M19.4,35.7V19.8H6.8v15.8H0V0.3h6.8v14.2h12.6V0.3h6.8v35.4H19.4z"/>
			<path id="XMLID_145_" style="fill:#353140;" d="M56.1,10c2.4,2.6,3.6,6.3,3.6,11.1s-1.2,8.5-3.6,11.2c-2.4,2.7-5.7,4-9.9,4
				c-4.2,0-7.6-1.3-10-4c-2.4-2.7-3.6-6.4-3.6-11.2c0-3.1,0.6-5.7,1.7-8c1.1-2.3,2.7-4,4.7-5.2c2-1.2,4.5-1.8,7.2-1.8
				C50.3,6,53.7,7.4,56.1,10z M41,13.3c-1.2,1.6-1.7,4.2-1.7,7.8c0,3.6,0.6,6.3,1.7,7.9c1.2,1.7,2.9,2.5,5.1,2.5
				c2.3,0,3.9-0.8,5.1-2.5c1.1-1.6,1.7-4.3,1.7-7.9c0-3.6-0.6-6.1-1.7-7.8c-1.1-1.6-2.8-2.5-5-2.5C43.9,10.9,42.2,11.7,41,13.3z"/>
			<path id="XMLID_148_" style="fill:#353140;" d="M72.6,6.7v23.8h12.2L84,35.7H66v-29H72.6z"/>
			<path id="XMLID_150_" style="fill:#353140;" d="M109.2,9.7c2.9,2,4.3,5.8,4.3,11.2c0,5.4-1.4,9.2-4.3,11.4
				c-2.8,2.2-6.4,3.3-10.8,3.3h-8.8v-29h8C102.5,6.7,106.3,7.7,109.2,9.7z M96.2,11.4v19.5h2.7c2.5,0,4.4-0.7,5.8-2.2
				c1.4-1.5,2-4,2-7.8c0-3.7-0.7-6.2-2.1-7.5c-1.4-1.3-3.4-2-5.9-2H96.2z"/>
			<path id="XMLID_153_" style="fill:#353140;" d="M126.4,6.7v29h-6.6v-29H126.4z"/>
			<path id="XMLID_155_" style="fill:#353140;" d="M157.8,35.7h-8.4l-9.8-23.1l0.2,1.2c0.3,1.9,0.5,3.6,0.6,5.3
				c0.2,1.6,0.2,3.5,0.2,5.6v11h-5.9v-29h8.2l10,23.1c-0.6-3.6-1-7.2-1-10.9V6.7h5.9V35.7z"/>
			<path id="XMLID_157_" style="fill:#353140;" d="M188.5,9.5l-3.5,3.6c-1-0.8-2-1.4-3-1.7c-1-0.4-2-0.5-3.3-0.5
				c-2.3,0-4.2,0.9-5.6,2.6c-1.5,1.7-2.2,4.3-2.2,7.7c0,3.7,0.6,6.4,1.7,8c1.1,1.6,2.8,2.4,5.1,2.4c1.7,0,3.3-0.3,4.6-1v-6.8H178
				l-0.6-4.7h11.3v14.3c-1.5,1-3.2,1.7-5.1,2.2c-1.9,0.5-3.8,0.8-5.8,0.8c-4.4,0-7.8-1.3-10.1-3.9c-2.3-2.6-3.5-6.4-3.5-11.3
				c0-3.1,0.6-5.8,1.9-8.1c1.3-2.3,3-4,5.1-5.2c2.2-1.2,4.6-1.8,7.2-1.8C182.2,6,185.6,7.2,188.5,9.5z"/>
		</g>
	</g>
</svg>
