<?xml version="1.0" encoding="utf-8"?>
<!-- Generator: Adobe Illustrator 19.0.0, SVG Export Plug-In . SVG Version: 6.00 Build 0)  -->
<svg version="1.1" id="Capa_1" xmlns="http://www.w3.org/2000/svg" xmlns:xlink="http://www.w3.org/1999/xlink" x="0px" y="0px"
	 viewBox="0 0 144.5 31.1" style="enable-background:new 0 0 144.5 31.1;" xml:space="preserve">
	<g id="MS_x5F_home--savalo">
		<path id="MS_x5F_home--proyectos-title_savalo--s" style="fill:#353140;" d="M16.8,0.9c1.6,0.6,3,1.5,4.4,2.8l-2.8,3.2
			C17.3,6,16.3,5.4,15.2,5c-1.1-0.4-2.2-0.6-3.5-0.6c-1.4,0-2.5,0.3-3.3,0.9C7.5,5.9,7.1,6.8,7.1,7.9c0,0.7,0.2,1.4,0.5,1.9
			c0.3,0.5,0.9,1,1.8,1.4c0.9,0.4,2.1,0.9,3.8,1.4c2.9,0.9,5.1,2.1,6.6,3.4c1.5,1.4,2.2,3.4,2.2,6c0,1.8-0.5,3.4-1.4,4.7
			c-0.9,1.4-2.2,2.5-3.9,3.2c-1.7,0.8-3.7,1.2-6,1.2c-2.3,0-4.3-0.4-6.1-1.1c-1.8-0.7-3.3-1.7-4.6-3l2.9-3.3c1.2,1,2.3,1.7,3.6,2.2
			c1.2,0.5,2.6,0.8,4.1,0.8c1.6,0,3-0.4,4-1.2c1-0.8,1.5-1.9,1.5-3.3c0-0.9-0.2-1.6-0.5-2.1c-0.3-0.6-0.9-1.1-1.8-1.5
			c-0.8-0.4-2-0.9-3.6-1.4c-3.2-1-5.5-2.2-6.9-3.5c-1.4-1.4-2.1-3.2-2.1-5.4c0-1.6,0.4-3.1,1.3-4.3S4.6,1.7,6.1,1
			c1.5-0.7,3.3-1,5.2-1C13.5,0,15.3,0.3,16.8,0.9z"/>
		<path id="MS_x5F_home--proyectos-title_savalo--a_1_" style="fill:#353140;" d="M42.5,30.5l-1.9-6.9h-9.9l-1.9,6.9H23l9.3-29.8h7
			l9.2,29.8H42.5z M31.9,19.3h7.6L35.7,5L31.9,19.3z"/>
		<path id="MS_x5F_home--proyectos-title_savalo--v" style="fill:#353140;" d="M72.2,0.6l-8.9,29.8h-6.8L47.5,0.6h6.1l6.5,24.8
			l6.3-24.8H72.2z"/>
		<path id="MS_x5F_home--proyectos-title_savalo--a" style="fill:#353140;" d="M90.7,30.5l-1.9-6.9h-9.9l-1.9,6.9h-5.9l9.3-29.8h7
			l9.2,29.8H90.7z M80.1,19.3h7.6L83.9,5L80.1,19.3z"/>
		<path id="MS_x5F_home--proyectos-title_savalo--l" style="fill:#353140;" d="M105.7,0.6v25.2h12l-0.6,4.7h-17V0.6H105.7z"/>
		<path id="MS_x5F_home--proyectos-title_savalo--o" style="fill:#353140;" d="M138.4,1.8c2,1.2,3.5,3,4.5,5.3
			c1.1,2.3,1.6,5.1,1.6,8.4c0,3.3-0.5,6-1.6,8.4c-1.1,2.3-2.6,4.1-4.5,5.4c-2,1.2-4.3,1.9-6.9,1.9c-2.7,0-5-0.6-7-1.8
			c-2-1.2-3.5-3-4.5-5.3c-1.1-2.3-1.6-5.1-1.6-8.4c0-3.2,0.5-6,1.6-8.4c1.1-2.3,2.6-4.1,4.6-5.4c2-1.2,4.3-1.9,6.9-1.9
			C134.2,0,136.5,0.6,138.4,1.8z M126.2,7.1c-1.2,1.8-1.8,4.6-1.8,8.5c0,7.5,2.4,11.2,7.1,11.2c2.3,0,4.1-0.9,5.2-2.7
			c1.2-1.8,1.8-4.6,1.8-8.5c0-3.9-0.6-6.7-1.8-8.5c-1.2-1.8-2.9-2.7-5.2-2.7S127.4,5.3,126.2,7.1z"/>
	</g>
</svg>
